<?xml version="1.0" encoding="UTF-8"?>
<svg width="70px" height="24px" viewBox="0 0 70 24" version="1.1" xmlns="http://www.w3.org/2000/svg" xmlns:xlink="http://www.w3.org/1999/xlink">
    <!-- Generator: sketchtool 42 (36781) - http://www.bohemiancoding.com/sketch -->
    <title>74980B5A-CBA5-4EC3-A154-2697F097206E</title>
    <desc>Created with sketchtool.</desc>
    <defs></defs>
    <g id="Page-1" stroke="none" stroke-width="1" fill="none" fill-rule="evenodd">
        <g id="vogue_conf2017_landing_new" transform="translate(-216.000000, -33.000000)" fill="#FFFFFF">
            <g id="Group-14">
                <path d="M273.890067,54.2889333 C271.742881,54.2889333 269.765346,53.5717082 268.184898,52.3682579 C269.784361,50.334285 270.740284,47.7786048 270.740284,45 C270.740284,42.2213952 269.784361,39.6654703 268.184651,37.6317421 C269.765346,36.4280471 271.742634,35.710822 273.890067,35.710822 C279.067268,35.710822 283.264344,39.8697975 283.264344,45 C283.264344,50.1302025 279.067268,54.2889333 273.890067,54.2889333 Z M252.924689,52.3682579 C254.524398,50.3345297 255.480322,47.7786048 255.480322,45 C255.480322,42.2213952 254.524398,39.6654703 252.924689,37.6314974 C254.505136,36.4280471 256.482672,35.710822 258.630105,35.710822 C260.777785,35.710822 262.755073,36.4280471 264.335521,37.6317421 C262.735564,39.665715 261.780134,42.2213952 261.780134,45 C261.780134,47.7786048 262.735564,50.334285 264.335521,52.3682579 C262.755073,53.5717082 260.777538,54.2889333 258.630105,54.2889333 C256.482672,54.2889333 254.505136,53.5717082 252.924689,52.3682579 Z M237.664479,52.3682579 C239.264436,50.334285 240.219866,47.7786048 240.219866,45 C240.219866,42.2213952 239.264436,39.6654703 237.664479,37.6314974 C239.245174,36.4280471 241.222462,35.710822 243.369895,35.710822 C245.517328,35.710822 247.494864,36.4280471 249.075311,37.6314974 C247.475602,39.6654703 246.519925,42.2213952 246.519925,45 C246.519925,47.7786048 247.475602,50.334285 249.075311,52.3682579 C247.494864,53.5717082 245.517328,54.2889333 243.369895,54.2889333 C241.222462,54.2889333 239.245174,53.5717082 237.664479,52.3682579 Z M218.735656,45 C218.735656,39.8695528 222.932732,35.710822 228.109933,35.710822 C230.257366,35.710822 232.234901,36.4280471 233.815349,37.6314974 C232.215639,39.6654703 231.259962,42.2213952 231.259962,45 C231.259962,47.7786048 232.215639,50.3345297 233.815349,52.3682579 C232.234654,53.5717082 230.257366,54.2889333 228.109933,54.2889333 C222.932732,54.2889333 218.735656,50.1302025 218.735656,45 Z M235.740038,50.3930137 C234.643355,48.8721834 233.995865,47.011705 233.995865,45 C233.995865,42.988295 234.643355,41.1275719 235.740038,39.6067416 C236.83672,41.1275719 237.48421,42.988295 237.48421,45 C237.48421,47.011705 236.83672,48.8721834 235.740038,50.3930137 Z M251,50.3930137 C249.903318,48.8721834 249.255828,47.011705 249.255828,45 C249.255828,42.988295 249.903318,41.1275719 251,39.6067416 C252.096436,41.1275719 252.744172,42.988295 252.744172,45 C252.744172,47.011705 252.096436,48.8721834 251,50.3930137 Z M266.259962,50.3930137 C265.16328,48.8721834 264.51579,47.011705 264.51579,45 C264.51579,42.988295 265.16328,41.1278166 266.259962,39.6069863 C267.356645,41.1278166 268.003888,42.988295 268.003888,45 C268.003888,47.011705 267.356645,48.8721834 266.259962,50.3930137 Z M273.890067,33 C270.997354,33 268.342696,34.0064642 266.260209,35.6834152 C264.177229,34.0064642 261.522571,33 258.630105,33 C255.737639,33 253.082981,34.0064642 251,35.6831705 C248.917266,34.0064642 246.262608,33 243.369895,33 C240.477429,33 237.822771,34.0064642 235.740038,35.6831705 C233.657304,34.0064642 231.002646,33 228.109933,33 C221.421676,33 216,38.3724587 216,45 C216,51.6275413 221.421676,57 228.109933,57 C231.002646,57 233.657304,55.9935358 235.740038,54.3165848 C237.822771,55.9935358 240.477429,57 243.369895,57 C246.262608,57 248.917266,55.9935358 251,54.3165848 C253.082981,55.9935358 255.737639,57 258.630105,57 C261.522571,57 264.177229,55.9935358 266.260209,54.3165848 C268.342696,55.9935358 270.997354,57 273.890067,57 C280.578324,57 286,51.6275413 286,45 C286,38.3724587 280.578324,33 273.890067,33 L273.890067,33 Z" id="audi-logo"></path>
            </g>
        </g>
    </g>
</svg>