<?xml version="1.0" encoding="UTF-8"?>
<svg width="40px" height="40px" viewBox="0 0 40 40" version="1.1" xmlns="http://www.w3.org/2000/svg" xmlns:xlink="http://www.w3.org/1999/xlink">
    <!-- Generator: sketchtool 42 (36781) - http://www.bohemiancoding.com/sketch -->
    <title>FAF354A7-88A3-47ED-A329-D05F4EED4B26</title>
    <desc>Created with sketchtool.</desc>
    <defs></defs>
    <g id="Page-1" stroke="none" stroke-width="1" fill="none" fill-rule="evenodd">
        <g id="vogue_conf2017_landing_new" transform="translate(-522.000000, -4078.000000)" fill-rule="nonzero" fill="#000000">
            <g id="Group-2" transform="translate(522.000000, 4078.000000)">
                <path d="M37.793765,0 L2.20773381,0 C0.988436096,-7.46576549e-17 1.49320905e-16,0.988399061 0,2.20765109 L0,37.7923489 C1.49320905e-16,39.0116009 0.988436096,40 2.20773381,40 L21.3669065,40 L21.3669065,24.5104725 L16.1540767,24.5104725 L16.1540767,18.4735284 L21.3669065,18.4735284 L21.3669065,14.0207576 C21.3669065,8.85458429 24.5218825,6.04144029 29.1321942,6.04144029 C30.6881308,6.03608782 32.2432003,6.11563956 33.7904676,6.27974072 L33.7904676,11.675222 L30.5935252,11.675222 C28.08753,11.675222 27.5959233,12.8667241 27.5959233,14.6142606 L27.5959233,18.4690322 L33.5731415,18.4690322 L32.7952638,24.5059762 L27.6004197,24.5059762 L27.6004197,40 L37.7922662,40 C39.0115639,40 40,39.0116009 40,37.7923489 L40,2.20765109 C40.0000003,0.988984118 39.0124773,0.000827336711 37.793765,0 L37.793765,0 Z" id="fb-logo"></path>
            </g>
        </g>
    </g>
</svg>