<?xml version="1.0" standalone="no"?>
<!DOCTYPE svg PUBLIC "-//W3C//DTD SVG 20010904//EN"
 "http://www.w3.org/TR/2001/REC-SVG-20010904/DTD/svg10.dtd">
<svg version="1.0" xmlns="http://www.w3.org/2000/svg"
 width="500.000000pt" height="500.000000pt" viewBox="0 0 500.000000 500.000000"
 preserveAspectRatio="xMidYMid meet">
<metadata>
Created by potrace 1.11, written by Peter Selinger 2001-2013
</metadata>
<g transform="translate(0.000000,500.000000) scale(0.100000,-0.100000)"
fill="#000000" stroke="none">
<path d="M942 4323 c3 -16 22 -19 182 -23 l178 -5 73 -210 c40 -115 132 -374
205 -575 470 -1298 726 -2018 921 -2588 l94 -273 16 53 c143 477 1116 3568
1127 3581 13 15 35 17 169 17 146 0 153 1 153 20 0 20 -7 20 -351 20 -328 0
-350 -1 -347 -17 3 -16 21 -19 163 -23 152 -5 160 -6 159 -25 -1 -28 -818
-2615 -825 -2615 -4 0 -14 17 -22 38 -42 106 -917 2571 -917 2584 0 23 30 28
183 28 115 0 137 2 137 15 0 13 -79 15 -651 15 -614 0 -650 -1 -647 -17z"/>
</g>
</svg>
