<?xml version="1.0" encoding="UTF-8"?>
<svg width="40px" height="40px" viewBox="0 0 40 40" version="1.1" xmlns="http://www.w3.org/2000/svg" xmlns:xlink="http://www.w3.org/1999/xlink">
    <!-- Generator: sketchtool 42 (36781) - http://www.bohemiancoding.com/sketch -->
    <title>A649EEAB-D976-4747-A041-8F9CD86D39AC</title>
    <desc>Created with sketchtool.</desc>
    <defs>
        <polygon id="path-1" points="0 39.9952381 39.987381 39.9952381 39.987381 0.0126190476 0 0.0126190476"></polygon>
    </defs>
    <g id="Page-1" stroke="none" stroke-width="1" fill="none" fill-rule="evenodd">
        <g id="vogue_conf2017_landing_new" transform="translate(-652.000000, -4078.000000)">
            <g id="Group-2" transform="translate(522.000000, 4078.000000)">
                <g id="insta-logo" transform="translate(130.000000, 0.000000)">
                    <g id="Group-3">
                        <mask id="mask-2" fill="white">
                            <use xlink:href="#path-1"></use>
                        </mask>
                        <g id="Clip-2"></g>
                        <path d="M19.9937302,0.0126190476 C14.5637302,0.0126190476 13.8828571,0.0356349206 11.7503175,0.132936508 C9.62222222,0.23 8.16880952,0.568015873 6.89706349,1.06230159 C5.58230159,1.5731746 4.46730159,2.2568254 3.35571429,3.36833333 C2.24420635,4.47992063 1.56055556,5.59492063 1.04968254,6.90968254 C0.555396825,8.18142857 0.217380952,9.63484127 0.12031746,11.7629365 C0.023015873,13.8954762 0,14.5763492 0,20.0063492 C0,25.4362698 0.023015873,26.1171429 0.12031746,28.2496825 C0.217380952,30.3777778 0.555396825,31.8311905 1.04968254,33.1029365 C1.56055556,34.4176984 2.24420635,35.5326984 3.35571429,36.6442857 C4.46730159,37.7557937 5.58230159,38.4394444 6.89706349,38.9503968 C8.16880952,39.4446032 9.62222222,39.782619 11.7503175,39.8796825 C13.8828571,39.9769841 14.5637302,40 19.9937302,40 C25.4236508,40 26.1045238,39.9769841 28.2370635,39.8796825 C30.3651587,39.782619 31.8185714,39.4446032 33.0903175,38.9503968 C34.4050794,38.4394444 35.5200794,37.7557937 36.6316667,36.6442857 C37.7431746,35.5326984 38.4268254,34.4176984 38.9377778,33.1029365 C39.4319841,31.8311905 39.77,30.3777778 39.8670635,28.2496825 C39.9643651,26.1171429 39.987381,25.4362698 39.987381,20.0063492 C39.987381,14.5763492 39.9643651,13.8954762 39.8670635,11.7629365 C39.77,9.63484127 39.4319841,8.18142857 38.9377778,6.90968254 C38.4268254,5.59492063 37.7431746,4.47992063 36.6316667,3.36833333 C35.5200794,2.2568254 34.4050794,1.5731746 33.0903175,1.06230159 C31.8185714,0.568015873 30.3651587,0.23 28.2370635,0.132936508 C26.1045238,0.0356349206 25.4236508,0.0126190476 19.9937302,0.0126190476 Z M19.9937302,3.61507937 C25.3322222,3.61507937 25.9646032,3.63547619 28.0728571,3.73166667 C30.0222222,3.82055556 31.080873,4.14626984 31.7853968,4.42007937 C32.7186508,4.78277778 33.3846825,5.21603175 34.0842857,5.91571429 C34.7839683,6.61531746 35.2172222,7.28134921 35.5799206,8.21460317 C35.8537302,8.91912698 36.1794444,9.97777778 36.2683333,11.9271429 C36.3645238,14.0353968 36.3849206,14.6677778 36.3849206,20.0063492 C36.3849206,25.3448413 36.3645238,25.9772222 36.2683333,28.0854762 C36.1794444,30.0348413 35.8537302,31.0934921 35.5799206,31.7980159 C35.2172222,32.7312698 34.7839683,33.3973016 34.0842857,34.0969048 C33.3846825,34.7965873 32.7186508,35.2298413 31.7853968,35.5925397 C31.080873,35.8663492 30.0222222,36.1920635 28.0728571,36.2809524 C25.9649206,36.3771429 25.332619,36.3975397 19.9937302,36.3975397 C14.6547619,36.3975397 14.0225397,36.3771429 11.9145238,36.2809524 C9.96515873,36.1920635 8.90650794,35.8663492 8.20198413,35.5925397 C7.26873016,35.2298413 6.60269841,34.7965873 5.90309524,34.0969048 C5.20349206,33.3973016 4.77015873,32.7312698 4.40746032,31.7980159 C4.13365079,31.0934921 3.80793651,30.0348413 3.71904762,28.0854762 C3.62285714,25.9772222 3.60246032,25.3448413 3.60246032,20.0063492 C3.60246032,14.6677778 3.62285714,14.0353968 3.71904762,11.9271429 C3.80793651,9.97777778 4.13365079,8.91912698 4.40746032,8.21460317 C4.77015873,7.28134921 5.2034127,6.61531746 5.90309524,5.91571429 C6.60269841,5.21603175 7.26873016,4.78277778 8.20198413,4.42007937 C8.90650794,4.14626984 9.96515873,3.82055556 11.9145238,3.73166667 C14.0227778,3.63547619 14.6551587,3.61507937 19.9937302,3.61507937 L19.9937302,3.61507937 Z" id="Fill-1" fill="#000000" mask="url(#mask-2)"></path>
                    </g>
                    <path d="M19.9937302,26.670873 C16.3129365,26.670873 13.329127,23.6870635 13.329127,20.0063492 C13.329127,16.3255556 16.3129365,13.341746 19.9937302,13.341746 C23.6744444,13.341746 26.658254,16.3255556 26.658254,20.0063492 C26.658254,23.6870635 23.6744444,26.670873 19.9937302,26.670873 Z M19.9937302,9.73928571 C14.3233333,9.73928571 9.72666667,14.3359524 9.72666667,20.0063492 C9.72666667,25.6766667 14.3233333,30.2733333 19.9937302,30.2733333 C25.6640476,30.2733333 30.2607143,25.6766667 30.2607143,20.0063492 C30.2607143,14.3359524 25.6640476,9.73928571 19.9937302,9.73928571 L19.9937302,9.73928571 Z" id="Fill-4" fill="#000000"></path>
                    <path d="M33.0656349,9.33365079 C33.0656349,10.6587302 31.9914286,11.7328571 30.6663492,11.7328571 C29.3413492,11.7328571 28.2671429,10.6587302 28.2671429,9.33365079 C28.2671429,8.00857143 29.3413492,6.93436508 30.6663492,6.93436508 C31.9914286,6.93436508 33.0656349,8.00857143 33.0656349,9.33365079" id="Fill-5" fill="#000000"></path>
                </g>
            </g>
        </g>
    </g>
</svg>