<?xml version="1.0" encoding="UTF-8" standalone="no"?>
<svg width="22px" height="24px" viewBox="0 0 22 24" version="1.1" xmlns="http://www.w3.org/2000/svg" xmlns:xlink="http://www.w3.org/1999/xlink">
    <!-- Generator: Sketch 3.7.2 (28276) - http://www.bohemiancoding.com/sketch -->
    <title>pdf-file-format-symbol</title>
    <desc>Created with Sketch.</desc>
    <defs></defs>
    <g id="Page-1" stroke="none" stroke-width="1" fill="none" fill-rule="evenodd">
        <g id="vogue_conf_landing" transform="translate(-487.000000, -3009.000000)" fill="#AB8F6B">
            <g id="pdf-file-format-symbol" transform="translate(487.000000, 3009.000000)">
                <g id="Group">
                    <path d="M5.82082209,12.292922 C5.82082209,11.646882 5.35747239,11.261314 4.53978323,11.261314 C4.20622904,11.261314 3.9802454,11.2924574 3.86174233,11.3236878 L3.86174233,13.3981851 C4.00184049,13.42898 4.17406135,13.4395209 4.41025767,13.4395209 C5.2826544,13.4395209 5.82082209,13.0122686 5.82082209,12.292922 L5.82082209,12.292922 Z" id="Shape"></path>
                    <path d="M10.8819018,11.2821343 C10.5154601,11.2821343 10.2791738,11.3133648 10.1387157,11.3446388 L10.1387157,15.940922 C10.2789039,15.9726751 10.5050225,15.9726751 10.709636,15.9726751 C12.1950634,15.9827368 13.1640082,15.1909982 13.1640082,13.5128276 C13.1748957,12.0530962 12.2918814,11.2821343 10.8819018,11.2821343 L10.8819018,11.2821343 Z" id="Shape"></path>
                    <path d="M20.5794928,8.58158984 L19.9844581,8.58158984 L19.9844581,5.80194555 C19.9844581,5.7846098 19.9816237,5.76714338 19.9792393,5.74958984 C19.9782945,5.63921597 19.9420327,5.53080218 19.8639755,5.44490744 L15.0861963,0.160900181 C15.0847566,0.159549909 15.083362,0.15907078 15.0823722,0.157589837 C15.0538937,0.126794918 15.0206912,0.101183303 14.9855992,0.0790127042 C14.9752065,0.072261343 14.9647239,0.0665989111 14.9538364,0.0607622505 C14.9234233,0.0446896552 14.8911656,0.0313611615 14.8579632,0.0217350272 C14.8489652,0.0192958258 14.8408671,0.0157241379 14.8318691,0.0134591652 C14.7957873,0.00518330309 14.7583108,0 14.7203395,0 L2.97832311,0 C2.44213497,0 2.00654397,0.422199637 2.00654397,0.940878403 L2.00654397,8.58137205 L1.41164417,8.58137205 C0.644613497,8.58137205 0.0226748466,9.18324501 0.0226748466,9.92611252 L0.0226748466,16.9189982 C0.0226748466,17.661343 0.644613497,18.263608 1.41164417,18.263608 L2.00658896,18.263608 L2.00658896,23.0504537 C2.00658896,23.5690889 2.44217996,23.9913321 2.9783681,23.9913321 L19.0127239,23.9913321 C19.5484172,23.9913321 19.9845031,23.5691325 19.9845031,23.0504537 L19.9845031,18.263608 L20.5795378,18.263608 C21.3463436,18.263608 21.9684172,17.661343 21.9684172,16.9189982 L21.9684172,9.92633031 C21.9683722,9.18350635 21.3462986,8.58158984 20.5794928,8.58158984 L20.5794928,8.58158984 Z M2.97832311,0.941052632 L14.2344499,0.941052632 L14.2344499,5.75468603 C14.2344499,6.01459165 14.4522454,6.22510345 14.7203395,6.22510345 L19.0126789,6.22510345 L19.0126789,8.58189474 L2.97832311,8.58189474 L2.97832311,0.941052632 L2.97832311,0.941052632 Z M14.9077669,13.460167 C14.9077669,14.8050381 14.4019468,15.7323267 13.7011411,16.3058875 C12.9376196,16.920784 11.7746789,17.2124864 10.3540818,17.2124864 C9.50377505,17.2124864 8.90104703,17.1603485 8.49146012,17.1084283 L8.49146012,10.2082759 C9.09427812,10.1146715 9.8806544,10.0625336 10.709636,10.0625336 C12.086863,10.0625336 12.9806299,10.3024465 13.6807157,10.8128494 C14.4339796,11.3549183 14.9077669,12.219833 14.9077669,13.460167 L14.9077669,13.460167 Z M2.23599182,17.1397024 L2.23599182,10.2082759 C2.74172188,10.125343 3.45260532,10.0625336 4.45380777,10.0625336 C5.4656728,10.0625336 6.18712883,10.2501779 6.67139877,10.6256407 C7.13443354,10.979804 7.44589775,11.5636007 7.44589775,12.2515426 C7.44589775,12.9397024 7.20970143,13.5233249 6.77874438,13.9191289 C6.2189816,14.4299673 5.39013497,14.6594265 4.42096524,14.6594265 C4.20600409,14.6594265 4.01155828,14.6488421 3.86151738,14.6279347 L3.86151738,17.1398766 L2.23599182,17.1398766 L2.23599182,17.1397024 L2.23599182,17.1397024 Z M19.0127239,22.795775 L2.97832311,22.795775 L2.97832311,18.263608 L19.0126789,18.263608 L19.0126789,22.795775 L19.0127239,22.795775 Z M20.4207689,11.41751 L17.6318978,11.41751 L17.6318978,13.0226352 L20.2373906,13.0226352 L20.2373906,14.3151506 L17.6318978,14.3151506 L17.6318978,17.1397459 L15.9855869,17.1397459 L15.9855869,10.1146715 L20.4207689,10.1146715 L20.4207689,11.41751 L20.4207689,11.41751 Z" id="Shape"></path>
                </g>
            </g>
        </g>
    </g>
</svg>