<?xml version="1.0" encoding="UTF-8"?>
<svg width="40px" height="40px" viewBox="0 0 40 40" version="1.1" xmlns="http://www.w3.org/2000/svg" xmlns:xlink="http://www.w3.org/1999/xlink">
    <!-- Generator: sketchtool 42 (36781) - http://www.bohemiancoding.com/sketch -->
    <title>ACAA7CF0-0DDD-4401-88C1-3B2B251B2811</title>
    <desc>Created with sketchtool.</desc>
    <defs></defs>
    <g id="Page-1" stroke="none" stroke-width="1" fill="none" fill-rule="evenodd">
        <g id="vogue_conf2017_landing_new" transform="translate(-717.000000, -4078.000000)" fill="#000000">
            <g id="Group-2" transform="translate(522.000000, 4078.000000)">
                <path d="M215.000613,0 C203.954968,0 195,8.95401594 195,20 C195,28.4733292 200.271451,35.710607 207.712057,38.624157 C207.536709,37.0423053 207.378529,34.614347 207.780724,32.8877989 C208.144907,31.3267934 210.126452,22.9454323 210.126452,22.9454323 C210.126452,22.9454323 209.528065,21.7473942 209.528065,19.9767014 C209.528065,17.1955855 211.139297,15.1195586 213.146593,15.1195586 C214.853469,15.1195586 215.677478,16.3997548 215.677478,17.9362354 C215.677478,19.6529736 214.58493,22.218271 214.020876,24.5959534 C213.550014,26.5861435 215.019006,28.2096873 216.982159,28.2096873 C220.536924,28.2096873 223.270133,24.4610668 223.270133,19.050889 C223.270133,14.2624157 219.829404,10.91355 214.916005,10.91355 C209.225192,10.91355 205.885013,15.1820969 205.885013,19.594114 C205.885013,21.3120785 206.547163,23.1563458 207.373624,24.1581852 C207.536709,24.3556101 207.561234,24.5297364 207.512185,24.7320662 C207.360136,25.3635806 207.02293,26.7222563 206.956715,26.9993869 C206.869655,27.3660331 206.666105,27.4432863 206.287208,27.2679338 C203.78943,26.1042305 202.228472,22.4524831 202.228472,19.5193133 C202.228472,13.2103004 206.812023,7.41630901 215.443273,7.41630901 C222.379909,7.41630901 227.772754,12.360515 227.772754,18.9675046 C227.772754,25.8602085 223.425861,31.4077253 217.394163,31.4077253 C215.367248,31.4077253 213.462953,30.3543838 212.810613,29.1109749 C212.810613,29.1109749 211.807578,32.9294911 211.56479,33.8651134 C211.11232,35.6026977 209.893474,37.7805028 209.078048,39.1085224 C210.949235,39.6873084 212.938138,40 215.000613,40 C226.045032,40 235,31.0459841 235,20 C235,8.95401594 226.045032,0 215.000613,0" id="pin-logo"></path>
            </g>
        </g>
    </g>
</svg>