<?xml version="1.0" encoding="UTF-8"?>
<svg width="40px" height="40px" viewBox="0 0 40 40" version="1.1" xmlns="http://www.w3.org/2000/svg" xmlns:xlink="http://www.w3.org/1999/xlink">
    <!-- Generator: sketchtool 42 (36781) - http://www.bohemiancoding.com/sketch -->
    <title>BDB30B12-DB48-427D-B00B-99C25D06EA94</title>
    <desc>Created with sketchtool.</desc>
    <defs></defs>
    <g id="Page-1" stroke="none" stroke-width="1" fill="none" fill-rule="evenodd">
        <g id="vogue_conf2017_landing_new" transform="translate(-587.000000, -4078.000000)" fill="#000000">
            <g id="Group-2" transform="translate(522.000000, 4078.000000)">
                <path d="M71.1636933,0 L98.8363067,0 C102.240306,0 105,2.75959794 105,6.16369328 L105,33.8363067 C105,37.2403057 102.240306,40 98.8363067,40 L71.1636933,40 C67.7595979,40 65,37.2403057 65,33.8363067 L65,6.16369328 C65,2.75959794 67.7595979,0 71.1636933,0 Z M94.0607024,20.3331895 C94.0607024,20.3331895 97.5170439,15.4577199 97.8604995,13.8554411 C97.9749204,13.28324 97.7231365,12.96263 97.127897,12.96263 L94.1294321,12.96263 C93.4427136,12.96263 93.1909297,13.2602016 92.9849335,13.6951361 C92.9849335,13.6951361 91.3637612,17.1494533 89.391229,19.3261503 C88.7580098,20.0298343 88.4360503,20.2416142 88.0865218,20.2416142 C87.8045662,20.2416142 87.6745293,20.0066031 87.6745293,19.3718416 L87.6745293,13.8096535 C87.6745293,13.0314561 87.582954,12.8025178 86.9421196,12.8025178 L82.1352832,12.8025178 C81.768982,12.8025178 81.5400437,13.0154545 81.5400437,13.3059893 C81.5400437,14.0388809 82.6616967,14.2043913 82.6616967,16.1901296 L82.6616967,20.2874019 C82.6616967,21.1114833 82.615909,21.4319005 82.2267622,21.4319005 C81.1967809,21.4319005 78.7475751,17.8840801 77.3742346,13.8554411 C77.0995086,13.0314561 76.8019371,12.8025178 76.0236433,12.8025178 L73.0251784,12.8025178 C72.5902439,12.8025178 72.2697303,13.099993 72.2697303,13.5348312 C72.2697303,14.3359705 73.2082326,18.0441923 76.8935124,23.0113336 C79.3655638,26.3531578 82.615909,28.1614328 85.5457407,28.1614328 C87.3311701,28.1614328 87.7661046,27.8639576 87.7661046,27.1085095 L87.7661046,24.5448827 C87.7661046,23.903952 88.0178885,23.6293224 88.3840934,23.6293224 C88.7960859,23.6293224 89.5232903,23.7616728 91.2224461,25.4375974 C93.2367174,27.3603898 93.3740803,28.1614328 94.4728877,28.1614328 L97.8375574,28.1614328 C98.1809167,28.1614328 98.5013339,28.0012242 98.5013339,27.4290231 C98.5013339,26.673575 97.5170439,25.3231765 96.0063404,23.7208013 C95.3883516,22.8968163 94.381216,22.004198 94.0607024,21.5922055 C93.6030186,21.1114833 93.7402852,20.836661 94.0607024,20.3331895 Z" id="vk-logo"></path>
            </g>
        </g>
    </g>
</svg>