<?xml version="1.0" encoding="UTF-8" standalone="no"?>
<svg width="203px" height="79px" viewBox="0 0 203 79" version="1.1" xmlns="http://www.w3.org/2000/svg" xmlns:xlink="http://www.w3.org/1999/xlink">
    <!-- Generator: sketchtool 3.6.1 (26313) - http://www.bohemiancoding.com/sketch -->
    <title>fairmon_logo</title>
    <desc>Created with sketchtool.</desc>
    <defs></defs>
    <g id="Page-1" stroke="none" stroke-width="1" fill="none" fill-rule="evenodd">
        <g id="vogue_conf_landing" transform="translate(-492.000000, -4314.000000)" fill="#6F8F9D">
            <g id="fairmon_logo" transform="translate(492.000000, 4314.000000)">
                <path d="M24.5346894,58.8117135 C32.2432851,55.4053351 43.9494128,36.7906595 46.3062638,31.6657676 C44.9260085,31.6657676 38.6106894,31.8824973 38.6106894,37.8152 C37.5754979,37.8152 36.5641787,36.5936324 36.6206043,35.1378216 C36.6206043,32.7756865 39.0208596,30.3500649 47.1005617,30.3500649 C50.5034553,24.739173 55.8226468,17.3090649 59.394817,14.8046324 C60.9031149,13.7560108 60.9334979,13.9880649 60.0458809,15.0629568 C58.9021787,16.6501189 57.241966,19.0823081 55.4515404,22.1230919 C52.5456255,26.9020919 49.4877957,33.406173 45.7311574,39.9036865 C42.0613277,45.8035514 38.0399234,50.5978757 33.8492426,54.2144162 C30.0101362,57.3843622 26.1211149,59.3655784 23.7599234,59.893173 C22.7160511,60.1033351 22.8723064,59.3655784 24.5346894,58.8117135" id="Fill-111"></path>
                <path d="M81.6117191,3.63867297 C76.8741447,3.62115946 72.3622723,5.39659189 68.5839319,8.50961892 C63.8572085,6.47586216 54.3929106,0.547537838 44.1885702,0.547537838 C31.9811234,0.547537838 24.224783,8.39359189 24.224783,16.7190784 C24.224783,23.5975108 30.0452936,28.1882405 36.5277191,28.1882405 C46.1265702,28.1882405 47.5502298,21.2550784 47.5198468,20.4100514 C47.5198468,19.9459432 47.3353787,19.0155378 46.9382298,18.693727 C46.7168681,18.5382946 46.3848255,18.5601865 46.3956766,18.8228892 C46.3956766,21.4739973 41.4106979,26.8287541 35.2689957,26.8594027 C21.1344,26.9272676 26.918017,1.74283514 42.5218468,1.74283514 C51.0724851,1.74283514 60.0940596,7.4807 66.6264,10.3857541 C62.4834638,14.9173757 58.0453787,21.0164568 51.6215489,33.9085919 C42.8365277,51.5425108 31.3148681,62.3833757 18.5192936,62.3833757 C11.4465702,62.3833757 4.25882553,57.7707541 4.25882553,46.5424027 C4.25882553,27.5511865 29.2444851,22.3409162 29.2444851,41.8093757 C29.2444851,49.797727 23.7733787,53.9790784 19.2332936,54.0228622 C14.0877191,54.0228622 12.9765702,50.8244568 12.9809106,47.7486459 C12.9809106,41.3912405 16.1016766,40.1171324 14.5716766,40.1171324 C8.95516596,40.1171324 7.64218723,55.1152676 19.951634,55.1152676 C27.8164851,55.1152676 32.5866128,48.1098622 32.6690809,41.2839703 C32.7493787,34.8017811 28.6021021,28.4815919 18.8665277,28.4815919 C6.72418723,28.4815919 0.371974468,37.3806459 0.395846809,46.2008892 C0.417548936,54.8613216 6.5831234,63.4429432 19.4481447,63.4429432 C29.7848681,63.4429432 36.4170383,59.0098351 42.1724426,53.5981595 C48.5051234,47.6435649 52.4266979,39.8150243 55.7341021,32.1878892 C56.9168681,32.393673 59.2238043,32.7264297 60.0832085,32.4812405 C59.4625277,33.446673 57.7762723,36.7917541 58.6465277,36.6669703 C59.2628681,36.5794027 59.9529957,34.5281324 62.0993362,32.2141595 C62.882783,31.3691324 64.1957617,30.5416189 65.5781872,29.9374027 C68.2149957,28.7858892 67.3859745,26.8397 65.9948681,26.8397 C63.2777617,26.8397 62.0429106,31.1524027 58.9329957,31.1524027 C58.0236766,31.1458351 56.8995064,30.9597541 56.3178894,30.8130784 C58.3557191,25.7888892 63.4644,15.3705378 68.084783,11.1869973 C70.1139319,12.0604838 76.7569532,15.3683486 81.6355915,15.3683486 C93.1485702,15.3683486 94.6981021,3.63867297 81.6117191,3.63867297 M82.2801447,13.2557811 C77.6402298,13.2557811 72.9373787,10.5521324 70.1161021,9.30429459 C73.1912936,6.64880811 77.3559319,4.66759189 81.4164,4.65664595 C91.0977191,4.65664595 91.5035489,13.2557811 82.2801447,13.2557811" id="Fill-113"></path>
                <path d="M202.430285,32.2480919 L192.269349,32.2677946 C192.269349,32.2677946 194.580626,28.7694703 195.945689,26.6984973 C196.164881,26.3679297 196.269051,26.0723892 195.678753,26.0723892 C192.640455,26.0723892 188.987987,32.2874973 188.987987,32.2874973 L148.602498,32.3903892 L150.486243,34.2555784 C150.486243,34.2555784 184.089817,33.5068757 188.19803,33.4543351 C186.8742,35.4683892 185.122838,37.9903351 183.690498,40.0503622 C179.656072,45.8451459 176.203264,50.2454162 172.479179,52.7761189 C169.566753,54.7573351 168.388328,53.9867405 169.757732,51.2655784 C171.16403,48.4765514 174.664583,44.5513351 174.664583,41.4864703 C174.664583,40.1269838 174.22186,38.4303622 171.904072,38.4303622 C168.251604,38.4303622 164.579604,42.3687135 164.039221,42.8372 L166.901732,38.5223081 L162.69586,38.5223081 C162.431094,38.9273081 162.144626,39.3870378 161.834285,39.8380108 C159.898455,42.6598757 153.817519,47.3644432 151.833945,41.5127405 C151.339136,39.6869568 150.045689,37.9465514 147.873306,37.9465514 C144.03203,37.9465514 141.056668,40.0941459 138.556583,43.3472811 C138.372115,43.5837135 131.410072,53.8532 127.553604,53.8532 C125.965009,53.8532 127.295349,51.8676054 128.048413,50.6372811 C130.7742,46.1779027 132.746923,43.4983351 132.725221,41.1953081 C132.705689,39.4570919 131.822413,38.4259838 129.643519,38.4259838 C126.027945,38.4259838 122.996157,41.8717676 122.427562,42.6204703 C122.403689,42.6511189 122.388498,42.6445514 122.401519,42.6204703 C122.401519,42.6204703 124.285264,38.4259838 120.033817,38.4259838 C118.319349,38.4259838 115.641306,39.2885243 112.338243,42.6117135 L112.323051,42.6007676 L115.124796,38.5179297 L110.827774,38.5223081 L109.15237,41.0858486 C107.999987,42.7890378 105.9882,43.1743351 105.048498,43.369173 C106.899689,42.0994432 107.249094,38.1676595 103.5402,38.1676595 C101.764966,38.1676595 98.5204979,39.9277676 95.410583,42.9707405 L95.3780298,42.9247676 L98.3447106,38.5113622 L94.1757319,38.5157405 C94.1757319,38.5157405 93.2816043,39.8664703 91.9664553,41.900227 C88.5440298,47.1827405 81.8098596,53.980173 78.8800723,53.980173 C77.4282,53.980173 77.2133489,51.8894973 79.4117745,48.8071189 C82.180966,44.5425784 86.1459447,38.5135514 86.1459447,38.5135514 L81.9379021,38.5135514 C81.9379021,38.5135514 80.1583277,41.1383892 78.0987957,44.2952 C75.3144128,48.5706865 71.859434,53.9889297 68.3502,53.9889297 C66.2212213,53.9889297 67.2303702,50.6832541 68.7603702,48.3145514 C70.9349234,44.9541459 75.1733489,38.5529568 75.1733489,38.5529568 L70.9696468,38.5529568 C70.9696468,38.5529568 69.5850511,40.6392541 68.9057745,41.6769297 C68.9057745,39.4658486 67.6166681,38.4259838 65.014583,38.4259838 C55.120583,38.4259838 48.8204553,55.1492 57.3493915,55.1492 C61.1212213,55.1886054 64.2116043,50.9919297 64.7020723,50.1162541 C64.749817,50.1162541 64.7736894,50.0659027 64.7997319,50.1162541 C64.5718596,52.3733081 65.6396043,55.1207405 68.380583,55.1207405 C71.9527532,55.1207405 75.7679872,49.6368216 75.7679872,49.6368216 C75.2927106,52.1303081 76.0913489,55.1448216 78.8344979,55.1448216 C82.0420723,55.1448216 87.2570936,49.2383892 87.5500723,48.9625514 C87.5826255,48.9340919 87.5804553,48.9494162 87.567434,48.9734973 C85.3907106,52.2704162 83.4939447,55.0528757 83.4939447,55.0528757 L87.669434,55.0528757 C87.669434,55.0528757 88.5657319,53.6780649 89.8873915,51.6837135 C94.9201149,44.098173 100.061349,39.2009568 103.755051,39.0455243 C103.778923,39.0433351 103.785434,39.0608486 103.759391,39.0608486 C103.02586,39.238173 101.491519,40.1882811 101.491519,41.9724703 C101.491519,43.7084973 102.635221,44.3127135 103.863562,44.3149027 C105.38054,44.3214703 107.21003,43.5683892 107.652753,43.3844973 L99.9658596,55.0528757 L104.165221,55.0528757 C104.165221,55.0528757 107.073306,50.6394703 108.505647,48.4874973 C112.255774,43.3932541 116.80237,39.3498216 119.423987,39.3498216 C121.118923,39.3498216 119.621477,41.5149297 119.024668,42.4256324 C118.354072,43.4567405 110.712753,55.0550649 110.712753,55.0550649 L114.920796,55.0572541 C117.179987,51.7034162 117.119221,51.6640108 118.180455,50.0549568 C120.700072,46.2413892 121.882838,44.1441459 125.070881,41.3967135 C126.622583,40.1532541 128.000668,39.4111189 129.176923,39.4111189 C129.732498,39.4111189 129.877902,39.9365243 129.877902,40.2780378 C129.877902,42.6423622 123.627689,48.1219027 123.627689,51.6727676 C123.627689,53.9057405 125.172881,55.1426324 126.848285,55.1426324 C129.925647,55.1426324 133.11586,52.1719027 136.295221,48.0781189 C135.194923,51.3662811 136.253987,55.6286324 140.444668,55.6286324 C145.342838,55.6286324 151.428115,48.391173 151.812243,43.9580649 C153.713349,46.2917405 157.613221,45.0657946 159.477434,43.4195243 C159.353732,43.6077946 151.812243,55.0616324 151.812243,55.0616324 L156.013774,55.0594432 C156.013774,55.0594432 158.711349,50.983173 161.534796,47.1739838 C162.988838,45.2190378 164.879094,42.8240649 168.266796,40.6764703 C169.403987,39.9540378 170.34803,39.4264432 170.944838,39.4264432 C174.721009,39.4264432 165.310966,47.1914973 165.310966,52.1631459 C165.310966,53.8904162 166.543647,55.2608486 168.746413,55.2608486 C173.013051,55.2608486 177.151647,49.7922541 178.232413,48.6079027 C178.251945,48.5838216 178.264966,48.6013351 178.249774,48.6166595 C174.799136,53.5073081 170.586753,60.3463351 178.720711,60.3463351 C179.656072,60.3463351 181.101434,60.1120919 181.780711,59.4006054 C182.987349,58.1330649 181.320626,58.4680108 180.747689,58.4680108 C177.307902,58.4680108 177.138626,56.2788216 179.146072,52.6819838 C180.354881,50.5124973 184.039902,44.5184973 184.482626,43.8420378 C187.7922,38.7609297 191.529306,33.3777135 191.529306,33.3777135 L202.430285,33.0362 L202.430285,32.2480919 Z M57.5642426,53.9013622 C52.5358596,53.9013622 61.7267106,39.7219838 65.9369234,39.7219838 C71.2127106,39.7219838 62.1737745,53.9013622 57.5642426,53.9013622 L57.5642426,53.9013622 Z M146.423604,48.4918757 C143.821519,52.3908216 140.429477,54.9674973 139.060072,54.0261459 C137.692838,53.0847946 138.871264,48.9844432 141.473349,45.0833081 C144.075434,41.182173 147.413221,38.5485784 148.782626,39.4899297 C150.147689,40.4312811 149.02786,44.5907405 146.423604,48.4918757 L146.423604,48.4918757 Z M89.4121149,33.3120378 C89.4121149,32.0576324 88.4051362,31.0418486 87.159434,31.0418486 C85.9159021,31.0418486 84.9067532,32.0576324 84.9067532,33.3120378 C84.9067532,34.5664432 85.9159021,35.5866054 87.159434,35.5866054 C88.4051362,35.5866054 89.4121149,34.5664432 89.4121149,33.3120378 L89.4121149,33.3120378 Z" id="Fill-115"></path>
                <path d="M34.4825106,78.2613459 L33.6882128,78.2613459 L33.3453191,76.9784811 C32.700766,77.9285892 31.6243404,78.3357784 30.5001702,78.3357784 C29.1242553,78.3357784 28.121617,77.8388324 27.2991064,76.7354811 C26.52,75.6649676 26.2205106,74.4258865 26.2205106,73.112373 C26.2205106,70.3955892 27.6268085,67.6766162 30.6651064,67.6766162 C32.6269787,67.6766162 33.8987234,68.7952919 34.3783404,70.6517243 L33.1651915,70.9538324 C32.9112766,69.6556432 31.9238298,68.7646432 30.5761277,68.7646432 C28.2561702,68.7646432 27.611617,71.1508595 27.611617,73.0510757 C27.611617,73.9420757 27.7765532,74.9994541 28.1954043,75.8006973 C28.6598298,76.676373 29.5734894,77.2784 30.5913191,77.2784 C32.1777447,77.2784 33.1651915,76.1925622 33.1651915,74.6229135 L33.1651915,74.0493459 L30.6065106,74.0493459 L30.6065106,72.9613189 L34.4825106,72.9613189 L34.4825106,78.2613459 Z" id="Fill-117"></path>
                <path d="M41.9350213,72.6449811 C42.6229787,72.6449811 43.1915745,72.5990081 43.7015745,72.0714135 C44.0596596,71.7080081 44.2245957,71.2110622 44.2245957,70.711927 C44.2245957,70.1077108 44.0010638,69.6107649 43.5062553,69.2780081 C43.0570213,68.9605757 42.6229787,68.9452514 42.084766,68.9452514 L39.5260851,68.9452514 L39.5260851,72.6449811 L41.9350213,72.6449811 Z M44.2701702,78.1858189 L42.3690638,73.7023595 L39.5260851,73.7023595 L39.5260851,78.1858189 L38.2391489,78.1858189 L38.2391489,67.8287649 L42.084766,67.8287649 C42.9224681,67.8287649 43.7297872,67.9338459 44.4199149,68.4636297 C45.1078723,68.9912243 45.5115319,69.8515757 45.5115319,70.7272514 C45.5115319,71.9510081 44.7931915,73.0521703 43.595234,73.384927 L45.6157021,78.1858189 L44.2701702,78.1858189 Z" id="Fill-119"></path>
                <path d="M51.9314553,69.2180243 L50.3450298,74.1852946 L53.5026894,74.1852946 L51.9314553,69.2180243 Z M56.1373277,78.1849432 L54.8200085,78.1849432 L53.7869872,75.1660514 L49.9869447,75.1660514 L49.0732851,78.1849432 L47.9946894,78.1849432 L51.3172851,67.8278892 L52.7995404,67.8278892 L56.1373277,78.1849432 Z" id="Fill-121"></path>
                <path d="M66.7030085,78.1860378 L65.4464553,78.1860378 L60.2227532,69.1578216 L60.2227532,78.1860378 L59.1441574,78.1860378 L59.1441574,67.8289838 L60.760966,67.8289838 L65.6244128,76.2683081 L65.6244128,67.8289838 L66.7030085,67.8289838 L66.7030085,78.1860378 Z" id="Fill-123"></path>
                <path d="M73.7219106,77.084 C74.9025064,77.084 75.8465489,76.8125405 76.5214851,75.7704865 C77.0293149,74.9845676 77.2680383,73.9140541 77.2680383,72.9770811 C77.2680383,71.9197027 76.9989319,70.8185405 76.326166,69.9735135 C75.6208468,69.0825135 74.7983362,68.9161351 73.7219106,68.9161351 L71.8359957,68.9161351 L71.8359957,77.084 L73.7219106,77.084 Z M70.5490596,67.8281081 L73.7956979,67.8281081 C75.2627617,67.8281081 76.3543787,68.1302162 77.3288043,69.2926757 C78.2120809,70.3347297 78.570166,71.6329189 78.570166,72.9770811 C78.570166,74.2446216 78.2424638,75.499027 77.5089319,76.5388919 C76.6842511,77.7035405 75.6208468,78.1851622 74.2167191,78.1851622 L70.5490596,78.1851622 L70.5490596,67.8281081 Z" id="Fill-125"></path>
                <path d="M94.8526213,78.1860378 L94.8526213,73.2647405 L90.0933447,73.2647405 L90.0933447,78.1860378 L88.8064085,78.1860378 L88.8064085,67.8289838 L90.0933447,67.8289838 L90.0933447,72.1307405 L94.8526213,72.1307405 L94.8526213,67.8289838 L96.1395574,67.8289838 L96.1395574,78.1860378 L94.8526213,78.1860378 Z" id="Fill-127"></path>
                <path d="M106.346068,72.9619757 C106.346068,72.040327 106.196323,70.9698135 105.731898,70.1379216 C105.267472,69.3235432 104.475345,68.7499757 103.518281,68.7499757 C101.226536,68.7499757 100.599345,71.241273 100.599345,73.0977054 C100.599345,74.8797054 101.317685,77.2790568 103.487898,77.2790568 C105.686323,77.2790568 106.346068,74.7439757 106.346068,72.9619757 M99.2516426,73.0823811 C99.2516426,70.501327 100.508196,67.677273 103.472706,67.677273 C106.36126,67.677273 107.69377,70.3349486 107.69377,72.8875432 C107.69377,75.4226243 106.406834,78.3364351 103.487898,78.3364351 C100.538579,78.3364351 99.2516426,75.6787595 99.2516426,73.0823811" id="Fill-129"></path>
                <path d="M113.842417,78.1860378 L112.555481,78.1860378 L112.555481,68.9607946 L109.636545,68.9607946 L109.636545,67.8289838 L116.761353,67.8289838 L116.761353,68.9607946 L113.842417,68.9607946 L113.842417,78.1860378 Z" id="Fill-131"></path>
                <path d="M126.504089,78.1860378 L119.858898,78.1860378 L119.858898,67.8289838 L126.354345,67.8289838 L126.354345,68.9454703 L121.145834,68.9454703 L121.145834,72.2380108 L125.275749,72.2380108 L125.275749,73.2800649 L121.145834,73.2800649 L121.145834,77.0673622 L126.504089,77.0673622 L126.504089,78.1860378 Z" id="Fill-133"></path>
                <path d="M136.081889,78.1860378 L130.020485,78.1860378 L130.020485,67.8289838 L131.307421,67.8289838 L131.307421,77.0389027 L136.081889,77.0389027 L136.081889,78.1860378 Z" id="Fill-135"></path>
                <path d="M152.678157,78.1860378 L149.624668,72.4788216 L147.274328,75.4232811 L147.274328,78.1860378 L145.987391,78.1860378 L145.987391,67.8289838 L147.274328,67.8289838 L147.274328,73.8383081 L151.899051,67.8289838 L153.292328,67.8289838 L150.523136,71.4520919 L154.099647,78.1860378 L152.678157,78.1860378 Z" id="Fill-137"></path>
                <path d="M160.385234,73.822327 L160.385234,78.1853811 L159.098298,78.1853811 L159.098298,73.822327 L155.671532,67.828327 L157.166809,67.828327 L159.890426,72.5985703 L162.644426,67.828327 L163.812,67.828327 L160.385234,73.822327 Z" id="Fill-139"></path>
                <path d="M166.505234,67.8281081 L167.79217,67.8281081 L167.79217,78.1851622 L166.505234,78.1851622 L166.505234,67.8281081 Z" id="Fill-141"></path>
                <path d="M175.620779,78.1860378 L174.392438,78.1860378 L170.920098,67.8289838 L172.2678,67.8289838 L175.12597,76.3733892 L177.968949,67.8289838 L179.093119,67.8289838 L175.620779,78.1860378 Z" id="Fill-143"></path>
            </g>
        </g>
    </g>
</svg>