<?xml version="1.0" encoding="UTF-8"?>
<svg width="156px" height="102px" viewBox="0 0 156 102" version="1.1" xmlns="http://www.w3.org/2000/svg" xmlns:xlink="http://www.w3.org/1999/xlink">
    <!-- Generator: sketchtool 42 (36781) - http://www.bohemiancoding.com/sketch -->
    <title>F4AE3D35-A674-49DD-9063-945801167692</title>
    <desc>Created with sketchtool.</desc>
    <defs></defs>
    <g id="Page-1" stroke="none" stroke-width="1" fill="none" fill-rule="evenodd">
        <g id="vogue_conf2017_landing_new" transform="translate(-757.000000, -3576.000000)" fill-rule="nonzero" fill="#000000">
            <g id="Group-21" transform="translate(145.000000, 3570.000000)">
                <g id="vogue-cafe-logo" transform="translate(612.000000, 6.000000)">
                    <path d="M33.2756757,1.7866242 C33.3405405,1.7866242 33.3405405,1.39681529 33.2756757,1.39681529 L25.9135135,1.39681529 C25.8486486,1.39681529 25.8486486,1.7866242 25.9135135,1.7866242 L28.9945946,1.7866242 C29.5135135,1.7866242 29.2216216,2.37133758 29.1243243,2.63121019 C29.1243243,2.66369427 20.5621622,29.1382166 20.5621622,29.1382166 C20.4324324,29.0732484 20.2702703,28.6184713 20.2702703,28.6184713 C20.2702703,28.6184713 10.6378378,2.27388535 10.572973,2.17643312 C10.3459459,1.72165605 11.1243243,1.7866242 11.1243243,1.7866242 L13.9459459,1.7866242 C14.0108108,1.7866242 14.0108108,1.39681529 13.9459459,1.39681529 L0.259459459,1.39681529 C0.162162162,1.39681529 0.162162162,1.81910828 0.259459459,1.81910828 L3.56756757,1.81910828 C3.95675676,1.81910828 4.05405405,1.7866242 4.21621622,2.43630573 C4.83243243,4.58025478 12.6162162,24.7853503 17.6108108,39.2732484 C17.6432432,39.4031847 17.7081081,39.5656051 17.7081081,39.5656051 C17.7081081,39.5656051 29.5459459,2.59872611 29.6108108,2.40382166 C29.7405405,2.01401274 29.7405405,1.7866242 30.5189189,1.7866242 L33.2756757,1.7866242 Z M55.0702703,20.0101911 C55.0702703,30.6 53.5459459,39.7280255 45.5027027,39.6955414 C36.8756757,39.6955414 35.9027027,31.1197452 35.9027027,20.0101911 C35.9027027,9.42038217 37.9459459,0.779617834 45.4054054,0.779617834 C53.4810811,0.779617834 55.0702703,9.77770701 55.0702703,20.0101911 L55.0702703,20.0101911 Z M62.0108108,20.2050955 C62.0432432,8.70573248 53.7081081,0.552229299 45.5027027,0.487261146 C37.0702703,0.422292994 28.9945946,9.68025478 28.9945946,20.2050955 C28.9945946,31.0872611 36.6162162,39.9878981 45.372973,40.0203822 C53.3513514,40.0203822 61.9783784,31.1522293 62.0108108,20.2050955 L62.0108108,20.2050955 Z M92.172973,13.8057325 L92.172973,0.389808917 C92.172973,0.389808917 92.1081081,0.292356688 91.9459459,0.422292994 C91.8810811,0.487261146 91.8162162,0.552229299 91.7189189,0.617197452 C87.9243243,4.48280255 86.0432432,0.422292994 80.5297297,0.259872611 C73.7513514,0.0324840764 65.3189189,9.45286624 65.2216216,20.3350318 C65.1243243,31.2821656 72.2918919,39.6955414 80.1081081,39.9878981 C84.3567568,40.1503185 84.2594595,38.9808917 89.5135135,37.3242038 C92.7243243,36.3171975 94.2162162,38.4936306 94.3459459,39.4031847 C94.5405405,39.533121 94.572973,39.3057325 94.572973,39.3057325 L94.572973,23.9407643 C94.572973,23.6484076 94.9945946,23.6808917 94.9945946,23.6808917 L97.8810811,23.6808917 C97.9459459,23.6808917 97.9459459,23.2585987 97.8810811,23.2585987 L84.5837838,23.2585987 C84.4864865,23.2585987 84.4864865,23.6808917 84.6162162,23.6808917 L87.7297297,23.6808917 C87.7297297,23.6808917 88.3135135,23.6159236 88.3135135,23.9082803 L88.3135135,32.8738854 C88.3135135,39.7605096 81.4702703,39.8579618 79.5243243,39.6305732 C72.3567568,38.8184713 72.1945946,24.0057325 72.1621622,20.1076433 C72.0648649,9.51783439 73.7189189,0.324840764 80.9513514,0.682165605 C89.5135135,1.1044586 91.7513514,13.4159236 91.8810811,13.9681529 C92.172973,14.033121 92.172973,13.8057325 92.172973,13.8057325 L92.172973,13.8057325 Z M155.772973,39.3707006 L155.772973,24.6229299 C155.772973,24.5579618 155.448649,24.5579618 155.448649,24.6229299 C155.448649,24.6878981 155.643243,38.9484076 142.378378,38.9159236 L137.935135,38.9159236 C137.675676,38.9159236 137.513514,38.7859873 137.513514,38.656051 L137.513514,20.1401274 C137.513514,19.977707 137.675676,19.8802548 137.935135,19.8802548 L139.297297,19.8802548 C146.140541,19.8802548 146.302703,27.4815287 146.302703,27.5789809 C146.302703,27.6764331 146.52973,27.643949 146.52973,27.5789809 L146.52973,12.0191083 C146.52973,11.9541401 146.237838,11.9216561 146.237838,12.0191083 C146.237838,12.1165605 146.821622,19.4904459 139.491892,19.4904459 L137.935135,19.4904459 C137.675676,19.4904459 137.513514,19.3929936 137.513514,19.2305732 L137.513514,2.01401274 C137.513514,1.81910828 137.675676,1.75414013 137.935135,1.75414013 L142.572973,1.75414013 C154.897297,1.75414013 154.637838,15.0401274 154.637838,15.1375796 C154.637838,15.2350318 154.897297,15.2025478 154.897297,15.1375796 L154.897297,1.36433121 L119.318919,1.36433121 C119.221622,1.36433121 119.221622,1.75414013 119.286486,1.75414013 L123.178378,1.75414013 C123.178378,1.75414013 123.6,1.7866242 123.6,1.98152866 L123.6,29.755414 C123.6,37.2267516 117.891892,39.6630573 113.772973,39.7280255 C108.486486,39.8254777 106.054054,35.9923567 106.054054,31.7044586 L106.054054,2.27388535 C106.054054,1.6566879 106.962162,1.72165605 106.962162,1.72165605 L109.945946,1.72165605 C110.010811,1.72165605 110.010811,1.33184713 109.945946,1.33184713 L95.9675676,1.33184713 C95.9027027,1.33184713 95.8702703,1.72165605 95.9675676,1.72165605 L98.9189189,1.72165605 C98.9189189,1.72165605 99.6,1.68917197 99.6324324,2.24140127 C99.6324324,2.59872611 99.6648649,28.0987261 99.6648649,28.0987261 C99.6648649,39.3057325 108.745946,40.1503185 113.772973,40.1178344 L113.772973,40.1178344 C118.054054,40.0528662 124.021622,37.5191083 124.021622,29.755414 L124.021622,29.755414 L124.021622,1.98152866 C124.021622,1.75414013 124.410811,1.75414013 124.410811,1.75414013 L130.605405,1.75414013 C130.702703,1.75414013 131.027027,1.75414013 131.027027,2.01401274 L131.027027,38.7210191 C131.027027,38.8834395 130.864865,38.9808917 130.605405,38.9808917 L128.4,38.9808917 C128.335135,38.9808917 128.302703,39.3707006 128.4,39.3707006 L155.772973,39.3707006 L155.772973,39.3707006 Z" id="Shape"></path>
                    <path d="M68.4972973,60.7452229 C68.8540541,60.4203822 69.1135135,60.0305732 69.1459459,59.5433121 C68.2054054,60.0955414 66.8756757,61.0050955 65.1891892,62.3044586 C63.4378378,63.6363057 62.0756757,64.610828 61.1027027,65.1630573 C58.8648649,66.4949045 56.8540541,67.2420382 55.1027027,67.4369427 C53.5135135,67.5993631 52.6702703,67.0796178 52.5405405,65.9101911 C52.4432432,64.8707006 53.2216216,63.2140127 54.8756757,60.9726115 C56.5297297,58.7312102 57.8918919,57.5292994 58.8648649,57.4318471 L59.8054054,57.3343949 L60.6486486,57.3019108 C61.8810811,57.2369427 63.2432432,56.5872611 64.7675676,55.3528662 C65.2864865,54.9305732 65.5135135,54.5407643 65.4810811,54.2159236 C65.3837838,53.3388535 64.8324324,52.9490446 63.8594595,53.0464968 C61.1027027,53.3388535 58.1837838,54.9630573 55.1351351,57.8866242 C51.9891892,60.9726115 50.5621622,63.8961783 50.8216216,66.5923567 C50.8864865,67.1770701 51.372973,67.6643312 52.2486486,68.0216561 C52.9945946,68.3140127 53.7081081,68.443949 54.3567568,68.3464968 C56.0108108,68.1840764 57.4702703,67.8267516 58.7351351,67.2745223 C59.6432432,66.8847134 61.2972973,65.877707 63.7621622,64.2859873 C65.6108108,62.9866242 67.2,61.8496815 68.4972973,60.7452229 M79.5567568,53.988535 C79.6216216,54.7356688 78.7783784,56.0675159 77.027027,58.0490446 C75.2432432,59.9980892 73.9783784,61.0375796 73.2,61.1025478 C72.3891892,61.2 71.9351351,60.9076433 71.8702703,60.2904459 C71.8378378,59.9656051 71.8702703,59.6082803 71.9351351,59.2834395 C71.9351351,59.2184713 72.8756757,58.1789809 74.7567568,56.2299363 C75.827027,55.0929936 76.8324324,54.1509554 77.7081081,53.3388535 C77.8378378,53.2738854 78.0648649,53.2414013 78.3243243,53.2089172 C79.0702703,53.143949 79.4918919,53.4038217 79.5567568,53.988535 M68.4972973,60.7452229 C68.4,60.9726115 68.3675676,61.2 68.4,61.3624204 C68.5621622,62.9216561 69.8594595,63.5713376 72.2918919,63.311465 C73.5567568,63.1815287 74.9513514,62.3694268 76.4756757,60.8426752 C77.5135135,59.8031847 78.3567568,59.2509554 78.9405405,59.1859873 C79.1351351,59.1535032 79.3621622,59.2509554 79.6540541,59.4458599 L79.7189189,59.5433121 C80.4324324,60.0630573 81.7297297,60.2254777 83.5135135,60.0305732 C83.9675676,59.9980892 84.6486486,59.6082803 85.6216216,58.8936306 C85.7189189,58.8286624 85.7837838,58.7636943 85.8810811,58.666242 C86.3351351,58.666242 86.4972973,58.243949 86.4648649,58.0165605 C86.4648649,57.9515924 85.8486486,57.7242038 85.5243243,57.8866242 C85.0378378,58.243949 84.5837838,58.4713376 84.0972973,58.5363057 C82.6702703,58.6987261 81.8594595,58.0490446 81.6972973,56.5872611 C81.6324324,55.9050955 82.1189189,54.8656051 83.2216216,53.4038217 C84.0324324,52.266879 84.4216216,51.5522293 84.3891892,51.1949045 C84.3567568,50.7726115 83.9027027,50.6426752 83.0918919,50.7076433 C82.8648649,50.7401274 82.4432432,50.9675159 81.7621622,51.422293 C81.1135135,51.8770701 80.627027,52.1044586 80.3351351,52.1369427 C80.1081081,52.1694268 79.8486486,52.0719745 79.5891892,51.8770701 C79.0378378,51.5522293 78.4540541,51.422293 77.8054054,51.4872611 C77.4810811,51.5197452 77.1891892,51.5847134 76.9945946,51.6171975 C76.0864865,51.8770701 74.4,53.3388535 71.9351351,56.0350318 C70.6378378,57.4643312 69.7297297,58.6012739 69.1135135,59.510828 M118.475676,32.8089172 C118.508108,33.4261146 117.924324,34.5305732 116.691892,36.1547771 C116.335135,36.6095541 115.232432,37.9414013 113.351351,40.0853503 L112.8,40.7350318 C111.956757,41.7095541 110.237838,43.3012739 107.675676,45.5426752 C104.951351,47.9140127 103.232432,49.1159236 102.583784,49.1484076 C102.421622,49.1484076 102.291892,49.0834395 102.227027,48.9535032 C102.291892,48.4012739 102.940541,47.2968153 104.205405,45.6401274 L104.464865,45.3152866 C107.091892,41.9044586 109.167568,39.2732484 110.756757,37.4541401 C113.740541,34.0757962 116.010811,32.3541401 117.567568,32.2242038 C118.118919,32.1917197 118.443243,32.3866242 118.475676,32.8089172 M93.3081081,56.6847134 C93.3405405,56.9770701 93.1135135,57.3993631 92.6594595,57.9191083 C92.2054054,58.4713376 91.8162162,58.7312102 91.5243243,58.7636943 C90.7783784,58.8286624 90.3567568,58.4713376 90.2918919,57.6592357 C90.2594595,57.3019108 90.4216216,56.944586 90.8108108,56.6522293 C91.2,56.3598726 91.5891892,56.1649682 91.9783784,56.1324841 C92.7891892,56.0675159 93.2432432,56.2624204 93.3081081,56.6847134 M87.8594595,69.6133758 C87.9567568,70.6203822 85.4918919,74.4535032 80.4972973,81.1127389 L75.827027,87.3171975 C72.3243243,91.8 69.0162162,94.9509554 65.8702703,96.7375796 C65.3189189,97.0624204 64.8324324,97.2898089 64.4108108,97.3872611 L63.9891892,97.0949045 L64.0216216,96.9649682 C64.0864865,96.2503185 65.2864865,94.4636943 67.6216216,91.6050955 L68.172973,90.9229299 C69.5027027,89.2987261 71.3189189,87.0573248 73.6540541,84.2961783 C74.8216216,82.8993631 77.3189189,79.8133758 81.2108108,75.0382166 L81.3081081,74.9082803 C82.5405405,73.3815287 84.0972973,71.6923567 85.9783784,69.7433121 C86.4324324,69.288535 86.7891892,69.0286624 87.1459459,68.9961783 C87.5675676,68.9636943 87.827027,69.1910828 87.8594595,69.6133758 M110.140541,53.2738854 C110.172973,52.7541401 110.497297,52.0070064 111.145946,51.0324841 C111.794595,50.0904459 112.345946,49.4082803 112.832432,49.0509554 C113.318919,48.6936306 113.967568,48.5312102 114.843243,48.5636943 C115.524324,48.5961783 115.848649,48.9535032 115.816216,49.6681529 L115.816216,49.8305732 L115.751351,49.9280255 C115.524324,50.2528662 115.2,50.7076433 114.745946,51.2923567 C114.454054,51.5847134 114,51.9095541 113.351351,52.2343949 C112.702703,52.5917197 112.216216,52.8840764 111.956757,53.143949 C111.502703,53.566242 111.016216,53.7611465 110.497297,53.7286624 L110.4,53.6636943 C110.205405,53.6312102 110.140541,53.4687898 110.140541,53.2738854 M85.8810811,58.666242 C86.2054054,58.9261146 86.6918919,59.088535 87.4378378,59.1210191 C89.0594595,59.2184713 89.9351351,59.8356688 90.0648649,61.0375796 C90.1297297,61.5248408 89.4486486,62.4993631 88.0216216,63.9936306 C87.1459459,64.9356688 86.5945946,65.5528662 86.3027027,65.8452229 C85.0378378,67.3394904 83.2540541,69.5484076 80.9513514,72.4719745 L79.2324324,74.6808917 C76.7351351,77.6369427 73.0378378,82.1197452 68.1405405,88.0968153 C67.8486486,88.4866242 67.2,89.3312102 66.1621622,90.5980892 L63.8918919,93.4242038 C62.8216216,94.7235669 62.1405405,95.6006369 61.8162162,95.9904459 C60.972973,97.1598726 60.3891892,98.1019108 60.0972973,98.8165605 C59.8054054,99.5312102 59.6756757,100.213376 59.7405405,100.863057 C59.8054054,101.610191 60,101.967516 60.2918919,101.935032 C60.4864865,101.902548 60.7459459,101.83758 61.0702703,101.642675 C61.3945946,101.480255 61.5891892,101.382803 61.6216216,101.382803 C63.0162162,100.700637 64.8,99.466242 67.0054054,97.6146497 C71.6432432,93.7165605 75.9243243,89.1038217 79.8486486,83.8089172 C82.0864865,80.7229299 84.5513514,77.0522293 87.2108108,72.8292994 C87.5675676,72.2770701 88.0540541,71.5299363 88.6702703,70.6528662 C89.7081081,69.1585987 90.3567568,68.1191083 90.6486486,67.566879 C90.9405405,67.0146497 91.2324324,66.3649682 91.5243243,65.6503185 C91.8486486,64.9356688 92.2702703,64.0585987 92.7891892,63.0515924 C93.3081081,62.044586 93.8918919,61.2974522 94.5081081,60.8101911 C95.4162162,60.1280255 96.2918919,59.7382166 97.1351351,59.6407643 C97.3945946,59.6082803 97.7513514,59.6082803 98.2378378,59.6407643 C98.7243243,59.6732484 99.0810811,59.6732484 99.3405405,59.6407643 L99.6324324,59.6082803 C99.827027,59.5433121 99.9891892,59.510828 100.183784,59.4783439 L101.027027,59.3808917 C102,59.2834395 103.621622,58.7636943 105.956757,57.789172 C106.864865,57.3993631 107.643243,57.0420382 108.291892,56.7171975 C108.648649,58.3738854 109.491892,59.2509554 110.854054,59.3159236 C112.92973,59.4133758 115.037838,58.8286624 117.178378,57.4968153 C118.508108,56.8471338 119.156757,56.4248408 119.189189,56.1974522 C119.189189,56.0025478 119.124324,55.9050955 118.962162,55.8726115 C118.92973,55.8726115 118.540541,56.0350318 117.794595,56.3598726 C117.048649,56.6847134 116.627027,56.8796178 116.497297,56.8796178 C116.172973,57.0095541 115.751351,57.1394904 115.297297,57.2694268 C114.032432,57.6917197 112.735135,57.8866242 111.47027,57.8216561 C111.081081,57.789172 110.659459,57.6592357 110.27027,57.3993631 C109.848649,57.1394904 109.654054,56.8146497 109.686486,56.4573248 C109.686486,56.3923567 109.718919,56.2949045 109.751351,56.1649682 C109.783784,56.0350318 109.816216,55.9375796 109.816216,55.9050955 C110.172973,55.6452229 111.113514,55.1579618 112.67027,54.4433121 C113.610811,53.988535 114.745946,53.1764331 116.010811,51.9420382 C117.47027,50.5452229 118.216216,49.4732484 118.248649,48.7585987 C118.313514,47.3942675 117.372973,46.6471338 115.459459,46.5496815 C113.935135,46.4847134 112.118919,47.5242038 110.010811,49.733121 C109.718919,50.0254777 109.459459,50.5452229 109.2,51.3248408 C108.940541,52.1044586 108.583784,52.4617834 108.486486,52.8191083 C108.227027,53.5012739 108.227027,53.5987261 108.227027,54.2484076 C108.194595,54.9305732 108.227027,55.5152866 108.291892,56.0675159 C107.708108,56.3923567 106.475676,56.8471338 104.562162,57.4643312 C102.551351,58.1140127 101.189189,58.5038217 100.475676,58.5687898 C98.4648649,58.7636943 97.427027,58.2764331 97.2972973,57.0420382 C97.1675676,55.9050955 98.2054054,54.1834395 100.378378,51.9095541 C102.454054,50.7076433 104.821622,49.0184713 107.481081,46.7770701 C110.4,44.3407643 112.67027,42.1318471 114.227027,40.1828025 C114.518919,39.8254777 114.810811,39.5006369 115.135135,39.1757962 L115.621622,38.688535 C117.081081,37.2267516 118.118919,36.1547771 118.637838,35.5050955 C119.740541,34.1407643 120.356757,32.8089172 120.454054,31.6070064 C120.648649,31.2496815 120.745946,30.8598726 120.713514,30.5025478 C120.681081,29.8203822 120.162162,29.4955414 119.156757,29.5929936 C117.567568,29.6904459 115.32973,30.9573248 112.475676,33.3611465 C110.756757,34.8229299 109.524324,35.9923567 108.778378,36.9343949 C108.389189,37.4866242 107.675676,38.4611465 106.637838,39.8254777 C106.216216,40.377707 105.437838,41.3197452 104.27027,42.7165605 C102.616216,44.6656051 101.545946,45.9974522 101.027027,46.6796178 C100.086486,47.9464968 99.2756757,49.1808917 98.627027,50.3503185 C96.6486486,51.9745223 94.9621622,52.8515924 93.6324324,53.0140127 C93.4702703,53.0140127 93.2756757,53.0464968 92.9837838,53.0140127 L92.3351351,53.0140127 C90.972973,53.143949 89.5459459,53.6961783 88.0216216,54.6382166 C86.3675676,55.6452229 85.5567568,56.7171975 85.5567568,57.789172 M121.459459,41.2872611 C121.427027,41.0598726 121.297297,40.8974522 121.135135,40.8 C120.486486,40.6375796 119.837838,40.7675159 119.156757,41.1248408 C119.059459,41.1898089 118.962162,41.222293 118.864865,41.222293 C118.605405,41.3197452 118.151351,41.5471338 117.502703,41.9369427 C117.178378,42.3267516 116.691892,42.8140127 116.075676,43.4636943 C116.010811,43.5286624 115.881081,43.6261146 115.589189,43.788535 C115.32973,43.9509554 115.167568,44.0484076 115.167568,44.0808917 C115.037838,44.3407643 115.135135,44.5356688 115.427027,44.6656051 L115.491892,44.6980892 L115.589189,44.6980892 C115.881081,44.6656051 116.205405,44.5031847 116.52973,44.2433121 C116.983784,43.9184713 117.275676,43.7235669 117.340541,43.6585987 C117.697297,43.4636943 118.118919,43.2687898 118.67027,43.0738854 C119.091892,43.0089172 119.448649,42.911465 119.805405,42.7490446 C119.902703,42.6191083 120.259459,42.3917197 120.908108,42.0993631 C121.2,42.0343949 121.394595,41.9369427 121.427027,41.8719745 C121.491892,41.7420382 121.491892,41.5146497 121.459459,41.2872611" id="Shape"></path>
                </g>
            </g>
        </g>
    </g>
</svg>