<?xml version="1.0" encoding="UTF-8" standalone="no"?>
<svg width="138px" height="49px" viewBox="0 0 138 49" version="1.1" xmlns="http://www.w3.org/2000/svg" xmlns:xlink="http://www.w3.org/1999/xlink">
    <!-- Generator: sketchtool 3.6.1 (26313) - http://www.bohemiancoding.com/sketch -->
    <title>ual_logo</title>
    <desc>Created with sketchtool.</desc>
    <defs></defs>
    <g id="Page-1" stroke="none" stroke-width="1" fill="none" fill-rule="evenodd">
        <g id="vogue_conf_landing" transform="translate(-212.000000, -20.000000)" fill="#FFFFFF">
            <g id="ual_logo" transform="translate(212.000000, 19.000000)">
                <g id="Group-60" transform="translate(66.674157, 2.506727)">
                    <path d="M5.68854607,6.31395455 L4.28528764,6.31395455 L4.28528764,5.5675 L4.2542764,5.5675 C3.88059101,6.16868182 3.2355573,6.45922727 2.61223146,6.45922727 C1.04306292,6.45922727 0.647669663,5.57831818 0.647669663,4.25231818 L0.647669663,0.957409091 L2.12380449,0.957409091 L2.12380449,3.98340909 C2.12380449,4.86277273 2.38274831,5.29859091 3.06964719,5.29859091 C3.86973708,5.29859091 4.21241124,4.8535 4.21241124,3.7655 L4.21241124,0.957409091 L5.68854607,0.957409091 L5.68854607,6.31395455 Z" id="Fill-56"></path>
                    <path d="M6.89457303,0.957872727 L8.29783146,0.957872727 L8.29783146,1.70432727 L8.3288427,1.70432727 C8.70407865,1.10314545 9.3475618,0.8126 9.97088764,0.8126 C11.5400562,0.8126 11.9354494,1.69350909 11.9354494,3.01950909 L11.9354494,6.31441818 L10.4608652,6.31441818 L10.4608652,3.28841818 C10.4608652,2.40905455 10.2003708,1.97323636 9.51347191,1.97323636 C8.71338202,1.97323636 8.37070787,2.41832727 8.37070787,3.50632727 L8.37070787,6.31441818 L6.89457303,6.31441818 L6.89457303,0.957872727 Z" id="Fill-58"></path>
                </g>
                <path d="M79.827573,2.63654545 L81.3021573,2.63654545 L81.3021573,1.42336364 L79.827573,1.42336364 L79.827573,2.63654545 Z M79.827573,8.81990909 L81.3021573,8.81990909 L81.3021573,3.46490909 L79.827573,3.46490909 L79.827573,8.81990909 Z" id="Fill-61"></path>
                <path d="M85.3672652,8.82068182 L83.7252202,8.82068182 L81.8847034,3.46413636 L83.4337146,3.46413636 L84.5671753,7.12222727 L84.5873326,7.12222727 L85.7207933,3.46413636 L87.1860742,3.46413636 L85.3672652,8.82068182 Z" id="Fill-62"></path>
                <g id="Group-69" transform="translate(86.831461, 2.506727)">
                    <path d="M1.97650112,3.99314545 C2.01836629,4.92505455 2.47578202,5.35005455 3.29602921,5.35005455 C3.88834382,5.35005455 4.36746742,4.98841818 4.46050112,4.65614545 L5.75987191,4.65614545 C5.34432135,5.92032727 4.46050112,6.45969091 3.24486067,6.45969091 C1.55009663,6.45969091 0.500366292,5.29905455 0.500366292,3.64078182 C0.500366292,2.03505455 1.6121191,0.8126 3.24486067,0.8126 C5.0745236,0.8126 5.95679326,2.34569091 5.85445618,3.99314545 L1.97650112,3.99314545 Z M4.37832135,3.06123636 C4.24187191,2.31478182 3.92090562,1.92069091 3.20299551,1.92069091 C2.26800674,1.92069091 1.99820899,2.64705455 1.97650112,3.06123636 L4.37832135,3.06123636 Z" id="Fill-63"></path>
                    <path d="M6.55050337,0.957872727 L7.9537618,0.957872727 L7.9537618,1.95314545 L7.97546966,1.95314545 C8.24526742,1.27932727 8.9724809,0.8126 9.69039101,0.8126 C9.79272809,0.8126 9.9183236,0.832690909 10.0113573,0.865145455 L10.0113573,2.23132727 C9.87645843,2.20196364 9.65782921,2.18032727 9.48106517,2.18032727 C8.4003236,2.18032727 8.0266382,2.95769091 8.0266382,3.90041818 L8.0266382,6.31441818 L6.55050337,6.31441818 L6.55050337,0.957872727 Z" id="Fill-65"></path>
                    <path d="M11.6022337,4.57330909 C11.6130876,5.21621818 12.1526831,5.47430909 12.7356944,5.47430909 C13.1605483,5.47430909 13.7016944,5.30894545 13.7016944,4.79121818 C13.7016944,4.34612727 13.0892225,4.19003636 12.0286382,3.96285455 C11.1758292,3.77585455 10.3245708,3.47449091 10.3245708,2.53330909 C10.3245708,1.16558182 11.5092,0.813218182 12.662818,0.813218182 C13.8365933,0.813218182 14.9173348,1.20576364 15.0320764,2.52249091 L13.628818,2.52249091 C13.5869528,1.95221818 13.1512449,1.79767273 12.6209528,1.79767273 C12.2891326,1.79767273 11.7991551,1.85949091 11.7991551,2.29376364 C11.7991551,2.82230909 12.6318067,2.89494545 13.4737618,3.09121818 C14.3358742,3.28903636 15.1778292,3.59967273 15.1778292,4.5934 C15.1778292,6.00285455 13.9513348,6.45876364 12.7248404,6.45876364 C11.4781888,6.45876364 10.2609978,5.99203636 10.1989753,4.57330909 L11.6022337,4.57330909 Z" id="Fill-67"></path>
                </g>
                <path d="M102.715416,2.63654545 L104.191551,2.63654545 L104.191551,1.42336364 L102.715416,1.42336364 L102.715416,2.63654545 Z M102.715416,8.81990909 L104.191551,8.81990909 L104.191551,3.46490909 L102.715416,3.46490909 L102.715416,8.81990909 Z" id="Fill-70"></path>
                <g id="Group-93" transform="translate(66.674157, 0.961273)">
                    <path d="M40.5231573,2.50332727 L41.6038989,2.50332727 L41.6038989,3.48778182 L40.5231573,3.48778182 L40.5231573,6.13978182 C40.5231573,6.63741818 40.6472022,6.76105455 41.1464831,6.76105455 C41.3030899,6.76105455 41.4472921,6.75178182 41.6038989,6.71932727 L41.6038989,7.86914545 C41.3542584,7.91087273 41.0317416,7.92169091 40.7417865,7.92169091 C39.8362584,7.92169091 39.0470225,7.7146 39.0470225,6.64669091 L39.0470225,3.48778182 L38.1538989,3.48778182 L38.1538989,2.50332727 L39.0470225,2.50332727 L39.0470225,0.8976 L40.5231573,0.8976 L40.5231573,2.50332727 Z" id="Fill-71"></path>
                    <path d="M45.1692607,8.53276364 C44.8467438,9.39203636 44.3381596,9.7444 43.3194404,9.7444 C43.0170809,9.7444 42.7162719,9.72430909 42.4154629,9.6934 L42.4154629,8.48021818 C42.6961146,8.50185455 42.9876202,8.54358182 43.2775753,8.53276364 C43.7861596,8.48021818 43.9536202,7.95321818 43.7861596,7.52821818 L41.8960247,2.50394545 L43.4744966,2.50394545 L44.6916876,6.17130909 L44.7118449,6.17130909 L45.8871708,2.50394545 L47.4144742,2.50394545 L45.1692607,8.53276364 Z" id="Fill-73"></path>
                    <path d="M3.01739326,12.5599091 C4.7121573,12.5599091 5.80375281,13.6788182 5.80375281,15.3880909 C5.80375281,17.0865455 4.7121573,18.207 3.01739326,18.207 C1.33348315,18.207 0.24188764,17.0865455 0.24188764,15.3880909 C0.24188764,13.6788182 1.33348315,12.5599091 3.01739326,12.5599091 M3.01739326,17.0973636 C4.02525843,17.0973636 4.32761798,16.2380909 4.32761798,15.3880909 C4.32761798,14.5288182 4.02525843,13.668 3.01739326,13.668 C2.02038202,13.668 1.71802247,14.5288182 1.71802247,15.3880909 C1.71802247,16.2380909 2.02038202,17.0973636 3.01739326,17.0973636" id="Fill-75"></path>
                    <path d="M6.91581573,13.6893273 L6.03199551,13.6893273 L6.03199551,12.7048727 L6.91581573,12.7048727 L6.91581573,12.2906909 C6.91581573,11.3479636 7.50813034,10.6633273 8.71446742,10.6633273 C8.97341124,10.6633273 9.24475955,10.6957818 9.49284944,10.7050545 L9.49284944,11.8038727 C9.31763596,11.7837818 9.13932135,11.7729636 8.95325393,11.7729636 C8.55786067,11.7729636 8.39195056,11.9383273 8.39195056,12.3834182 L8.39195056,12.7048727 L9.41066966,12.7048727 L9.41066966,13.6893273 L8.39195056,13.6893273 L8.39195056,18.0614182 L6.91581573,18.0614182 L6.91581573,13.6893273 Z" id="Fill-77"></path>
                    <path d="M14.4005326,12.7050273 L15.4812742,12.7050273 L15.4812742,13.6894818 L14.4005326,13.6894818 L14.4005326,16.3414818 C14.4005326,16.8391182 14.5245775,16.9627545 15.0238584,16.9627545 C15.1804652,16.9627545 15.3246674,16.9534818 15.4812742,16.9210273 L15.4812742,18.0708455 C15.2316337,18.1125727 14.9106674,18.1233909 14.6191618,18.1233909 C13.7136337,18.1233909 12.9243978,17.9163 12.9243978,16.8483909 L12.9243978,13.6894818 L12.0312742,13.6894818 L12.0312742,12.7050273 L12.9243978,12.7050273 L12.9243978,11.0993 L14.4005326,11.0993 L14.4005326,12.7050273 Z" id="Fill-79"></path>
                    <path d="M16.2821393,10.6641 L17.7582742,10.6641 L17.7582742,13.4505545 L17.7892854,13.4505545 C18.1629708,12.8493727 18.8080045,12.5603727 19.3584539,12.5603727 C20.9276225,12.5603727 21.3230157,13.4412818 21.3230157,14.7672818 L21.3230157,18.0606455 L19.8468809,18.0606455 L19.8468809,15.0361909 C19.8468809,14.1552818 19.5879371,13.7210091 18.9010382,13.7210091 C18.1009483,13.7210091 17.7582742,14.1661 17.7582742,15.2541 L17.7582742,18.0606455 L16.2821393,18.0606455 L16.2821393,10.6641 Z" id="Fill-81"></path>
                    <path d="M23.4333303,15.7403 C23.4751955,16.6722091 23.9326112,17.0972091 24.7528584,17.0972091 C25.345173,17.0972091 25.8242966,16.7355727 25.9173303,16.4033 L27.2167011,16.4033 C26.8011506,17.6674818 25.9173303,18.2068455 24.7016899,18.2068455 C23.0069258,18.2068455 21.9571955,17.0462091 21.9571955,15.3879364 C21.9571955,13.7822091 23.0689483,12.5597545 24.7016899,12.5597545 C26.5313528,12.5597545 27.4136225,14.0928455 27.3112854,15.7403 L23.4333303,15.7403 Z M25.8351506,14.8083909 C25.6987011,14.0619364 25.3777348,13.6678455 24.6598247,13.6678455 C23.724836,13.6678455 23.4550382,14.3942091 23.4333303,14.8083909 L25.8351506,14.8083909 Z" id="Fill-83"></path>
                    <path d="M30.0660135,14.3523273 C30.1497438,12.9753273 31.3855416,12.5596 32.5918787,12.5596 C33.6617663,12.5596 34.9518337,12.7976 34.9518337,14.0834182 L34.9518337,16.8698727 C34.9518337,17.3566909 35.0030022,17.8435091 35.1379011,18.0614182 L33.641609,18.0614182 C33.5904404,17.8945091 33.5485753,17.7198727 33.5377213,17.5436909 C33.0694517,18.0305091 32.3841034,18.2066909 31.7282157,18.2066909 C30.7110472,18.2066909 29.9001034,17.6982364 29.9001034,16.6009636 C29.9001034,15.3877818 30.8149348,15.0987818 31.7282157,14.9736 C32.6337438,14.8391455 33.4756989,14.8700545 33.4756989,14.2688727 C33.4756989,13.6383273 33.0384404,13.5440545 32.5190022,13.5440545 C31.9576989,13.5440545 31.5948674,13.7727818 31.5421483,14.3523273 L30.0660135,14.3523273 Z M33.4756989,15.4403273 C33.2260584,15.6582364 32.7066202,15.6675091 32.2492045,15.7509636 C31.7917888,15.8436909 31.3762382,15.9997818 31.3762382,16.5376 C31.3762382,17.0877818 31.8010921,17.2222364 32.2802157,17.2222364 C33.4338337,17.2222364 33.4756989,16.3104182 33.4756989,15.9889636 L33.4756989,15.4403273 Z" id="Fill-85"></path>
                    <path d="M35.7520787,12.7050273 L37.1553371,12.7050273 L37.1553371,13.7003 L37.1754944,13.7003 C37.4468427,13.0264818 38.1740562,12.5597545 38.8904157,12.5597545 C38.9943034,12.5597545 39.1198989,12.5798455 39.2129326,12.6123 L39.2129326,13.9784818 C39.0780337,13.9475727 38.8594045,13.9274818 38.6826404,13.9274818 C37.6018989,13.9274818 37.2282135,14.7048455 37.2282135,15.6475727 L37.2282135,18.0615727 L35.7520787,18.0615727 L35.7520787,12.7050273 Z" id="Fill-87"></path>
                    <path d="M41.916027,12.7050273 L42.9967685,12.7050273 L42.9967685,13.6894818 L41.916027,13.6894818 L41.916027,16.3414818 C41.916027,16.8391182 42.0416225,16.9627545 42.5393528,16.9627545 C42.6959596,16.9627545 42.8417124,16.9534818 42.9967685,16.9210273 L42.9967685,18.0708455 C42.7471281,18.1125727 42.4261618,18.1233909 42.1346562,18.1233909 C41.2306787,18.1233909 40.4398921,17.9163 40.4398921,16.8483909 L40.4398921,13.6894818 L39.5467685,13.6894818 L39.5467685,12.7050273 L40.4398921,12.7050273 L40.4398921,11.0993 L41.916027,11.0993 L41.916027,12.7050273 Z" id="Fill-89"></path>
                    <path d="M44.6913775,16.3206182 C44.7022315,16.9635273 45.241827,17.2216182 45.8248382,17.2216182 C46.2496921,17.2216182 46.7908382,17.0562545 46.7908382,16.5385273 C46.7908382,16.0934364 46.1783663,15.9373455 45.117782,15.7101636 C44.264973,15.5231636 43.4137146,15.2218 43.4137146,14.2806182 C43.4137146,12.9128909 44.5983438,12.5605273 45.7519618,12.5605273 C46.9272876,12.5605273 48.0064787,12.9530727 48.1212202,14.2698 L46.7179618,14.2698 C46.6760966,13.6995273 46.2403888,13.5449818 45.7100966,13.5449818 C45.3782764,13.5449818 44.8898494,13.6068 44.8898494,14.0410727 C44.8898494,14.5696182 45.7209506,14.6422545 46.5629056,14.8385273 C47.425018,15.0363455 48.266973,15.3469818 48.266973,16.3407091 C48.266973,17.7501636 47.0404787,18.2060727 45.8139843,18.2060727 C44.5673326,18.2060727 43.3501416,17.7393455 43.2881191,16.3206182 L44.6913775,16.3206182 Z" id="Fill-91"></path>
                </g>
                <path d="M67.3626067,29.0653636 L68.8387416,29.0653636 L68.8387416,21.6688182 L67.3626067,21.6688182 L67.3626067,29.0653636 Z" id="Fill-94"></path>
                <g id="Group-105" transform="translate(69.224719, 21.052182)">
                    <path d="M3.1488382,2.51151818 C4.84360225,2.51151818 5.93364719,3.63042727 5.93364719,5.3397 C5.93364719,7.03815455 4.84360225,8.15706364 3.1488382,8.15706364 C1.46492809,8.15706364 0.373332584,7.03815455 0.373332584,5.3397 C0.373332584,3.63042727 1.46492809,2.51151818 3.1488382,2.51151818 M3.1488382,7.04897273 C4.15670337,7.04897273 4.45751236,6.1897 4.45751236,5.3397 C4.45751236,4.47888182 4.15670337,3.61960909 3.1488382,3.61960909 C2.1502764,3.61960909 1.84946742,4.47888182 1.84946742,5.3397 C1.84946742,6.1897 2.1502764,7.04897273 3.1488382,7.04897273" id="Fill-95"></path>
                    <path d="M6.73497753,2.65648182 L8.13823596,2.65648182 L8.13823596,3.40293636 L8.16924719,3.40293636 C8.54448315,2.80175455 9.18796629,2.51120909 9.81129213,2.51120909 C11.3804607,2.51120909 11.7758539,3.39211818 11.7758539,4.71811818 L11.7758539,8.01302727 L10.3012697,8.01302727 L10.3012697,4.98702727 C10.3012697,4.10611818 10.0407753,3.67184545 9.3538764,3.67184545 C8.55378652,3.67184545 8.21111236,4.11693636 8.21111236,5.20493636 L8.21111236,8.01302727 L6.73497753,8.01302727 L6.73497753,2.65648182 Z" id="Fill-97"></path>
                    <path d="M16.5791843,7.32854545 L16.5574764,7.32854545 C16.2148022,7.90809091 15.6131843,8.15690909 14.9262854,8.15690909 C13.3043978,8.15690909 12.5151618,6.76909091 12.5151618,5.28854545 C12.5151618,3.84818182 13.3152517,2.51136364 14.8952742,2.51136364 C15.5294539,2.51136364 16.1527798,2.78027273 16.4846,3.30881818 L16.5063079,3.30881818 L16.5063079,0.615090909 L17.9824427,0.615090909 L17.9824427,8.01318182 L16.5791843,8.01318182 L16.5791843,7.32854545 Z M15.2906674,3.61945455 C14.3231169,3.61945455 13.9912966,4.44781818 13.9912966,5.32872727 C13.9912966,6.16790909 14.375836,7.04881818 15.2906674,7.04881818 C16.2675213,7.04881818 16.5574764,6.19881818 16.5574764,5.31945455 C16.5574764,4.44781818 16.2458135,3.61945455 15.2906674,3.61945455 L15.2906674,3.61945455 Z" id="Fill-99"></path>
                    <path d="M21.5479596,2.51151818 C23.2427236,2.51151818 24.3343191,3.63042727 24.3343191,5.3397 C24.3343191,7.03815455 23.2427236,8.15706364 21.5479596,8.15706364 C19.8640494,8.15706364 18.7724539,7.03815455 18.7724539,5.3397 C18.7724539,3.63042727 19.8640494,2.51151818 21.5479596,2.51151818 M21.5479596,7.04897273 C22.5558247,7.04897273 22.8581843,6.1897 22.8581843,5.3397 C22.8581843,4.47888182 22.5558247,3.61960909 21.5479596,3.61960909 C20.5509483,3.61960909 20.2485888,4.47888182 20.2485888,5.3397 C20.2485888,6.1897 20.5509483,7.04897273 21.5479596,7.04897273" id="Fill-101"></path>
                    <path d="M25.1347191,2.65648182 L26.5379775,2.65648182 L26.5379775,3.40293636 L26.5689888,3.40293636 C26.9426742,2.80175455 27.5877079,2.51120909 28.2110337,2.51120909 C29.7802022,2.51120909 30.1755955,3.39211818 30.1755955,4.71811818 L30.1755955,8.01302727 L28.6994607,8.01302727 L28.6994607,4.98702727 C28.6994607,4.10611818 28.4405169,3.67184545 27.753618,3.67184545 C26.9535281,3.67184545 26.6108539,4.11693636 26.6108539,5.20493636 L26.6108539,8.01302727 L25.1347191,8.01302727 L25.1347191,2.65648182 Z" id="Fill-103"></path>
                </g>
                <path d="M67.3641573,39.2653636 L68.8402921,39.2653636 L68.8402921,31.8657273 L67.3641573,31.8657273 L67.3641573,39.2653636 Z" id="Fill-106"></path>
                <g id="Group-121" transform="translate(69.224719, 31.324909)">
                    <path d="M3.15054382,2.43770909 C4.84530787,2.43770909 5.93690337,3.55661818 5.93690337,5.26743636 C5.93690337,6.96743636 4.84530787,8.08634545 3.15054382,8.08634545 C1.46663371,8.08634545 0.37348764,6.96743636 0.37348764,5.26743636 C0.37348764,3.55661818 1.46663371,2.43770909 3.15054382,2.43770909 M3.15054382,6.97670909 C4.15840899,6.97670909 4.46076854,6.11743636 4.46076854,5.26743636 C4.46076854,4.40661818 4.15840899,3.54734545 3.15054382,3.54734545 C2.15198202,3.54734545 1.85117303,4.40661818 1.85117303,5.26743636 C1.85117303,6.11743636 2.15198202,6.97670909 3.15054382,6.97670909" id="Fill-107"></path>
                    <path d="M6.7368382,2.58267273 L8.14009663,2.58267273 L8.14009663,3.32912727 L8.17265843,3.32912727 C8.54634382,2.72794545 9.19137753,2.4374 9.81470337,2.4374 C11.3854225,2.4374 11.7808157,3.31830909 11.7808157,4.64585455 L11.7808157,7.94076364 L10.3031303,7.94076364 L10.3031303,4.91476364 C10.3031303,4.03385455 10.0441865,3.59803636 9.35728764,3.59803636 C8.55719775,3.59803636 8.21297303,4.04467273 8.21297303,5.13267273 L8.21297303,7.94076364 L6.7368382,7.94076364 L6.7368382,2.58267273 Z" id="Fill-109"></path>
                    <path d="M16.5832157,7.25705455 L16.5615079,7.25705455 C16.2188337,7.83814545 15.6156652,8.08541818 14.9303169,8.08541818 C13.3068787,8.08541818 12.5176427,6.6976 12.5176427,5.21550909 C12.5176427,3.77514545 13.3177326,2.43832727 14.8977551,2.43832727 C15.5334854,2.43832727 16.1568112,2.70723636 16.4886315,3.23578182 L16.5103393,3.23578182 L16.5103393,0.540509091 L17.9864742,0.540509091 L17.9864742,7.94169091 L16.5832157,7.94169091 L16.5832157,7.25705455 Z M15.2931483,3.54641818 C14.3255978,3.54641818 13.9937775,4.37632727 13.9937775,5.25723636 C13.9937775,6.09641818 14.3783169,6.97732727 15.2931483,6.97732727 C16.2715528,6.97732727 16.5615079,6.12732727 16.5615079,5.24641818 C16.5615079,4.37632727 16.2498449,3.54641818 15.2931483,3.54641818 L15.2931483,3.54641818 Z" id="Fill-111"></path>
                    <path d="M21.5524562,2.43770909 C23.2472202,2.43770909 24.3388157,3.55661818 24.3388157,5.26743636 C24.3388157,6.96743636 23.2472202,8.08634545 21.5524562,8.08634545 C19.8669955,8.08634545 18.7754,6.96743636 18.7754,5.26743636 C18.7754,3.55661818 19.8669955,2.43770909 21.5524562,2.43770909 M21.5524562,6.97670909 C22.5603213,6.97670909 22.8626809,6.11743636 22.8626809,5.26743636 C22.8626809,4.40661818 22.5603213,3.54734545 21.5524562,3.54734545 C20.5538944,3.54734545 20.2530854,4.40661818 20.2530854,5.26743636 C20.2530854,6.11743636 20.5538944,6.97670909 21.5524562,6.97670909" id="Fill-113"></path>
                    <path d="M25.1387506,2.58267273 L26.542009,2.58267273 L26.542009,3.32912727 L26.5730202,3.32912727 C26.9482562,2.72794545 27.5932899,2.4374 28.2166157,2.4374 C29.7873348,2.4374 30.1827281,3.31830909 30.1827281,4.64585455 L30.1827281,7.94076364 L28.7050427,7.94076364 L28.7050427,4.91476364 C28.7050427,4.03385455 28.4460989,3.59803636 27.7592,3.59803636 C26.9591101,3.59803636 26.6148854,4.04467273 26.6148854,5.13267273 L26.6148854,7.94076364 L25.1387506,7.94076364 L25.1387506,2.58267273 Z" id="Fill-115"></path>
                    <path d="M37.303373,4.46905455 C37.2087888,3.86787273 36.8242494,3.54641818 36.2117775,3.54641818 C35.2643843,3.54641818 34.9527213,4.49996364 34.9527213,5.28814545 C34.9527213,6.05469091 35.2550809,6.97732727 36.1792157,6.97732727 C36.8661146,6.97732727 37.2615079,6.54150909 37.3545416,5.88932727 L38.7795079,5.88932727 C38.5918899,7.3096 37.604182,8.08696364 36.1900697,8.08696364 C34.568182,8.08696364 33.4765865,6.94641818 33.4765865,5.34069091 C33.4765865,3.6716 34.4751483,2.43832727 36.2210809,2.43832727 C37.4894404,2.43832727 38.6554629,3.10132727 38.7484966,4.46905455 L37.303373,4.46905455 Z" id="Fill-117"></path>
                    <path d="M42.0955393,2.43770909 C43.7903034,2.43770909 44.8818989,3.55661818 44.8818989,5.26743636 C44.8818989,6.96743636 43.7903034,8.08634545 42.0955393,8.08634545 C40.4116292,8.08634545 39.3184831,6.96743636 39.3184831,5.26743636 C39.3184831,3.55661818 40.4116292,2.43770909 42.0955393,2.43770909 M42.0955393,6.97670909 C43.1034045,6.97670909 43.405764,6.11743636 43.405764,5.26743636 C43.405764,4.40661818 43.1034045,3.54734545 42.0955393,3.54734545 C41.0969775,3.54734545 40.7961685,4.40661818 40.7961685,5.26743636 C40.7961685,6.11743636 41.0969775,6.97670909 42.0955393,6.97670909" id="Fill-119"></path>
                </g>
                <path d="M114.938494,39.2653636 L116.414629,39.2653636 L116.414629,31.8657273 L114.938494,31.8657273 L114.938494,39.2653636 Z" id="Fill-122"></path>
                <path d="M117.49382,39.2653636 L118.969955,39.2653636 L118.969955,31.8657273 L117.49382,31.8657273 L117.49382,39.2653636 Z" id="Fill-123"></path>
                <g id="Group-142" transform="translate(66.674157, 33.415818)">
                    <path d="M54.5230247,3.52873636 C54.5648899,4.46064545 55.0223056,4.88564545 55.8425528,4.88564545 C56.436418,4.88564545 56.913991,4.52400909 57.0085753,4.19173636 L58.3079461,4.19173636 C57.8923955,5.45591818 57.0085753,5.99528182 55.7913843,5.99528182 C54.0966202,5.99528182 53.0468899,4.83464545 53.0468899,3.17637273 C53.0468899,1.57064545 54.1586427,0.346645455 55.7913843,0.346645455 C57.6210472,0.346645455 58.5048674,1.88128182 58.4009798,3.52873636 L54.5230247,3.52873636 Z M56.9248449,2.59682727 C56.7899461,1.85037273 56.4674292,1.45628182 55.7495191,1.45628182 C54.8145303,1.45628182 54.543182,2.1811 54.5230247,2.59682727 L56.9248449,2.59682727 Z" id="Fill-124"></path>
                    <path d="M64.3171483,5.50815455 C64.3171483,6.38906364 64.0054854,7.88197273 61.5307888,7.88197273 C60.4702045,7.88197273 59.2313056,7.38433636 59.1599798,6.16188182 L60.6252607,6.16188182 C60.7601596,6.71051818 61.2082719,6.89751818 61.7277101,6.89751818 C62.5495079,6.89751818 62.9231933,6.33806364 62.9123393,5.56997273 L62.9123393,4.86524545 L62.892182,4.86524545 C62.5696652,5.4247 61.9246315,5.69515455 61.2811483,5.69515455 C59.668564,5.69515455 58.9816652,4.47115455 58.9816652,2.99988182 C58.9816652,1.61051818 59.7833056,0.346336364 61.2904517,0.346336364 C61.9975079,0.346336364 62.5386539,0.585881818 62.892182,1.20715455 L62.9123393,1.20715455 L62.9123393,0.491609091 L64.3171483,0.491609091 L64.3171483,5.50815455 Z M62.9123393,3.10342727 C62.9123393,2.23333636 62.6115303,1.45597273 61.6548337,1.45597273 C60.8237326,1.45597273 60.4593506,2.18233636 60.4593506,2.97979091 C60.4593506,3.74633636 60.7508562,4.58551818 61.6548337,4.58551818 C62.4967888,4.58551818 62.9123393,3.87151818 62.9123393,3.10342727 L62.9123393,3.10342727 Z" id="Fill-126"></path>
                    <path d="M66.5724404,3.52873636 C66.6143056,4.46064545 67.0717213,4.88564545 67.8919685,4.88564545 C68.4858337,4.88564545 68.9634067,4.52400909 69.057991,4.19173636 L70.3573618,4.19173636 C69.9418112,5.45591818 69.057991,5.99528182 67.8408,5.99528182 C66.146036,5.99528182 65.0963056,4.83464545 65.0963056,3.17637273 C65.0963056,1.57064545 66.2080584,0.346645455 67.8408,0.346645455 C69.6704629,0.346645455 70.5542831,1.88128182 70.4503955,3.52873636 L66.5724404,3.52873636 Z M68.9742607,2.59682727 C68.8393618,1.85037273 68.5168449,1.45628182 67.7989348,1.45628182 C66.8639461,1.45628182 66.5925978,2.1811 66.5724404,2.59682727 L68.9742607,2.59682727 Z" id="Fill-128"></path>
                    <path d="M2.84202472,10.5485 C4.53678876,10.5485 5.62838427,11.6674091 5.62838427,13.3782273 C5.62838427,15.0782273 4.53678876,16.1971364 2.84202472,16.1971364 C1.15811461,16.1971364 0.0649685393,15.0782273 0.0649685393,13.3782273 C0.0649685393,11.6674091 1.15811461,10.5485 2.84202472,10.5485 M2.84202472,15.0875 C3.84988989,15.0875 4.15224944,14.2282273 4.15224944,13.3782273 C4.15224944,12.5174091 3.84988989,11.6581364 2.84202472,11.6581364 C1.84346292,11.6581364 1.54265393,12.5174091 1.54265393,13.3782273 C1.54265393,14.2282273 1.84346292,15.0875 2.84202472,15.0875" id="Fill-130"></path>
                    <path d="M6.74044719,11.6780727 L5.85662697,11.6780727 L5.85662697,10.6936182 L6.74044719,10.6936182 L6.74044719,10.2794364 C6.74044719,9.33670909 7.3327618,8.65207273 8.53909888,8.65207273 C8.79959326,8.65207273 9.06939101,8.68298182 9.31903146,8.69225455 L9.31903146,9.79107273 C9.14226742,9.77098182 8.96550337,9.76170909 8.77788539,9.76170909 C8.38249213,9.76170909 8.21658202,9.92707273 8.21658202,10.3721636 L8.21658202,10.6936182 L9.23530112,10.6936182 L9.23530112,11.6780727 L8.21658202,11.6780727 L8.21658202,16.0517091 L6.74044719,16.0517091 L6.74044719,11.6780727 Z" id="Fill-132"></path>
                    <path d="M12.3646449,11.6780727 L11.4808247,11.6780727 L11.4808247,10.6936182 L12.3646449,10.6936182 L12.3646449,10.2794364 C12.3646449,9.33670909 12.9569596,8.65207273 14.1632966,8.65207273 C14.423791,8.65207273 14.6935888,8.68298182 14.9432292,8.69225455 L14.9432292,9.79107273 C14.7664652,9.77098182 14.5897011,9.76170909 14.4020831,9.76170909 C14.0082404,9.76170909 13.8407798,9.92707273 13.8407798,10.3721636 L13.8407798,10.6936182 L14.8610494,10.6936182 L14.8610494,11.6780727 L13.8407798,11.6780727 L13.8407798,16.0517091 L12.3646449,16.0517091 L12.3646449,11.6780727 Z" id="Fill-134"></path>
                    <path d="M15.2863685,12.3416909 C15.3700989,10.9631455 16.6074472,10.5489636 17.8137843,10.5489636 C18.8836719,10.5489636 20.1737393,10.7869636 20.1737393,12.0727818 L20.1737393,14.8607818 C20.1737393,15.3476 20.2249079,15.8344182 20.3598067,16.0523273 L18.8635146,16.0523273 C18.8107955,15.8854182 18.7704809,15.7092364 18.759627,15.5330545 C18.2913573,16.0198727 17.6044584,16.1976 16.9501213,16.1976 C15.9314022,16.1976 15.1189079,15.6891455 15.1189079,14.5903273 C15.1189079,13.3786909 16.0352899,13.0881455 16.9501213,12.9629636 C17.8556494,12.8285091 18.6976045,12.8594182 18.6976045,12.2582364 C18.6976045,11.6261455 18.2603461,11.5334182 17.7409079,11.5334182 C17.1796045,11.5334182 16.8152225,11.7606 16.7625034,12.3416909 L15.2863685,12.3416909 Z M18.6976045,13.4296909 C18.447964,13.6476 17.9269753,13.6584182 17.4695596,13.7403273 C17.0121438,13.8346 16.5965933,13.9891455 16.5965933,14.5285091 C16.5965933,15.0771455 17.0229978,15.2131455 17.5005708,15.2131455 C18.6557393,15.2131455 18.6976045,14.2997818 18.6976045,13.9783273 L18.6976045,13.4296909 Z" id="Fill-136"></path>
                    <path d="M22.3355326,14.3107545 C22.3463865,14.9536636 22.885982,15.2117545 23.4689933,15.2117545 C23.8953978,15.2117545 24.4365438,15.0463909 24.4365438,14.5286636 C24.4365438,14.0835727 23.8225213,13.9274818 22.7619371,13.6987545 C21.9091281,13.5133 21.0563191,13.2119364 21.0563191,12.2692091 C21.0563191,10.9014818 22.2409483,10.5491182 23.3961169,10.5491182 C24.5714427,10.5491182 25.6521843,10.9432091 25.7669258,12.2583909 L24.3636674,12.2583909 C24.3218022,11.6881182 23.8845438,11.5335727 23.3542517,11.5335727 C23.0208809,11.5335727 22.5324539,11.5953909 22.5324539,12.0296636 C22.5324539,12.5597545 23.3651056,12.6323909 24.2070607,12.8286636 C25.0707236,13.0264818 25.9126787,13.3371182 25.9126787,14.3308455 C25.9126787,15.7403 24.6846337,16.1977545 23.4581393,16.1977545 C22.2099371,16.1977545 20.9942966,15.7310273 20.9322742,14.3107545 L22.3355326,14.3107545 Z" id="Fill-138"></path>
                    <path d="M26.6493506,8.65191818 L28.1254854,8.65191818 L28.1254854,11.4399182 L28.1580472,11.4399182 C28.5317326,10.8387364 29.1767663,10.5481909 29.7272157,10.5481909 C31.2979348,10.5481909 31.6933281,11.4291 31.6933281,12.7566455 L31.6933281,16.0515545 L30.2156427,16.0515545 L30.2156427,13.0255545 C30.2156427,12.1446455 29.9566989,11.7088273 29.2698,11.7088273 C28.4697101,11.7088273 28.1254854,12.1554636 28.1254854,13.2434636 L28.1254854,16.0515545 L26.6493506,16.0515545 L26.6493506,8.65191818 Z" id="Fill-140"></path>
                </g>
                <path d="M99.4065169,43.2804545 L100.882652,43.2804545 L100.882652,42.0672727 L99.4065169,42.0672727 L99.4065169,43.2804545 Z M99.4065169,49.4684545 L100.882652,49.4684545 L100.882652,44.1088182 L99.4065169,44.1088182 L99.4065169,49.4684545 Z" id="Fill-143"></path>
                <g id="Group-152" transform="translate(0.000000, 9.688545)">
                    <path d="M104.500267,34.2757727 C106.195031,34.2757727 107.286627,35.3946818 107.286627,37.1055 C107.286627,38.8055 106.195031,39.9244091 104.500267,39.9244091 C102.814807,39.9244091 101.723211,38.8055 101.723211,37.1055 C101.723211,35.3946818 102.814807,34.2757727 104.500267,34.2757727 M104.500267,38.8147727 C105.508133,38.8147727 105.810492,37.9555 105.810492,37.1055 C105.810492,36.2446818 105.508133,35.3854091 104.500267,35.3854091 C103.501706,35.3854091 103.200897,36.2446818 103.200897,37.1055 C103.200897,37.9555 103.501706,38.8147727 104.500267,38.8147727" id="Fill-144"></path>
                    <path d="M108.117418,34.4207364 L109.520676,34.4207364 L109.520676,35.1671909 L109.553238,35.1671909 C109.926924,34.5660091 110.571957,34.2754636 111.195283,34.2754636 C112.766002,34.2754636 113.161396,35.1563727 113.161396,36.4839182 L113.161396,39.7788273 L111.68371,39.7788273 L111.68371,36.7528273 C111.68371,35.8719182 111.424766,35.4361 110.737867,35.4361 C109.937778,35.4361 109.593553,35.8827364 109.593553,36.9707364 L109.593553,39.7788273 L108.117418,39.7788273 L108.117418,34.4207364 Z" id="Fill-146"></path>
                    <path d="M18.359427,19.3734182 L13.504618,19.3734182 L13.504618,16.7925091 L13.3960787,16.7925091 C12.1013596,18.8711455 9.87165169,19.8756909 7.71326966,19.8756909 C2.28165169,19.8756909 0.91405618,16.8280545 0.91405618,12.2396 L0.91405618,0.838781818 L6.0231573,0.838781818 L6.0231573,11.3076909 C6.0231573,14.3553273 6.92093258,15.8606 9.29639326,15.8606 C12.0641461,15.8606 13.2518764,14.3182364 13.2518764,10.5550545 L13.2518764,0.838781818 L18.359427,0.838781818 L18.359427,19.3734182 Z" id="Fill-148"></path>
                    <path d="M21.7393416,6.53965455 C22.0261955,1.77192727 26.3072966,0.337745455 30.4798584,0.337745455 C34.1841506,0.337745455 38.6435663,1.16147273 38.6435663,5.60774545 L38.6435663,15.2513818 C38.6435663,16.9359273 38.8234315,18.6204727 39.2917011,19.3731091 L34.1128247,19.3731091 C33.9329596,18.7997455 33.7887573,18.1908364 33.7530944,17.5819273 C32.1343079,19.2664727 29.7603978,19.8753818 27.4934764,19.8753818 C23.9690494,19.8753818 21.1640831,18.1182 21.1640831,14.3194727 C21.1640831,10.1235636 24.3287798,9.12056364 27.4934764,8.69092727 C30.6225101,8.2242 33.5375663,8.33238182 33.5375663,6.2522 C33.5375663,4.06538182 32.0257685,3.74392727 30.2271169,3.74392727 C28.2858135,3.74392727 27.0267573,4.53210909 26.8468921,6.53965455 L21.7393416,6.53965455 Z M33.5375663,10.3028364 C32.6739034,11.0570182 30.8752517,11.0925636 29.2921281,11.3784727 C27.7105551,11.7014727 26.2716337,12.2392909 26.2716337,14.1031091 C26.2716337,16.0040182 27.746218,16.4692 29.4006674,16.4692 C33.393364,16.4692 33.5375663,13.3149273 33.5375663,12.2037455 L33.5375663,10.3028364 Z" id="Fill-150"></path>
                </g>
                <path d="M42.5644719,29.0622727 L47.6720225,29.0622727 L47.6720225,3.46645455 L42.5644719,3.46645455 L42.5644719,29.0622727 Z" id="Fill-153"></path>
                <path d="M53.317618,16.371 L58.964764,16.371 L58.964764,10.8490909 L53.317618,10.8490909 L53.317618,16.371 Z M53.317618,29.0622727 L58.964764,29.0622727 L58.964764,23.5419091 L53.317618,23.5419091 L53.317618,29.0622727 Z" id="Fill-154"></path>
            </g>
        </g>
    </g>
</svg>