<?xml version="1.0" encoding="UTF-8"?>
<svg width="104px" height="36px" viewBox="0 0 104 36" version="1.1" xmlns="http://www.w3.org/2000/svg" xmlns:xlink="http://www.w3.org/1999/xlink">
    <!-- Generator: sketchtool 42 (36781) - http://www.bohemiancoding.com/sketch -->
    <title>E86A63C1-11E4-4BE5-91D0-C60EA6700C11</title>
    <desc>Created with sketchtool.</desc>
    <defs></defs>
    <g id="Page-1" stroke="none" stroke-width="1" fill="none" fill-rule="evenodd">
        <g id="vogue_conf2017_landing_new" transform="translate(-558.000000, -4895.000000)" fill="#000000">
            <g id="Group-21" transform="translate(145.000000, 4866.000000)">
                <g id="audi-logo" transform="translate(413.000000, 29.000000)">
                    <path d="M86.0080998,31.9333999 C82.8179945,31.9333999 79.8799424,30.8575623 77.5318488,29.0523869 C79.9081929,26.0014274 81.3284227,22.1679072 81.3284227,18 C81.3284227,13.8320928 79.9081929,9.99820551 77.531482,6.94761312 C79.8799424,5.1420706 82.8176276,4.066233 86.0080998,4.066233 C93.6999407,4.066233 99.9355968,10.3046963 99.9355968,18 C99.9355968,25.6953037 93.6999407,31.9333999 86.0080998,31.9333999 Z M54.8595377,29.0523869 C57.2362487,26.0017945 58.6564784,22.1679072 58.6564784,18 C58.6564784,13.8320928 57.2362487,9.99820551 54.8595377,6.94724607 C57.2076313,5.1420706 60.1456834,4.066233 63.3361556,4.066233 C66.5269946,4.066233 69.4646798,5.1420706 71.8127734,6.94761312 C69.4356955,9.99857256 68.0161996,13.8320928 68.0161996,18 C68.0161996,22.1679072 69.4356955,26.0014274 71.8127734,29.0523869 C69.4646798,30.8575623 66.5266277,31.9333999 63.3361556,31.9333999 C60.1456834,31.9333999 57.2076313,30.8575623 54.8595377,29.0523869 Z M32.1872266,29.0523869 C34.5643045,26.0014274 35.9838004,22.1679072 35.9838004,18 C35.9838004,13.8320928 34.5643045,9.99820551 32.1872266,6.94724607 C34.5356871,5.1420706 37.4733723,4.066233 40.6638444,4.066233 C43.8543166,4.066233 46.7923687,5.1420706 49.1404623,6.94724607 C46.7637513,9.99820551 45.3438885,13.8320928 45.3438885,18 C45.3438885,22.1679072 46.7637513,26.0014274 49.1404623,29.0523869 C46.7923687,30.8575623 43.8543166,31.9333999 40.6638444,31.9333999 C37.4733723,31.9333999 34.5356871,30.8575623 32.1872266,29.0523869 Z M4.06440324,18 C4.06440324,10.3043292 10.3000593,4.066233 17.9919002,4.066233 C21.1823724,4.066233 24.1204245,5.1420706 26.468518,6.94724607 C24.0918071,9.99820551 22.6719442,13.8320928 22.6719442,18 C22.6719442,22.1679072 24.0918071,26.0017945 26.468518,29.0523869 C24.1200576,30.8575623 21.1823724,31.9333999 17.9919002,31.9333999 C10.3000593,31.9333999 4.06440324,25.6953037 4.06440324,18 Z M29.3280558,26.0895206 C27.698699,23.808275 26.7367144,21.0175575 26.7367144,18 C26.7367144,14.9824425 27.698699,12.1913579 29.3280558,9.91011236 C30.9574126,12.1913579 31.9193972,14.9824425 31.9193972,18 C31.9193972,21.0175575 30.9574126,23.808275 29.3280558,26.0895206 Z M52,26.0895206 C50.3706432,23.808275 49.4086586,21.0175575 49.4086586,18 C49.4086586,14.9824425 50.3706432,12.1913579 52,9.91011236 C53.6289899,12.1913579 54.5913414,14.9824425 54.5913414,18 C54.5913414,21.0175575 53.6289899,23.808275 52,26.0895206 Z M74.6719442,26.0895206 C73.0425874,23.808275 72.0806028,21.0175575 72.0806028,18 C72.0806028,14.9824425 73.0425874,12.191725 74.6719442,9.91047941 C76.301301,12.191725 77.2629187,14.9824425 77.2629187,18 C77.2629187,21.0175575 76.301301,23.808275 74.6719442,26.0895206 Z M86.0080998,0 C81.7103548,0 77.7662913,1.50969636 74.6723111,4.02512286 C71.5775972,1.50969636 67.6335337,0 63.3361556,0 C59.0387774,0 55.094714,1.50969636 52,4.02475581 C48.9056529,1.50969636 44.9615895,0 40.6638444,0 C36.3664663,0 32.4224028,1.50969636 29.3280558,4.02475581 C26.2337087,1.50969636 22.2896452,0 17.9919002,0 C8.05506167,0 0,8.05868798 0,18 C0,27.941312 8.05506167,36 17.9919002,36 C22.2896452,36 26.2337087,34.4903036 29.3280558,31.9748771 C32.4224028,34.4903036 36.3664663,36 40.6638444,36 C44.9615895,36 48.9056529,34.4903036 52,31.9748771 C55.094714,34.4903036 59.0387774,36 63.3361556,36 C67.6335337,36 71.5775972,34.4903036 74.6723111,31.9748771 C77.7662913,34.4903036 81.7103548,36 86.0080998,36 C95.9449383,36 104,27.941312 104,18 C104,8.05868798 95.9449383,0 86.0080998,0 L86.0080998,0 Z"></path>
                </g>
            </g>
        </g>
    </g>
</svg>