<?xml version="1.0" encoding="UTF-8"?>
<svg width="245px" height="81px" viewBox="0 0 245 81" version="1.1" xmlns="http://www.w3.org/2000/svg" xmlns:xlink="http://www.w3.org/1999/xlink">
    <!-- Generator: sketchtool 42 (36781) - http://www.bohemiancoding.com/sketch -->
    <title>9B7A76E6-BD91-43C1-A628-5E0E8233A6A3</title>
    <desc>Created with sketchtool.</desc>
    <defs></defs>
    <g id="Page-1" stroke="none" stroke-width="1" fill="none" fill-rule="evenodd">
        <g id="vogue_conf2017_landing_new" transform="translate(-145.000000, -3587.000000)">
            <g id="Group-21" transform="translate(145.000000, 3570.000000)">
                <g id="25090971-L1-KYV-C-L" transform="translate(0.000000, 17.000000)">
                    <path d="M110.019812,77.6745891 C110.019812,76.6211881 110.019812,76.4263069 110.006201,76.2053614 C109.99219,75.9687772 109.936944,75.858505 109.708758,75.8099851 C109.653113,75.7967525 109.535417,75.7895347 109.438938,75.7895347 C109.362876,75.7895347 109.321242,75.7755 109.321242,75.7269802 C109.321242,75.6784604 109.369681,75.6644257 109.473366,75.6644257 C109.840065,75.6644257 110.275621,75.6852772 110.483391,75.6852772 C110.649126,75.6852772 111.085082,75.6644257 111.334085,75.6644257 C111.43817,75.6644257 111.486609,75.6784604 111.486609,75.7269802 C111.486609,75.7755 111.444975,75.7895347 111.376119,75.7895347 C111.299657,75.7895347 111.258423,75.7967525 111.175155,75.8099851 C110.988203,75.8444703 110.932958,75.9627624 110.918946,76.2053614 C110.905335,76.4263069 110.905335,76.6211881 110.905335,77.6745891 L110.905335,78.6441832 C110.905335,79.6490644 111.105899,80.0713069 111.444975,80.3483911 C111.756029,80.6054257 112.07469,80.6326931 112.309681,80.6326931 C112.61433,80.6326931 112.987435,80.5356535 113.264461,80.2593713 C113.644771,79.8776287 113.665989,79.2536881 113.665989,78.5395248 L113.665989,77.6745891 C113.665989,76.6211881 113.665989,76.4263069 113.651577,76.2053614 C113.637565,75.9687772 113.582721,75.858505 113.354134,75.8099851 C113.298889,75.7967525 113.181593,75.7895347 113.105131,75.7895347 C113.029069,75.7895347 112.987435,75.7755 112.987435,75.7269802 C112.987435,75.6784604 113.035874,75.6644257 113.133154,75.6644257 C113.485441,75.6644257 113.921397,75.6852772 113.928203,75.6852772 C114.011471,75.6852772 114.447026,75.6644257 114.717247,75.6644257 C114.813725,75.6644257 114.862165,75.6784604 114.862165,75.7269802 C114.862165,75.7755 114.820531,75.7895347 114.737263,75.7895347 C114.661601,75.7895347 114.619967,75.7967525 114.5371,75.8099851 C114.350547,75.8444703 114.294902,75.9627624 114.281291,76.2053614 C114.267279,76.4263069 114.267279,76.6211881 114.267279,77.6745891 L114.267279,78.4148168 C114.267279,79.1847178 114.191217,80.0023366 113.610343,80.5011683 C113.118742,80.9234109 112.620735,81 112.171168,81 C111.804469,81 111.140727,80.9795495 110.635515,80.5216188 C110.282426,80.2028317 110.019812,79.6907673 110.019812,78.6858861 L110.019812,77.6745891" id="Fill-1" fill="#92927C"></path>
                    <path d="M118.770155,77.9793416 L118.804984,77.9793416 C119.039575,77.7223069 120.05,76.6893564 120.250564,76.4543762 C120.444322,76.2258119 120.596446,76.0525842 120.596446,75.9342921 C120.596446,75.858505 120.568824,75.8099851 120.499567,75.7967525 C120.437516,75.7827178 120.409493,75.7682822 120.409493,75.7269802 C120.409493,75.6784604 120.444322,75.6644257 120.520384,75.6644257 C120.665703,75.6644257 121.046013,75.6852772 121.232966,75.6852772 C121.447141,75.6852772 121.827451,75.6644257 122.042026,75.6644257 C122.111283,75.6644257 122.159722,75.6784604 122.159722,75.7269802 C122.159722,75.7755 122.124894,75.7895347 122.056038,75.7895347 C121.959158,75.7895347 121.786618,75.816802 121.65491,75.8657228 C121.440735,75.9487277 121.205343,76.0942871 120.9075,76.3854059 C120.692925,76.5931188 119.648873,77.6324851 119.41348,77.8815 C119.662484,78.207104 121.018391,79.6695149 121.288211,79.9261485 C121.592459,80.2168663 121.903913,80.5284356 122.277018,80.674396 C122.485188,80.757401 122.623301,80.7782525 122.706569,80.7782525 C122.754608,80.7782525 122.796242,80.7918861 122.796242,80.8331881 C122.796242,80.8817079 122.761413,80.9029604 122.630106,80.9029604 L122.028415,80.9029604 C121.821046,80.9029604 121.696144,80.9029604 121.551225,80.8889257 C121.17732,80.8552426 120.990368,80.7024653 120.692925,80.4386139 C120.389077,80.1683465 119.025964,78.5675941 118.880645,78.367099 L118.804984,78.2628416 L118.770155,78.2628416 L118.770155,78.893198 C118.770155,79.5307723 118.770155,80.0781238 118.790972,80.3768614 C118.804984,80.5701386 118.867034,80.7229158 119.039575,80.7509851 C119.136855,80.7642178 119.288979,80.7782525 119.379052,80.7782525 C119.434297,80.7782525 119.468725,80.798703 119.468725,80.8331881 C119.468725,80.8817079 119.41348,80.9029604 119.337418,80.9029604 C118.949902,80.9029604 118.513946,80.8817079 118.341005,80.8817079 C118.182075,80.8817079 117.74652,80.9029604 117.469894,80.9029604 C117.37982,80.9029604 117.331381,80.8817079 117.331381,80.8331881 C117.331381,80.798703 117.359003,80.7782525 117.441871,80.7782525 C117.545956,80.7782525 117.628824,80.7642178 117.690874,80.7509851 C117.829387,80.7229158 117.863815,80.5701386 117.891438,80.3696436 C117.925866,80.0781238 117.925866,79.5307723 117.925866,78.893198 L117.925866,77.6745891 C117.925866,76.6211881 117.925866,76.4263069 117.912655,76.2053614 C117.898644,75.9687772 117.842998,75.858505 117.615212,75.8099851 C117.559567,75.7967525 117.441871,75.7895347 117.344992,75.7895347 C117.26933,75.7895347 117.227296,75.7755 117.227296,75.7269802 C117.227296,75.6784604 117.275735,75.6644257 117.37982,75.6644257 C117.74652,75.6644257 118.182075,75.6852772 118.348211,75.6852772 C118.513946,75.6852772 118.949902,75.6644257 119.185294,75.6644257 C119.282173,75.6644257 119.330613,75.6784604 119.330613,75.7269802 C119.330613,75.7755 119.288979,75.7895347 119.233734,75.7895347 C119.164477,75.7895347 119.122843,75.7967525 119.039575,75.8099851 C118.853423,75.8444703 118.798178,75.9627624 118.784167,76.2053614 C118.770155,76.4263069 118.770155,76.6211881 118.770155,77.6745891 L118.770155,77.9793416" id="Fill-2" fill="#92927C"></path>
                    <path d="M125.909583,78.2215396 C125.909583,78.2973267 125.923194,78.3245941 125.971634,78.3466485 C126.116552,78.3951683 126.324322,78.4148168 126.497263,78.4148168 C126.773889,78.4148168 126.863562,78.3883515 126.988064,78.2973267 C127.195433,78.1453515 127.395997,77.8265644 127.395997,77.2579604 C127.395997,76.2743317 126.745866,75.9900297 126.337933,75.9900297 C126.164592,75.9900297 126.04049,75.9972475 125.971634,76.018099 C125.923194,76.0317327 125.909583,76.059 125.909583,76.1155396 L125.909583,78.2215396 Z M125.092917,77.6745891 C125.092917,76.6211881 125.092917,76.4263069 125.078905,76.2053614 C125.064894,75.9687772 125.010049,75.858505 124.781462,75.8099851 C124.726217,75.7967525 124.608521,75.7895347 124.511242,75.7895347 C124.43558,75.7895347 124.393946,75.7755 124.393946,75.7269802 C124.393946,75.6784604 124.442786,75.6644257 124.54607,75.6644257 C124.91277,75.6644257 125.348325,75.6852772 125.494044,75.6852772 C125.729036,75.6852772 126.255065,75.6644257 126.46924,75.6644257 C126.905196,75.6644257 127.368775,75.7057277 127.742279,75.9627624 C127.935637,76.0942871 128.212663,76.4475594 128.212663,76.9119059 C128.212663,77.4247723 127.997688,77.8955347 127.299518,78.4633366 C127.91482,79.2396535 128.39241,79.8567772 128.800343,80.2866386 C129.187859,80.6884307 129.471291,80.7369505 129.575376,80.757401 C129.651438,80.7706337 129.713889,80.7782525 129.768734,80.7782525 C129.824779,80.7782525 129.852002,80.798703 129.852002,80.8331881 C129.852002,80.8889257 129.803562,80.9029604 129.720694,80.9029604 L129.063758,80.9029604 C128.676242,80.9029604 128.5029,80.8684752 128.323554,80.7706337 C128.026111,80.6122426 127.762696,80.2866386 127.37598,79.7533218 C127.098554,79.3719802 126.780694,78.9004158 126.690621,78.7961584 C126.655792,78.7548564 126.614559,78.7484406 126.566119,78.7484406 L125.964428,78.7344059 C125.929199,78.7344059 125.909583,78.7484406 125.909583,78.7901436 L125.909583,78.8863812 C125.909583,79.5307723 125.909583,80.0781238 125.943611,80.3696436 C125.964428,80.5701386 126.005662,80.7229158 126.213031,80.7509851 C126.317116,80.7642178 126.46924,80.7782525 126.552508,80.7782525 C126.607753,80.7782525 126.635376,80.798703 126.635376,80.8331881 C126.635376,80.8817079 126.586536,80.9029604 126.497263,80.9029604 C126.095735,80.9029604 125.583717,80.8817079 125.480433,80.8817079 C125.348325,80.8817079 124.91277,80.9029604 124.636144,80.9029604 C124.54607,80.9029604 124.497631,80.8817079 124.497631,80.8331881 C124.497631,80.798703 124.525654,80.7782525 124.608521,80.7782525 C124.712206,80.7782525 124.795074,80.7642178 124.857925,80.7509851 C124.995637,80.7229158 125.030466,80.5701386 125.058088,80.3696436 C125.092917,80.0781238 125.092917,79.5307723 125.092917,78.893198 L125.092917,77.6745891 L125.092917,77.6745891 Z" id="Fill-3" fill="#92927C"></path>
                    <path d="M134.154314,78.7484406 C134.188342,78.7484406 134.195547,78.7271881 134.188342,78.7063366 L133.566634,76.9949109 C133.559428,76.9676436 133.552222,76.9323564 133.531405,76.9323564 C133.510588,76.9323564 133.497377,76.9676436 133.490172,76.9949109 L132.853252,78.6999208 C132.846446,78.7271881 132.853252,78.7484406 132.881275,78.7484406 L134.154314,78.7484406 Z M132.743162,79.094495 C132.707933,79.094495 132.694722,79.1085297 132.681111,79.1494307 L132.307206,80.1410792 C132.237949,80.313104 132.203121,80.4799158 132.203121,80.5637228 C132.203121,80.6884307 132.265572,80.7782525 132.479747,80.7782525 L132.583431,80.7782525 C132.666699,80.7782525 132.687917,80.7918861 132.687917,80.8331881 C132.687917,80.8889257 132.645882,80.9029604 132.56982,80.9029604 C132.34884,80.9029604 132.050997,80.8817079 131.836422,80.8817079 C131.76076,80.8817079 131.380049,80.9029604 131.020155,80.9029604 C130.930482,80.9029604 130.888848,80.8889257 130.888848,80.8331881 C130.888848,80.7918861 130.916871,80.7782525 130.972116,80.7782525 C131.034167,80.7782525 131.131446,80.7706337 131.186291,80.7642178 C131.504951,80.7229158 131.636258,80.4879356 131.774371,80.1410792 L133.510588,75.7895347 C133.593456,75.5882376 133.63509,75.5116485 133.704346,75.5116485 C133.766797,75.5116485 133.808031,75.575005 133.877688,75.733797 C134.043423,76.1155396 135.150327,78.9417178 135.592688,79.9951188 C135.856103,80.6186584 136.056266,80.715698 136.201985,80.7509851 C136.30567,80.7706337 136.408954,80.7782525 136.492222,80.7782525 C136.547467,80.7782525 136.582296,80.7846683 136.582296,80.8331881 C136.582296,80.8889257 136.519845,80.9029604 136.264036,80.9029604 C136.015433,80.9029604 135.50982,80.9029604 134.956569,80.8889257 C134.832467,80.8817079 134.749199,80.8817079 134.749199,80.8331881 C134.749199,80.7918861 134.776422,80.7782525 134.845678,80.7706337 C134.894518,80.757401 134.942557,80.6948465 134.908529,80.6122426 L134.354477,79.1430149 C134.340866,79.1085297 134.320449,79.094495 134.285221,79.094495 L132.743162,79.094495 L132.743162,79.094495 Z" id="Fill-4" fill="#92927C"></path>
                    <path d="M139.286904,77.6745891 C139.286904,76.6211881 139.286904,76.4263069 139.272892,76.2053614 C139.258881,75.9687772 139.189624,75.8512871 139.0379,75.816802 C138.961438,75.7967525 138.871765,75.7895347 138.788497,75.7895347 C138.71924,75.7895347 138.678007,75.7755 138.678007,75.7197624 C138.678007,75.6784604 138.733252,75.6644257 138.844142,75.6644257 C139.106757,75.6644257 139.542312,75.6852772 139.742876,75.6852772 C139.916217,75.6852772 140.324551,75.6644257 140.587165,75.6644257 C140.677239,75.6644257 140.732484,75.6784604 140.732484,75.7197624 C140.732484,75.7755 140.69125,75.7895347 140.622394,75.7895347 C140.552337,75.7895347 140.497092,75.7967525 140.413824,75.8099851 C140.227672,75.8444703 140.172426,75.9627624 140.158415,76.2053614 C140.144404,76.4263069 140.144404,76.6211881 140.144404,77.6745891 L140.144404,78.893198 C140.144404,79.5660594 140.144404,80.1126089 140.172426,80.4109455 C140.192443,80.5982079 140.241283,80.7229158 140.449052,80.7509851 C140.545931,80.7642178 140.697655,80.7782525 140.80174,80.7782525 C140.877402,80.7782525 140.912631,80.798703 140.912631,80.8331881 C140.912631,80.8817079 140.856585,80.9029604 140.780523,80.9029604 C140.324551,80.9029604 139.888595,80.8817079 139.701642,80.8817079 C139.542312,80.8817079 139.106757,80.9029604 138.830131,80.9029604 C138.740057,80.9029604 138.692018,80.8817079 138.692018,80.8331881 C138.692018,80.798703 138.71924,80.7782525 138.802508,80.7782525 C138.906193,80.7782525 138.98906,80.7642178 139.051912,80.7509851 C139.189624,80.7229158 139.231258,80.6054257 139.252075,80.4041287 C139.286904,80.1126089 139.286904,79.5660594 139.286904,78.893198 L139.286904,77.6745891" id="Fill-5" fill="#92927C"></path>
                    <path d="M145.048007,79.9598317 C145.062018,80.5011683 145.152092,80.6804109 145.290605,80.7297327 C145.4079,80.7706337 145.539608,80.7782525 145.650098,80.7782525 C145.72616,80.7782525 145.768194,80.7918861 145.768194,80.8331881 C145.768194,80.8889257 145.705343,80.9029604 145.608864,80.9029604 C145.159297,80.9029604 144.882672,80.8817079 144.750564,80.8817079 C144.688513,80.8817079 144.363448,80.9029604 144.004355,80.9029604 C143.913881,80.9029604 143.85183,80.8957426 143.85183,80.8331881 C143.85183,80.7918861 143.893064,80.7782525 143.96192,80.7782525 C144.052394,80.7782525 144.176495,80.7706337 144.273775,80.7441683 C144.453121,80.6884307 144.481144,80.4879356 144.487949,79.8840446 L144.55,75.7827178 C144.55,75.6439752 144.571217,75.5469356 144.640474,75.5469356 C144.716536,75.5469356 144.778587,75.6367574 144.895882,75.7622673 C144.97875,75.8512871 146.030408,76.9816782 147.040433,77.9857574 C147.511217,78.4569208 148.444779,79.4549851 148.562876,79.5660594 L148.596904,79.5660594 L148.528047,76.4543762 C148.520842,76.0317327 148.458791,75.9006089 148.292655,75.8304356 C148.188971,75.7895347 148.022835,75.7895347 147.925956,75.7895347 C147.843489,75.7895347 147.815466,75.7682822 147.815466,75.7269802 C147.815466,75.6720446 147.891528,75.6644257 147.995212,75.6644257 C148.355106,75.6644257 148.686977,75.6852772 148.832296,75.6852772 C148.908358,75.6852772 149.171773,75.6644257 149.510449,75.6644257 C149.600123,75.6644257 149.669379,75.6720446 149.669379,75.7269802 C149.669379,75.7682822 149.627745,75.7895347 149.544877,75.7895347 C149.475621,75.7895347 149.420376,75.7895347 149.337108,75.8099851 C149.14375,75.8657228 149.088505,76.0112822 149.081299,76.3990396 L149.005237,80.7706337 C149.005237,80.9234109 148.977614,80.9859653 148.915163,80.9859653 C148.839101,80.9859653 148.756234,80.9093762 148.679771,80.8331881 C148.244616,80.4173614 147.359093,79.5103218 146.639706,78.7961584 C145.88549,78.0483119 145.117263,77.1821733 144.993162,77.0506485 L144.971944,77.0506485 L145.048007,79.9598317" id="Fill-6" fill="#92927C"></path>
                    <path d="M153.086168,77.6745891 C153.086168,76.6211881 153.086168,76.4263069 153.072557,76.2053614 C153.058546,75.9687772 153.003301,75.858505 152.775114,75.8099851 C152.719469,75.7967525 152.601773,75.7895347 152.505294,75.7895347 C152.429232,75.7895347 152.387198,75.7755 152.387198,75.7269802 C152.387198,75.6784604 152.435637,75.6644257 152.539722,75.6644257 C152.906021,75.6644257 153.341977,75.6852772 153.536136,75.6852772 C153.757516,75.6852772 155.13384,75.6852772 155.265147,75.6784604 C155.396454,75.6644257 155.507345,75.6507921 155.56259,75.6367574 C155.597418,75.6299406 155.638652,75.6094901 155.67348,75.6094901 C155.707908,75.6094901 155.715114,75.6367574 155.715114,75.6720446 C155.715114,75.7197624 155.679886,75.8027673 155.659469,76.1215545 C155.652663,76.1913267 155.638652,76.4968812 155.624641,76.5790842 C155.617835,76.6143713 155.604224,76.6548713 155.555384,76.6548713 C155.507345,76.6548713 155.493333,76.6211881 155.493333,76.5586337 C155.493333,76.5101139 155.486528,76.3926238 155.4521,76.3088168 C155.40326,76.1837079 155.334404,76.101104 154.988521,76.059 C154.870425,76.0457673 154.144232,76.0317327 154.006119,76.0317327 C153.971691,76.0317327 153.95768,76.0525842 153.95768,76.101104 L153.95768,77.8542327 C153.95768,77.9035545 153.964886,77.9308218 154.006119,77.9308218 C154.158243,77.9308218 154.953693,77.9308218 155.113023,77.9167871 C155.279158,77.9035545 155.382443,77.8815 155.445294,77.8125297 C155.493333,77.7567921 155.521356,77.7223069 155.555384,77.7223069 C155.583807,77.7223069 155.604224,77.7367426 155.604224,77.7780446 C155.604224,77.8197475 155.569395,77.9308218 155.548979,78.2840941 C155.534967,78.4224356 155.521356,78.6999208 155.521356,78.7484406 C155.521356,78.8033762 155.521356,78.8791634 155.458505,78.8791634 C155.410466,78.8791634 155.396454,78.852698 155.396454,78.8174109 C155.389248,78.7484406 155.389248,78.6574158 155.368832,78.5675941 C155.334404,78.4288515 155.237124,78.3245941 154.981716,78.2973267 C154.850408,78.2840941 154.165449,78.2768762 153.999314,78.2768762 C153.964886,78.2768762 153.95768,78.3045446 153.95768,78.3466485 L153.95768,78.893198 C153.95768,79.1289802 153.950874,79.7665545 153.95768,79.9678515 C153.971691,80.4454307 154.082181,80.5496881 154.787958,80.5496881 C154.967704,80.5496881 155.257941,80.5496881 155.438088,80.4658812 C155.617835,80.3836782 155.701103,80.2373168 155.749943,79.9538168 C155.763154,79.8776287 155.777165,79.8495594 155.825204,79.8495594 C155.88125,79.8495594 155.88125,79.905297 155.88125,79.9742673 C155.88125,80.1338614 155.825204,80.6054257 155.790776,80.7441683 C155.742737,80.9234109 155.679886,80.9234109 155.417672,80.9234109 C154.372819,80.9234109 153.90924,80.8817079 153.500907,80.8817079 C153.341977,80.8817079 152.906021,80.9029604 152.629796,80.9029604 C152.539722,80.9029604 152.491283,80.8817079 152.491283,80.8331881 C152.491283,80.798703 152.518505,80.7782525 152.601773,80.7782525 C152.705858,80.7782525 152.788725,80.7642178 152.850776,80.7509851 C152.989289,80.7229158 153.023717,80.5701386 153.05134,80.3696436 C153.086168,80.0781238 153.086168,79.5307723 153.086168,78.893198 L153.086168,77.6745891" id="Fill-7" fill="#92927C"></path>
                    <path d="M14.3268954,67.1862921 C14.3268954,67.6783069 14.3068791,67.714797 14.066683,67.8419109 C12.7664216,68.4622426 10.8052206,68.6619356 9.24434641,68.6619356 C4.34194444,68.6619356 0,66.5487178 0,61.521505 C0,58.6067079 1.66055556,56.5664703 3.48124183,55.564797 C5.40241013,54.5081881 7.18346405,54.3802723 8.86443627,54.3802723 C10.2447631,54.3802723 12.0054003,54.5988119 12.4057271,54.6717921 C12.8260703,54.7455743 13.5266422,54.8542426 13.9866176,54.8722871 C14.2268137,54.8903317 14.2668464,54.9641139 14.2668464,55.0908267 C14.2668464,55.2913218 14.126732,55.8009802 14.126732,58.077802 C14.126732,58.3701238 14.066683,58.4607475 13.9065523,58.4607475 C13.7668382,58.4607475 13.7264052,58.3701238 13.7063889,58.2241634 C13.6467402,57.8047277 13.5466585,57.2224901 13.0262337,56.7120297 C12.4257435,56.1285891 10.8252369,55.2913218 8.56419118,55.2913218 C7.46369281,55.2913218 6.00290033,55.364302 4.60215686,56.4213119 C3.48124183,57.2766238 2.76105392,58.643198 2.76105392,60.8839307 C2.76105392,64.8 5.50249183,67.7328416 9.72473856,67.7328416 C10.2447631,67.7328416 10.945335,67.7328416 11.4257271,67.5331485 C11.7255719,67.4048317 11.8052369,67.1682475 11.8052369,66.8582822 L11.8052369,65.1460545 C11.8052369,64.2362079 11.8052369,63.542896 11.7852206,62.9971485 C11.7656046,62.3776188 11.5854575,62.085297 10.9249183,61.9585842 C10.7655882,61.9216931 10.4249101,61.9036485 10.1450817,61.9036485 C9.96493464,61.9036485 9.8448366,61.8667574 9.8448366,61.7580891 C9.8448366,61.6125297 9.98455065,61.5764406 10.2651797,61.5764406 C11.3052288,61.5764406 12.5662582,61.6309752 13.166348,61.6309752 C13.7868546,61.6309752 14.8473203,61.5764406 15.5074592,61.5764406 C15.7676716,61.5764406 15.9077859,61.6125297 15.9077859,61.7580891 C15.9077859,61.8667574 15.7872876,61.9036485 15.6475735,61.9036485 C15.4874428,61.9036485 15.3473284,61.9216931 15.1071324,61.9585842 C14.5670915,62.0492079 14.3669281,62.3587723 14.3469118,62.9971485 C14.3268954,63.542896 14.3268954,64.271896 14.3268954,65.1821436 L14.3268954,67.1862921" id="Fill-8" fill="#92927C"></path>
                    <path d="M42.7112663,62.7417178 L39.0298611,62.7417178 C38.9501961,62.7417178 38.9297794,62.6867822 38.9501961,62.614203 L40.7908987,58.1327376 C40.8105147,58.0605594 40.8509477,57.9691337 40.9105964,57.9691337 C40.9710458,57.9691337 40.9910621,58.0605594 41.0106781,58.1327376 L42.8117484,62.6322475 C42.8317647,62.6867822 42.8117484,62.7417178 42.7112663,62.7417178 Z M26.3479085,61.5575941 C25.9876144,61.7949802 25.7278023,61.8667574 24.927549,61.8667574 C24.4271405,61.8667574 23.8270507,61.8130248 23.4067075,61.6851089 C23.2665931,61.6309752 23.2265605,61.5575941 23.2265605,61.357901 L23.2265605,55.8190248 C23.2265605,55.6742673 23.2665931,55.6004851 23.4067075,55.564797 C23.6068709,55.5098614 23.9667647,55.4918168 24.4671732,55.4918168 C25.6477369,55.4918168 27.5288725,56.2380594 27.5288725,58.8248465 C27.5288725,60.3185347 26.9483987,61.156604 26.3479085,61.5575941 Z M49.4751879,68.080099 C49.2345915,68.080099 48.9343464,68.0612525 48.6345016,68.0055149 C48.2145588,67.9152921 47.6336846,67.6602624 46.8738644,66.0210149 C45.593219,63.2521782 42.3918056,55.8190248 41.9110131,54.8173515 C41.71125,54.3991188 41.591152,54.2347129 41.4110049,54.2347129 C41.2108415,54.2347129 41.0911438,54.4352079 40.8509477,54.9641139 L35.8284477,66.4039604 C35.4281209,67.3138069 35.0478105,67.9333366 34.1274592,68.0424059 C34.0994363,68.0456139 34.0642075,68.0484208 34.0301797,68.0520297 C33.9661275,68.0440099 33.9036765,68.0367921 33.8316176,68.0251634 C33.5317729,67.9702277 32.7111029,67.8419109 31.5905882,66.786104 C30.4100245,65.6569158 29.0296977,64.0349109 27.2482435,61.9946733 C29.2694935,60.5009851 29.89,59.2619257 29.89,57.914198 C29.89,56.6939851 29.0893464,55.7652921 28.5292892,55.4188366 C27.4484069,54.7455743 26.1081127,54.635703 24.8470833,54.635703 C24.2269771,54.635703 22.7065359,54.6906386 22.0259804,54.6906386 C21.6060376,54.6906386 20.3450082,54.635703 19.2845425,54.635703 C18.9846977,54.635703 18.844183,54.6717921 18.844183,54.7993069 C18.844183,54.9272228 18.964281,54.9641139 19.1848611,54.9641139 C19.4646895,54.9641139 19.8049673,54.9813564 19.9646977,55.0178465 C20.6248366,55.1457624 20.7853676,55.4368812 20.825,56.0564109 C20.865433,56.6398515 20.865433,57.1491089 20.865433,59.9183465 L20.865433,63.1238614 C20.865433,64.8 20.865433,66.2395545 20.7653513,67.0046436 C20.6856863,67.5331485 20.5852042,67.9333366 20.1848775,68.0055149 C20.0051307,68.0424059 19.7649346,68.080099 19.4646895,68.080099 C19.2244935,68.080099 19.1444281,68.1338317 19.1444281,68.2248564 C19.1444281,68.3523713 19.2845425,68.4073069 19.5447549,68.4073069 C20.3450082,68.4073069 21.6060376,68.3523713 21.9859477,68.3523713 C22.2861928,68.3523713 23.7666013,68.4073069 24.927549,68.4073069 C25.1877614,68.4073069 25.3274755,68.3523713 25.3274755,68.2248564 C25.3274755,68.1338317 25.2474101,68.080099 25.0872794,68.080099 C24.8470833,68.080099 24.4071242,68.0424059 24.1072794,68.0055149 C23.5067892,67.9333366 23.3866912,67.5331485 23.3266422,67.0046436 C23.2265605,66.2395545 23.2265605,64.8 23.2265605,63.1058168 L23.2265605,62.8507871 C23.2265605,62.7417178 23.2866095,62.7048267 23.3866912,62.7048267 L25.1277124,62.7417178 C25.2674265,62.7417178 25.3879248,62.7597624 25.4876062,62.8700347 C25.7474183,63.1427079 26.6681699,64.3809653 27.4684232,65.3834406 C28.5893382,66.786104 29.3491585,67.6422178 30.2098611,68.0612525 C30.7302859,68.3154802 31.2306944,68.4073069 32.3508088,68.4073069 L34.2519608,68.4073069 C34.3124101,68.4073069 34.3668546,68.404901 34.4140931,68.3988861 C35.177116,68.3832475 35.8428595,68.3523713 36.0085948,68.3523713 C36.628701,68.3523713 37.4890033,68.4073069 38.1295261,68.4073069 C38.3497059,68.4073069 38.4698039,68.3704158 38.4698039,68.2248564 C38.4698039,68.1157871 38.4093546,68.080099 38.1695588,68.080099 L37.8697141,68.080099 C37.2492075,68.080099 37.0690605,67.8419109 37.0690605,67.514302 C37.0690605,67.2949604 37.1691422,66.8582822 37.3693056,66.4039604 L38.4493873,63.7991287 C38.4894199,63.6892574 38.5298529,63.6527673 38.6295343,63.6527673 L43.0919771,63.6527673 C43.1920588,63.6527673 43.2521078,63.6892574 43.2921405,63.7802822 L44.8926471,67.6422178 C44.9931291,67.8607574 44.8526144,68.0251634 44.7125,68.0612525 C44.5123366,68.080099 44.4322712,68.1157871 44.4322712,68.2248564 C44.4322712,68.3523713 44.6724673,68.3523713 45.0327614,68.3704158 C46.6336683,68.4073069 48.0940605,68.4073069 48.815049,68.4073069 C49.5548529,68.4073069 49.735,68.3704158 49.735,68.2248564 C49.735,68.0969406 49.6349183,68.080099 49.4751879,68.080099 L49.4751879,68.080099 Z" id="Fill-9" fill="#92927C"></path>
                    <path d="M54.7534967,65.9291881 C54.7939297,67.349896 55.0537418,67.8238663 55.4536683,67.9513812 C55.7943464,68.0612525 56.1742565,68.080099 56.494518,68.080099 C56.7146977,68.080099 56.8347958,68.1157871 56.8347958,68.2248564 C56.8347958,68.3704158 56.6546487,68.4073069 56.3744199,68.4073069 C55.0737582,68.4073069 54.2731046,68.3523713 53.8931944,68.3523713 C53.7134477,68.3523713 52.7726797,68.4073069 51.7322304,68.4073069 C51.472018,68.4073069 51.2918709,68.3892624 51.2918709,68.2248564 C51.2918709,68.1157871 51.411969,68.080099 51.6121324,68.080099 C51.8723448,68.080099 52.2326389,68.0612525 52.5124673,67.9882723 C53.0332925,67.8419109 53.1129575,67.3138069 53.1329739,65.729495 L53.3131209,54.9452673 C53.3131209,54.5807673 53.3727696,54.3257376 53.572933,54.3257376 C53.7931127,54.3257376 53.9732598,54.5631238 54.3135376,54.8903317 C54.5533333,55.1277178 57.5950163,58.0966485 60.5166013,60.7375693 C61.8769118,61.9766287 64.578317,64.599505 64.9185948,64.8914257 L65.0186765,64.8914257 L64.8185131,56.7120297 C64.7984967,55.6004851 64.6183497,55.2544307 64.1383578,55.0727822 C63.8381127,54.9641139 63.3581209,54.9641139 63.0774918,54.9641139 C62.8376961,54.9641139 62.7576307,54.9091782 62.7576307,54.7993069 C62.7576307,54.6537475 62.9774101,54.635703 63.2776552,54.635703 C64.3181046,54.635703 65.2784886,54.6906386 65.6988317,54.6906386 C65.9190114,54.6906386 66.6796324,54.635703 67.6600327,54.635703 C67.9198448,54.635703 68.1200082,54.6537475 68.1200082,54.7993069 C68.1200082,54.9091782 67.9999101,54.9641139 67.7601144,54.9641139 C67.559951,54.9641139 67.3998203,54.9641139 67.1600245,55.0178465 C66.5991667,55.1638069 66.4394363,55.5467525 66.4190196,56.5664703 L66.1988399,68.0612525 C66.1988399,68.4622426 66.1191748,68.6258465 65.9390278,68.6258465 C65.718848,68.6258465 65.478652,68.4253515 65.2588725,68.2248564 C63.9982435,67.1313564 61.4369526,64.7450644 59.3560539,62.8700347 C57.1746732,60.9011733 54.9536601,58.6243515 54.5937663,58.279099 L54.5337173,58.279099 L54.7534967,65.9291881" id="Fill-10" fill="#92927C"></path>
                    <path d="M76.1193382,61.9216931 C76.1193382,63.8532624 76.1389542,65.2559257 76.1589706,65.6019802 C76.1789869,66.057104 76.2194199,66.786104 76.3791503,66.985797 C76.6393627,67.3326535 77.4195997,67.714797 79.0004902,67.714797 C81.0413562,67.714797 82.402067,67.349896 83.6026471,66.4039604 C84.8828922,65.4006832 85.283219,63.7441931 85.283219,61.8667574 C85.283219,59.5542475 84.2227533,58.0605594 83.362451,57.3135149 C81.521348,55.7103564 79.2402859,55.4918168 77.6794118,55.4918168 C77.2794853,55.4918168 76.5388807,55.5467525 76.3791503,55.6193317 C76.1990033,55.6915099 76.1389542,55.7833366 76.1389542,55.9842327 C76.1193382,56.6029604 76.1193382,58.1876733 76.1193382,59.6268267 L76.1193382,61.9216931 Z M73.6180964,59.9183465 C73.6180964,57.1491089 73.6180964,56.6398515 73.5776634,56.0564109 C73.5376307,55.4368812 73.3775,55.1457624 72.7173611,55.0178465 C72.5572304,54.9813564 72.2173529,54.9641139 71.9367239,54.9641139 C71.7169444,54.9641139 71.5968464,54.9272228 71.5968464,54.7993069 C71.5968464,54.6717921 71.7369608,54.635703 72.0368056,54.635703 C73.0976716,54.635703 74.3583007,54.6906386 74.9183578,54.6906386 C75.5384641,54.6906386 76.7994935,54.635703 78.0000735,54.635703 C80.5013154,54.635703 83.8428431,54.635703 86.0238235,56.7120297 C87.0242402,57.6595693 87.9646078,59.171302 87.9646078,61.3390545 C87.9646078,63.6347228 86.9041422,65.3834406 85.7832271,66.421203 C84.8628758,67.2781188 82.7819771,68.5709109 79.0805556,68.5709109 C77.6197631,68.5709109 75.8190931,68.3523713 74.8186765,68.3523713 C74.3583007,68.3523713 73.0976716,68.4073069 72.2974183,68.4073069 C72.0368056,68.4073069 71.8970915,68.3523713 71.8970915,68.2248564 C71.8970915,68.1338317 71.9771569,68.080099 72.2173529,68.080099 C72.517598,68.080099 72.7573938,68.0424059 72.9371405,68.0055149 C73.3374673,67.9333366 73.4379493,67.5331485 73.5180147,67.0046436 C73.6180964,66.2395545 73.6180964,64.8 73.6180964,63.1238614 L73.6180964,59.9183465 L73.6180964,59.9183465 Z" id="Fill-11" fill="#92927C"></path>
                    <path d="M110.008603,60.428005 C110.068652,60.428005 110.129101,60.3923168 110.129101,60.3004901 L110.129101,59.9183465 C110.129101,57.1491089 110.129101,56.6398515 110.089069,56.0564109 C110.048636,55.4368812 109.888905,55.1457624 109.228766,55.0178465 C109.068235,54.9813564 108.728358,54.9641139 108.447729,54.9641139 C108.227949,54.9641139 108.108252,54.9272228 108.108252,54.7993069 C108.108252,54.6717921 108.247565,54.635703 108.528595,54.635703 C109.608676,54.635703 110.868905,54.6906386 111.409747,54.6906386 C111.889739,54.6906386 113.150368,54.635703 113.931005,54.635703 C114.210833,54.635703 114.351348,54.6717921 114.351348,54.7993069 C114.351348,54.9272228 114.23085,54.9641139 113.990654,54.9641139 C113.830523,54.9641139 113.650776,54.9813564 113.41058,55.0178465 C112.870139,55.1088713 112.710008,55.4188366 112.669975,56.0564109 C112.630343,56.6398515 112.630343,57.1491089 112.630343,59.9183465 L112.630343,63.1238614 C112.630343,64.8 112.630343,66.2395545 112.730025,67.0226881 C112.790474,67.5331485 112.910172,67.9333366 113.510662,68.0055149 C113.79049,68.0424059 114.23085,68.080099 114.531095,68.080099 C114.751275,68.080099 114.851356,68.1338317 114.851356,68.2248564 C114.851356,68.3523713 114.690825,68.4073069 114.451029,68.4073069 C113.150368,68.4073069 111.889739,68.3523713 111.329681,68.3523713 C110.868905,68.3523713 109.608676,68.4073069 108.82844,68.4073069 C108.548211,68.4073069 108.408096,68.3523713 108.408096,68.2248564 C108.408096,68.1338317 108.488162,68.080099 108.728358,68.080099 C109.028603,68.080099 109.268399,68.0424059 109.448546,68.0055149 C109.848873,67.9333366 109.948554,67.5331485 110.02902,67.0046436 C110.129101,66.2395545 110.129101,64.8 110.129101,63.1238614 L110.129101,61.521505 C110.129101,61.4485248 110.068652,61.4128366 110.008603,61.4128366 L102.365163,61.4128366 C102.305114,61.4128366 102.245065,61.4300792 102.245065,61.521505 L102.245065,63.1238614 C102.245065,64.8 102.245065,66.2395545 102.345147,67.0226881 C102.405196,67.5331485 102.525294,67.9333366 103.125784,68.0055149 C103.406013,68.0424059 103.845972,68.080099 104.145817,68.080099 C104.365997,68.080099 104.466078,68.1338317 104.466078,68.2248564 C104.466078,68.3523713 104.306348,68.4073069 104.066152,68.4073069 C102.76549,68.4073069 101.504861,68.3523713 100.944404,68.3523713 C100.484428,68.3523713 99.2233987,68.4073069 98.4231454,68.4073069 C98.162933,68.4073069 98.0228186,68.3523713 98.0228186,68.2248564 C98.0228186,68.1338317 98.1032843,68.080099 98.3430801,68.080099 C98.6433252,68.080099 98.8835212,68.0424059 99.0636683,68.0055149 C99.4635948,67.9333366 99.5640768,67.5331485 99.6437418,67.0046436 C99.7438235,66.2395545 99.7438235,64.8 99.7438235,63.1238614 L99.7438235,59.9183465 C99.7438235,57.1491089 99.7438235,56.6398515 99.7037908,56.0564109 C99.6637582,55.4368812 99.5040278,55.1457624 98.8434886,55.0178465 C98.6833578,54.9813564 98.3430801,54.9641139 98.0628513,54.9641139 C97.8426716,54.9641139 97.7225735,54.9272228 97.7225735,54.7993069 C97.7225735,54.6717921 97.8630882,54.635703 98.1429167,54.635703 C99.2233987,54.635703 100.484428,54.6906386 101.024069,54.6906386 C101.504861,54.6906386 102.76549,54.635703 103.545727,54.635703 C103.826356,54.635703 103.96567,54.6717921 103.96567,54.7993069 C103.96567,54.9272228 103.845972,54.9641139 103.605776,54.9641139 C103.445645,54.9641139 103.265498,54.9813564 103.025703,55.0178465 C102.485261,55.1088713 102.325131,55.4188366 102.285098,56.0564109 C102.245065,56.6398515 102.245065,57.1491089 102.245065,59.9183465 L102.245065,60.3004901 C102.245065,60.3923168 102.305114,60.428005 102.365163,60.428005 L110.008603,60.428005" id="Fill-12" fill="#92927C"></path>
                    <path d="M131.093415,61.8667574 C131.093415,57.7874851 128.512508,55.2544307 125.230629,55.2544307 C122.92915,55.2544307 120.308211,56.4213119 120.308211,60.9561089 C120.308211,64.7450644 122.608889,67.7516881 126.450825,67.7516881 C127.851969,67.7516881 131.093415,67.1313564 131.093415,61.8667574 Z M117.546757,61.521505 C117.546757,58.4062129 119.807802,54.3802723 125.811103,54.3802723 C130.79317,54.3802723 133.894902,57.021995 133.894902,61.194297 C133.894902,65.365396 130.693088,68.6619356 125.610539,68.6619356 C119.868252,68.6619356 117.546757,64.7450644 117.546757,61.521505 L117.546757,61.521505 Z" id="Fill-13" fill="#92927C"></path>
                    <path d="M141.613603,55.6554208 L138.632369,55.728401 C137.471422,55.7652921 136.99143,55.8559158 136.691185,56.2569059 C136.491021,56.5303812 136.39134,56.7489208 136.351708,56.8944802 C136.310874,57.0400396 136.251225,57.1130198 136.131528,57.1130198 C135.991013,57.1130198 135.951381,57.021995 135.951381,56.8215 C135.951381,56.5303812 136.331291,54.8722871 136.370923,54.7267277 C136.431373,54.4901436 136.491021,54.3802723 136.61152,54.3802723 C136.77125,54.3802723 136.971814,54.5631238 137.471422,54.5988119 C138.052296,54.6537475 138.812516,54.6906386 139.472655,54.6906386 L147.395923,54.6906386 C148.036846,54.6906386 148.477206,54.635703 148.777051,54.5988119 C149.077296,54.5442772 149.237426,54.5081881 149.317492,54.5081881 C149.457606,54.5081881 149.477623,54.6176584 149.477623,54.8903317 C149.477623,55.2732772 149.417574,56.5303812 149.417574,57.0039505 C149.397157,57.186 149.357525,57.2954703 149.237426,57.2954703 C149.077296,57.2954703 149.037263,57.2036436 149.017247,56.9305693 L148.99683,56.7308762 C148.957198,56.2569059 148.416757,55.7464455 146.636503,55.7103564 L144.114845,55.6554208 L144.114845,63.1238614 C144.114845,64.8 144.114845,66.2395545 144.215327,67.0226881 C144.274975,67.5331485 144.394673,67.9333366 144.995163,68.0055149 C145.275792,68.0424059 145.715752,68.080099 146.015997,68.080099 C146.236176,68.080099 146.335858,68.1338317 146.335858,68.2248564 C146.335858,68.3523713 146.176127,68.4073069 145.955948,68.4073069 C144.63527,68.4073069 143.375041,68.3523713 142.814183,68.3523713 C142.354608,68.3523713 141.093178,68.4073069 140.292925,68.4073069 C140.032712,68.4073069 139.892598,68.3523713 139.892598,68.2248564 C139.892598,68.1338317 139.973064,68.080099 140.212859,68.080099 C140.513105,68.080099 140.753301,68.0424059 140.933448,68.0055149 C141.333775,67.9333366 141.453873,67.5331485 141.513922,67.0046436 C141.613603,66.2395545 141.613603,64.8 141.613603,63.1238614 L141.613603,55.6554208" id="Fill-14" fill="#92927C"></path>
                    <path d="M154.176658,59.9183465 C154.176658,57.1491089 154.176658,56.6398515 154.136626,56.0564109 C154.096193,55.4368812 153.936062,55.1457624 153.275923,55.0178465 C153.116593,54.9813564 152.775515,54.9641139 152.496087,54.9641139 C152.275907,54.9641139 152.155408,54.9272228 152.155408,54.7993069 C152.155408,54.6717921 152.295523,54.635703 152.595368,54.635703 C153.655833,54.635703 154.917263,54.6906386 155.47692,54.6906386 C156.117843,54.6906386 160.099894,54.6906386 160.479404,54.6717921 C160.859314,54.635703 161.179975,54.5988119 161.339706,54.5631238 C161.440188,54.5442772 161.559485,54.4901436 161.659967,54.4901436 C161.760049,54.4901436 161.779665,54.5631238 161.779665,54.6537475 C161.779665,54.7812624 161.680384,54.999802 161.620335,55.8378713 C161.600319,56.0195198 161.559485,56.8215 161.519853,57.0400396 C161.500237,57.1318663 161.460204,57.2405347 161.32009,57.2405347 C161.179975,57.2405347 161.139943,57.1491089 161.139943,56.985505 C161.139943,56.8583911 161.119526,56.5484257 161.020245,56.3298861 C160.87973,56.0014752 160.679167,55.7833366 159.67915,55.6742673 C159.338873,55.6373762 157.237557,55.6004851 156.83723,55.6004851 C156.737949,55.6004851 156.697917,55.6554208 156.697917,55.7833366 L156.697917,60.3923168 C156.697917,60.5190297 156.717933,60.5928119 156.83723,60.5928119 C157.27759,60.5928119 159.579069,60.5928119 160.039044,60.5559208 C160.519837,60.5190297 160.819681,60.4640941 160.999828,60.2824455 C161.139943,60.1368861 161.220008,60.0458614 161.32009,60.0458614 C161.400155,60.0458614 161.460204,60.0819505 161.460204,60.1910198 C161.460204,60.3004901 161.359722,60.5928119 161.299673,61.521505 C161.259641,61.885604 161.220008,62.614203 161.220008,62.7417178 C161.220008,62.8872772 161.220008,63.0885743 161.039861,63.0885743 C160.899346,63.0885743 160.859314,63.0143911 160.859314,62.9241683 C160.839698,62.7417178 160.839698,62.5051337 160.779649,62.2677475 C160.679167,61.9036485 160.399739,61.6309752 159.659534,61.5575941 C159.278824,61.521505 157.298007,61.5034604 156.818015,61.5034604 C156.717933,61.5034604 156.697917,61.5764406 156.697917,61.6851089 L156.697917,63.1238614 C156.697917,63.7441931 156.6779,65.4203317 156.697917,65.9480347 C156.737949,67.2043366 157.05741,67.4778119 159.098676,67.4778119 C159.619101,67.4778119 160.458987,67.4778119 160.980212,67.2592723 C161.500237,67.0407327 161.740033,66.6585891 161.880147,65.9119455 C161.92018,65.7106485 161.959812,65.6388713 162.100327,65.6388713 C162.260458,65.6388713 162.260458,65.7844307 162.260458,65.9660792 C162.260458,66.3851139 162.100327,67.6233713 162.000645,67.9882723 C161.860131,68.4622426 161.680384,68.4622426 160.919763,68.4622426 C157.898096,68.4622426 156.557802,68.3523713 155.377639,68.3523713 C154.917263,68.3523713 153.655833,68.4073069 152.85598,68.4073069 C152.595368,68.4073069 152.456054,68.3523713 152.456054,68.2248564 C152.456054,68.1338317 152.535719,68.080099 152.775515,68.080099 C153.07616,68.080099 153.316356,68.0424059 153.496103,68.0055149 C153.89643,67.9333366 153.996511,67.5331485 154.076577,67.0046436 C154.176658,66.2395545 154.176658,64.8 154.176658,63.1238614 L154.176658,59.9183465" id="Fill-15" fill="#92927C"></path>
                    <path d="M171.200155,63.1238614 C171.200155,65.4556188 171.200155,66.7131238 171.620899,67.0407327 C171.960776,67.3138069 172.481201,67.4417228 174.041675,67.4417228 C175.102141,67.4417228 175.882778,67.4236782 176.383186,66.9316634 C176.622582,66.6942772 176.863178,66.1846188 176.90281,65.8385644 C176.922827,65.6741584 176.96326,65.5650891 177.12299,65.5650891 C177.263505,65.5650891 177.283121,65.6569158 177.283121,65.8750545 C177.283121,66.0755495 177.143007,67.4417228 176.983276,67.9702277 C176.863178,68.3704158 176.763096,68.4622426 175.722647,68.4622426 C172.841095,68.4622426 171.520417,68.3523713 169.899894,68.3523713 C169.439518,68.3523713 168.178889,68.4073069 167.378636,68.4073069 C167.118023,68.4073069 166.978309,68.3523713 166.978309,68.2248564 C166.978309,68.1338317 167.058374,68.080099 167.29817,68.080099 C167.598815,68.080099 167.838611,68.0424059 168.018758,68.0055149 C168.418685,67.9333366 168.519167,67.5331485 168.598832,67.0046436 C168.699314,66.2395545 168.699314,64.8 168.699314,63.1238614 L168.699314,59.9183465 C168.699314,57.1491089 168.699314,56.6398515 168.659281,56.0564109 C168.618848,55.4368812 168.459118,55.1457624 167.798578,55.0178465 C167.638848,54.9813564 167.398252,54.9641139 167.13844,54.9641139 C166.91826,54.9641139 166.798162,54.9272228 166.798162,54.7993069 C166.798162,54.6717921 166.938676,54.635703 167.238521,54.635703 C168.178889,54.635703 169.439518,54.6906386 169.979959,54.6906386 C170.460351,54.6906386 171.920743,54.635703 172.70098,54.635703 C172.981609,54.635703 173.121324,54.6717921 173.121324,54.7993069 C173.121324,54.9272228 173.000825,54.9641139 172.76143,54.9641139 C172.54125,54.9641139 172.220588,54.9813564 171.980392,55.0178465 C171.440752,55.1088713 171.280221,55.4188366 171.240188,56.0564109 C171.200155,56.6398515 171.200155,57.1491089 171.200155,59.9183465 L171.200155,63.1238614" id="Fill-16" fill="#92927C"></path>
                    <path d="M190.644428,60.7195248 L190.74451,60.7195248 C191.425065,60.0458614 194.34665,57.3315594 194.926324,56.7120297 C195.486781,56.1113465 195.927141,55.6554208 195.927141,55.3462574 C195.927141,55.1457624 195.847475,55.0178465 195.646912,54.9813564 C195.466765,54.9452673 195.386699,54.9091782 195.386699,54.7993069 C195.386699,54.6717921 195.486781,54.635703 195.706961,54.635703 C196.126904,54.635703 197.227402,54.6906386 197.767843,54.6906386 C198.387949,54.6906386 199.488448,54.635703 200.108954,54.635703 C200.309518,54.635703 200.448832,54.6717921 200.448832,54.7993069 C200.448832,54.9272228 200.349551,54.9641139 200.148987,54.9641139 C199.869559,54.9641139 199.36915,55.0358911 198.988039,55.1638069 C198.367933,55.3823465 197.687778,55.7652921 196.827075,56.5303812 C196.206969,57.0769307 193.185703,59.8088762 192.505147,60.4640941 C193.225735,61.3210099 197.147737,65.164901 197.927574,65.8385644 C198.808693,66.6036535 199.708627,67.4236782 200.78951,67.8066238 C201.3896,68.0251634 201.789926,68.080099 202.030123,68.080099 C202.169837,68.080099 202.290335,68.1157871 202.290335,68.2248564 C202.290335,68.3523713 202.190253,68.4073069 201.809943,68.4073069 L200.069322,68.4073069 C199.469232,68.4073069 199.108538,68.4073069 198.688194,68.3704158 C197.608113,68.2797921 197.067672,67.878802 196.206969,67.1862921 C195.32665,66.4761386 191.385033,62.2677475 190.964289,61.7400446 L190.74451,61.4665693 L190.644428,61.4665693 L190.644428,63.1238614 C190.644428,64.8 190.644428,66.2395545 190.704477,67.0226881 C190.74451,67.5331485 190.924657,67.9333366 191.425065,68.0055149 C191.704894,68.0424059 192.145253,68.080099 192.405466,68.080099 C192.565596,68.080099 192.665678,68.1338317 192.665678,68.2248564 C192.665678,68.3523713 192.505147,68.4073069 192.284967,68.4073069 C191.164853,68.4073069 189.903824,68.3523713 189.404216,68.3523713 C188.94384,68.3523713 187.68281,68.4073069 186.882958,68.4073069 C186.622345,68.4073069 186.482631,68.3523713 186.482631,68.2248564 C186.482631,68.1338317 186.562296,68.080099 186.802492,68.080099 C187.103137,68.080099 187.342933,68.0424059 187.52308,68.0055149 C187.923407,67.9333366 188.023489,67.5331485 188.103154,67.0046436 C188.203636,66.2395545 188.203636,64.8 188.203636,63.1238614 L188.203636,59.9183465 C188.203636,57.1491089 188.203636,56.6398515 188.163203,56.0564109 C188.12317,55.4368812 187.963039,55.1457624 187.3029,55.0178465 C187.14317,54.9813564 186.802492,54.9641139 186.522663,54.9641139 C186.302484,54.9641139 186.181985,54.9272228 186.181985,54.7993069 C186.181985,54.6717921 186.3225,54.635703 186.622345,54.635703 C187.68281,54.635703 188.94384,54.6906386 189.423832,54.6906386 C189.903824,54.6906386 191.164853,54.635703 191.845008,54.635703 C192.125237,54.635703 192.265351,54.6717921 192.265351,54.7993069 C192.265351,54.9272228 192.145253,54.9641139 191.985123,54.9641139 C191.785359,54.9641139 191.664861,54.9813564 191.425065,55.0178465 C190.884624,55.1088713 190.724894,55.4188366 190.68406,56.0564109 C190.644428,56.6398515 190.644428,57.1491089 190.644428,59.9183465 L190.644428,60.7195248" id="Fill-17" fill="#92927C"></path>
                    <path d="M207.80884,63.6892574 C207.80884,62.7048267 207.608276,62.3046386 207.348064,61.7761337 C207.20875,61.4846139 204.52656,57.4771188 203.826389,56.5303812 C203.32598,55.8559158 202.825972,55.4007921 202.445662,55.199495 C202.18585,55.0727822 201.845572,54.9641139 201.605376,54.9641139 C201.445245,54.9641139 201.305531,54.9272228 201.305531,54.7993069 C201.305531,54.6906386 201.445245,54.635703 201.685842,54.635703 C202.045335,54.635703 203.54616,54.6906386 204.2071,54.6906386 C204.627042,54.6906386 205.446912,54.635703 206.347647,54.635703 C206.54741,54.635703 206.647892,54.6906386 206.647892,54.7993069 C206.647892,54.9091782 206.507778,54.9272228 206.207933,54.999802 C206.027386,55.0358911 205.927704,55.1822525 205.927704,55.3282129 C205.927704,55.4729703 206.027386,55.6915099 206.1675,55.9469406 C206.448129,56.4934901 209.248815,60.8839307 209.569477,61.3939901 C209.769641,60.9561089 212.290498,56.9494158 212.570727,56.3848218 C212.771291,55.9842327 212.850956,55.6742673 212.850956,55.4368812 C212.850956,55.2544307 212.771291,55.0547376 212.430613,54.9813564 C212.250466,54.9452673 212.070319,54.9091782 212.070319,54.7993069 C212.070319,54.6717921 212.1704,54.635703 212.410997,54.635703 C213.071136,54.635703 213.711258,54.6906386 214.291732,54.6906386 C214.732092,54.6906386 216.052369,54.635703 216.43308,54.635703 C216.652859,54.635703 216.792574,54.6717921 216.792574,54.7812624 C216.792574,54.9091782 216.632843,54.9641139 216.412663,54.9641139 C216.2129,54.9641139 215.83259,55.0358911 215.532345,55.1822525 C215.112402,55.364302 214.892222,55.5828416 214.451863,56.0744554 C213.791324,56.8034554 210.990237,61.0844257 210.629943,61.8667574 C210.330098,62.5231782 210.330098,63.0885743 210.330098,63.6892574 L210.330098,65.1821436 C210.330098,65.4748663 210.330098,66.2395545 210.389346,67.0046436 C210.43018,67.5331485 210.609526,67.9333366 211.210417,68.0055149 C211.490645,68.0424059 211.931005,68.080099 212.210433,68.080099 C212.430613,68.080099 212.531095,68.1338317 212.531095,68.2248564 C212.531095,68.3523713 212.370964,68.4073069 212.111152,68.4073069 C210.849722,68.4073069 209.589894,68.3523713 209.049052,68.3523713 C208.548644,68.3523713 207.288415,68.4073069 206.54741,68.4073069 C206.267982,68.4073069 206.107451,68.3704158 206.107451,68.2248564 C206.107451,68.1338317 206.207933,68.080099 206.427712,68.080099 C206.708342,68.080099 206.947737,68.0424059 207.127884,68.0055149 C207.528211,67.9333366 207.708358,67.5331485 207.748391,67.0046436 C207.80884,66.2395545 207.80884,65.4748663 207.80884,65.1821436 L207.80884,63.6892574" id="Fill-18" fill="#92927C"></path>
                    <path d="M221.111299,59.9183465 C221.111299,57.1491089 221.111299,56.6398515 221.071667,56.0564109 C221.030833,55.4368812 220.83107,55.1277178 220.390711,55.0358911 C220.170931,54.9813564 219.910719,54.9641139 219.670523,54.9641139 C219.47076,54.9641139 219.350662,54.9272228 219.350662,54.7812624 C219.350662,54.6717921 219.510392,54.635703 219.830654,54.635703 C220.590474,54.635703 221.851904,54.6906386 222.431977,54.6906386 C222.931985,54.6906386 224.112949,54.635703 224.87357,54.635703 C225.133382,54.635703 225.293113,54.6717921 225.293113,54.7812624 C225.293113,54.9272228 225.173415,54.9641139 224.973252,54.9641139 C224.773489,54.9641139 224.612557,54.9813564 224.373162,55.0178465 C223.83232,55.1088713 223.67299,55.4188366 223.632557,56.0564109 C223.591724,56.6398515 223.591724,57.1491089 223.591724,59.9183465 L223.591724,63.1238614 C223.591724,64.8914257 223.591724,66.3301782 223.67299,67.1133119 C223.732239,67.6053267 223.872753,67.9333366 224.473243,68.0055149 C224.753072,68.0424059 225.193031,68.080099 225.492876,68.080099 C225.713056,68.080099 225.813137,68.1338317 225.813137,68.2248564 C225.813137,68.3523713 225.653407,68.4073069 225.433227,68.4073069 C224.112949,68.4073069 222.85192,68.3523713 222.311879,68.3523713 C221.851904,68.3523713 220.590474,68.4073069 219.790621,68.4073069 C219.530008,68.4073069 219.390294,68.3523713 219.390294,68.2248564 C219.390294,68.1338317 219.47076,68.080099 219.710155,68.080099 C220.010801,68.080099 220.250997,68.0424059 220.430743,68.0055149 C220.83107,67.9333366 220.951168,67.6233713 221.011217,67.0952673 C221.111299,66.3301782 221.111299,64.8914257 221.111299,63.1238614 L221.111299,59.9183465" id="Fill-19" fill="#92927C"></path>
                    <path d="M230.812819,56.4213119 C230.352843,55.4188366 230.012565,55.2183416 229.292377,55.0358911 C228.992533,54.9641139 228.672271,54.9641139 228.51174,54.9641139 C228.331993,54.9641139 228.271944,54.9091782 228.271944,54.7993069 C228.271944,54.6537475 228.492124,54.635703 228.791969,54.635703 C229.852435,54.635703 230.992966,54.6906386 231.693137,54.6906386 C232.193546,54.6906386 233.15393,54.635703 234.154747,54.635703 C234.394542,54.635703 234.614722,54.6717921 234.614722,54.7993069 C234.614722,54.9272228 234.495025,54.9641139 234.314877,54.9641139 C233.994616,54.9641139 233.694371,54.9813564 233.53424,55.0908267 C233.394526,55.1822525 233.334077,55.3093663 233.334077,55.4729703 C233.334077,55.7103564 233.514224,56.2200149 233.794453,56.8756337 L237.236062,65.1460545 L237.316127,65.1460545 C238.17683,63.1427079 240.778154,57.2766238 241.258145,56.0744554 C241.358227,55.8378713 241.438693,55.564797 241.438693,55.4007921 C241.438693,55.2544307 241.358227,55.1088713 241.17808,55.0547376 C240.937884,54.9813564 240.638039,54.9641139 240.377827,54.9641139 C240.19768,54.9641139 240.037549,54.9452673 240.037549,54.8173515 C240.037549,54.6717921 240.217296,54.635703 240.598007,54.635703 C241.598023,54.635703 242.438709,54.6906386 242.698521,54.6906386 C243.0396,54.6906386 243.979167,54.635703 244.579657,54.635703 C244.84027,54.635703 245,54.6717921 245,54.7993069 C245,54.9272228 244.879902,54.9641139 244.679338,54.9641139 C244.479575,54.9641139 244.058832,54.9641139 243.699739,55.1822525 C243.439126,55.3462574 243.138881,55.6554208 242.59844,56.8215 C241.818203,58.5345297 241.277761,59.5181584 240.19768,61.7580891 C238.917034,64.4178564 237.976266,66.4039604 237.535907,67.3138069 C237.016283,68.3704158 236.896185,68.6619356 236.615956,68.6619356 C236.355743,68.6619356 236.235645,68.4073069 235.855335,67.5511931 L230.812819,56.4213119" id="Fill-20" fill="#92927C"></path>
                    <path d="M85.6767402,46.7442178 C85.4977941,46.7442178 85.3352614,46.7891287 85.217165,46.860505 C85.099469,46.9306782 85.0274101,47.0293218 85.0274101,47.1383911 C85.0274101,47.2470594 85.099469,47.345302 85.217165,47.4162772 C85.3352614,47.4884554 85.4977941,47.5313614 85.6767402,47.5313614 L174.333913,47.5313614 C174.514461,47.5313614 174.676993,47.4884554 174.793489,47.4162772 C174.911585,47.345302 174.984044,47.2470594 174.984044,47.1383911 C174.984044,47.0293218 174.911585,46.9306782 174.793489,46.860505 C174.676993,46.7891287 174.514461,46.7442178 174.333913,46.7442178 L85.6767402,46.7442178" id="Fill-21" fill="#6F8F9D"></path>
                    <path d="M108.512582,3.54996535 C116.234485,3.54996535 116.557549,10.3611832 109.199943,10.3611832 C105.500923,10.3611832 101.74826,8.21949505 99.4992239,7.23025248 C101.951626,5.1274604 105.273938,3.55798515 108.512582,3.54996535 Z M108.667108,2.74357426 C104.889624,2.7295396 101.289485,4.13621287 98.2774265,6.6015 C94.507549,4.99152475 86.9593873,0.296331683 78.8199428,0.296331683 C69.0827941,0.296331683 62.8973448,6.51007426 62.8973448,13.1035545 C62.8973448,18.550203 67.537933,22.1859802 72.7089542,22.1859802 C80.3648039,22.1859802 81.5001307,16.6960248 81.4753105,16.0259703 C81.4753105,15.6574604 81.3295915,14.9216436 81.0121324,14.6670149 C80.8367892,14.5443119 80.5717729,14.5607525 80.5797794,14.7692673 C80.5797794,16.8684505 76.6045343,21.1113267 71.7057353,21.1345842 C60.4313317,21.1891188 65.0446977,1.24146535 77.4888562,1.24146535 C84.3104248,1.24146535 91.5058987,5.78668812 96.714951,8.08676733 C93.4102533,11.6764307 89.8709641,16.5067574 84.7483824,26.7167673 C77.7406618,40.6820495 68.5527614,49.2692525 58.3464297,49.2692525 C52.7054248,49.2692525 46.9727451,45.6150297 46.9727451,36.7238762 C46.9727451,21.6819356 66.8994118,17.5565495 66.8994118,32.9754208 C66.8994118,39.3002376 62.5358497,42.6132178 58.9160948,42.647703 C54.8123448,42.647703 53.9252206,40.1142475 53.9288235,37.6782327 C53.9288235,32.642599 56.4188562,31.6349109 55.1970588,31.6349109 C50.7178023,31.6349109 49.6705474,43.5114356 59.4877614,43.5114356 C65.7620833,43.5114356 69.5655882,37.9641386 69.6320425,32.5587921 C69.6956944,27.4237129 66.3877941,22.4185545 58.6238562,22.4185545 C48.93875,22.4185545 43.873415,29.4663564 43.8910294,36.451203 C43.9078431,43.3093366 48.8266585,50.1081238 59.086634,50.1081238 C67.3309641,50.1081238 72.6208824,46.5978564 77.2118301,42.3108713 C82.2631536,37.5956287 85.3905065,31.3955198 88.0262582,25.3558069 C88.9714297,25.517005 90.8097304,25.7808564 91.4970915,25.5863762 C91.2268709,26.3181832 91.079951,28.3977178 91.7597059,28.3977178 C92.0235212,28.3780693 91.8129493,27.8595891 92.3473856,26.7612772 C93.0371487,25.3429752 94.2889706,24.7174307 96.6957353,23.0132228 C97.7626062,22.2573564 97.3234477,21.1189455 96.2109395,21.1189455 C94.0431699,21.1189455 93.0587663,24.5329752 90.5799428,24.5329752 C89.8529493,24.5285644 88.9574183,24.381802 88.4918382,24.2647129 C90.1179657,20.2860891 94.1928922,12.0361188 97.8791013,8.72233663 C99.4980229,9.41324257 104.793946,12.0337129 108.687525,12.0337129 C117.86942,12.0337129 119.10723,2.74357426 108.667108,2.74357426 Z M63.8309069,46.4398663 C69.9791258,43.741604 79.317549,29.000005 81.1962827,24.9415842 C80.0945833,24.9415842 75.0572712,25.1124059 75.0572712,29.8116089 C74.2321977,29.8116089 73.4263399,28.8432178 73.4707761,27.6907723 C73.4707761,25.8197525 75.3839379,23.8998119 81.828799,23.8998119 C84.5430147,19.4540347 88.7860784,13.5703069 91.6364052,11.5874109 C92.836585,10.7557574 92.8622059,10.9394109 92.1528268,11.7907129 C91.2420833,13.0494208 89.9178023,14.9749752 88.4894363,17.3817178 C86.1715441,21.1682673 83.7335539,26.3189851 80.7367075,31.4656931 C77.8111193,36.1380297 74.6029003,39.9354059 71.2597712,42.7980743 C68.1980719,45.3102772 65.0967402,46.8777475 63.2144036,47.2955792 C62.3809232,47.4627921 62.5054248,46.8777475 63.8309069,46.4398663 Z M160.367312,32.5375396 C158.29442,35.6223564 157.355654,38.8651634 158.445343,39.608198 C159.533832,40.3532376 162.237239,38.3170099 164.30973,35.2325941 C166.381422,32.1497822 167.274951,28.8596584 166.184861,28.1162228 C165.096373,27.3715842 162.437802,29.4543267 160.367312,32.5375396 Z M117.118407,21.4353267 C116.128799,21.4353267 115.324542,22.2397129 115.324542,23.2317624 C115.324542,24.2242129 116.128799,25.028599 117.118407,25.028599 C118.109216,25.028599 118.912271,24.2242129 118.912271,23.2317624 C118.912271,22.2397129 118.109216,21.4353267 117.118407,21.4353267 Z M93.5511683,39.5103564 C97.222165,39.5103564 104.41884,28.2998762 100.219812,28.2998762 C96.8658742,28.2998762 89.5483007,39.5103564 93.5511683,39.5103564 Z M208.906536,22.3896832 L208.906536,23.0132228 L200.225449,23.2834901 C200.225449,23.2834901 197.24982,27.539599 194.612467,31.5575198 C194.26098,32.0924406 192.492737,34.7987228 191.52835,36.5141584 C189.979485,39.2713663 186.081103,45.605005 190.003505,47.0381436 C190.474289,47.2675099 191.447484,47.6749158 191.107206,48.0546535 C190.61,48.5330347 189.823358,48.7704208 189.081152,48.7704208 C181.677908,48.7704208 186.785278,39.0897178 189.652018,35.3324406 C189.662426,35.3200099 189.65482,35.3067772 189.636806,35.3260248 C188.775703,36.2611337 185.481013,40.5854109 182.08384,40.5854109 C180.328007,40.5854109 179.350408,39.5031386 179.350408,38.1369653 C179.350408,34.2048564 186.841324,28.065698 183.833268,28.065698 C183.35848,28.065698 182.606667,28.4835297 181.702328,29.0529356 C179.004126,30.7519307 177.498096,32.6458069 176.341152,34.1912228 C174.094518,37.2030594 171.947165,40.4266188 171.947165,40.4266188 L168.600433,40.4290248 C168.600433,40.4290248 174.604534,31.3730644 174.703415,31.224297 C173.219003,32.5255099 170.112467,33.495104 168.598832,31.6497475 C168.293382,35.154802 163.447426,40.8765297 159.546642,40.8765297 C156.209118,40.8765297 155.36683,37.5074109 156.244346,34.9069901 C153.711078,38.1445842 151.171405,40.4919802 148.720605,40.4919802 C147.388717,40.4919802 146.155711,39.5155693 146.155711,37.7492079 C146.155711,34.9398713 151.133374,30.6079752 151.133374,28.7397624 C151.133374,28.469495 151.01768,28.0540693 150.574118,28.0540693 C149.638954,28.0540693 148.54326,28.6403168 147.30625,29.6239455 C144.766577,31.7977129 143.824208,33.454203 141.819771,36.4696485 C140.97348,37.7415891 141.02192,37.7736683 139.22165,40.4254158 L135.873717,40.4226089 C135.873717,40.4226089 141.956683,31.2511634 142.49192,30.4391584 C142.967508,29.7173762 144.160082,28.0047475 142.808178,28.0047475 C140.721275,28.0047475 137.100719,31.2034455 134.114281,35.2293861 C132.975351,36.9307871 130.65866,40.4214059 130.65866,40.4214059 L127.31473,40.4214059 L133.435327,31.1954257 C133.085441,31.3401832 131.625449,31.9360545 130.418864,31.9324455 C129.440866,31.9284356 128.530123,31.4516584 128.530123,30.0782673 C128.530123,28.6675842 129.75152,27.9169307 130.335196,27.7765842 C130.354412,27.7765842 130.350408,27.7633515 130.332394,27.7633515 C127.389592,27.8876584 123.297451,31.7596188 119.291381,37.7568267 C118.238521,39.3339208 117.521536,40.4214059 117.521536,40.4214059 L114.200825,40.420604 C114.200825,40.420604 115.710057,38.2219752 117.443072,35.6143366 C117.454281,35.5942871 117.454281,35.5826584 117.42906,35.6071188 C117.19567,35.8232525 113.042279,40.4951881 110.487394,40.4951881 C108.305613,40.4951881 107.668693,38.110099 108.046601,36.1396337 C108.046601,36.1396337 105.010123,40.4759406 102.165801,40.4759406 C99.9824183,40.4759406 99.1325245,38.3033762 99.3126716,36.5173663 C99.2934559,36.4796733 99.2734395,36.5185693 99.2342075,36.5185693 C98.8470915,37.2106782 96.3822794,40.5296733 93.3810294,40.497995 C86.589085,40.497995 91.6059804,27.2765495 99.4852124,27.2765495 C101.556904,27.2765495 102.584542,28.0973762 102.584542,29.8444901 C103.123783,29.0244653 104.227083,27.3755941 104.227083,27.3755941 L107.573815,27.3755941 C107.573815,27.3755941 104.197859,32.4364901 102.468848,35.0934505 C101.248652,36.9664752 100.444395,39.5805297 102.141781,39.5805297 C104.934861,39.5805297 107.685106,35.2955495 109.904118,31.915203 C111.543056,29.4190396 112.961413,27.3439158 112.961413,27.3439158 L116.310147,27.3439158 C116.310147,27.3439158 113.15277,32.1128911 110.94817,35.4836139 C109.198742,37.9216337 109.36848,39.5745149 110.525825,39.5745149 C112.858529,39.5745149 118.219706,34.1992426 120.945531,30.0209257 C121.991985,28.4153614 122.705368,27.3451188 122.705368,27.3451188 L126.024877,27.3431139 L123.661348,30.8329307 L123.68857,30.8698218 C126.164191,28.4638812 128.746699,27.0708416 130.163056,27.0708416 C133.114665,27.0708416 132.835637,30.1793168 131.362835,31.183797 C132.110245,31.0294158 133.713554,30.7250644 134.630703,29.3773366 L135.965392,27.3515347 L139.385384,27.3487277 L137.156364,30.5750941 L137.167974,30.5835149 C139.798922,27.9574307 141.929861,27.2737426 143.294975,27.2737426 C146.679338,27.2737426 145.180114,30.5911337 145.180114,30.5911337 C145.171307,30.6099802 145.181315,30.6155941 145.200131,30.5911337 C145.6521,29.9996733 148.068472,27.2737426 150.947222,27.2737426 C152.682639,27.2737426 153.384812,28.0897574 153.399224,29.4631485 C153.416838,31.2852475 151.845155,33.4048812 149.675784,36.9303861 C149.077296,37.9015842 148.017631,39.4722624 149.282263,39.4722624 C152.352369,39.4722624 157.897296,31.3534158 158.044616,31.1657525 C160.03384,28.594203 162.403374,26.8964109 165.463072,26.8964109 C167.193685,26.8964109 168.222525,28.270604 168.616846,29.7149703 C170.196536,34.3411931 175.038088,30.6220099 176.578546,28.392104 C176.825547,28.0344208 177.055335,27.6715248 177.265907,27.3515347 L180.616242,27.3503317 L178.33558,30.7627574 C178.765531,30.3926436 181.689518,27.2789554 184.599493,27.2789554 C186.441797,27.2789554 186.796487,28.6214703 186.796487,29.6945198 C186.796487,32.117703 184.008611,35.2221683 182.889698,37.4268119 C181.798407,39.5793267 182.737173,40.1868267 185.056266,38.6213614 C188.023489,36.6208218 190.770931,33.1406287 193.981953,28.5597178 C195.124886,26.9296931 196.518023,24.9359703 197.572884,23.3436386 C194.302614,23.3857426 167.543971,23.978005 167.543971,23.978005 L166.041944,22.5023614 L198.202598,22.4213614 C198.202598,22.4213614 201.109771,17.5064257 203.528946,17.5064257 C203.672663,17.5036188 203.691479,17.5052228 203.70549,17.5052228 C204.150654,17.5052228 203.916062,17.740203 203.743121,18.0016485 C202.655033,19.6388911 200.81433,22.4065248 200.81433,22.4065248 L208.906536,22.3896832 L208.906536,22.3896832 Z" id="Fill-22" fill="#6F8F9D"></path>
                </g>
            </g>
        </g>
    </g>
</svg>