<?xml version="1.0" encoding="UTF-8"?>
<svg width="114px" height="114px" viewBox="0 0 114 114" version="1.1" xmlns="http://www.w3.org/2000/svg" xmlns:xlink="http://www.w3.org/1999/xlink">
    <!-- Generator: sketchtool 42 (36781) - http://www.bohemiancoding.com/sketch -->
    <title>C4C173F4-9539-404C-B619-86DC481E39EE</title>
    <desc>Created with sketchtool.</desc>
    <defs>
        <polygon id="path-1" points="0 113.987894 0 0.0480212389 113.951373 0.0480212389 113.951373 113.987894"></polygon>
    </defs>
    <g id="Page-1" stroke="none" stroke-width="1" fill="none" fill-rule="evenodd">
        <g id="vogue_conf2017_landing_new" transform="translate(-1021.000000, -3570.000000)">
            <g id="Group-21" transform="translate(145.000000, 3570.000000)">
                <g id="kmbs-logo-new-eng" transform="translate(876.000000, 0.000000)">
                    <g id="Group-3">
                        <mask id="mask-2" fill="white">
                            <use xlink:href="#path-1"></use>
                        </mask>
                        <g id="Clip-2"></g>
                        <path d="M113.951373,97.7214053 L113.951373,0.0480212389 L16.2794018,0.0480212389 C16.2794018,0.0480212389 0,0.0480212389 0,16.3270195 L0,97.7214053 C0,97.7214053 0,114 16.2794018,114 L97.6739894,114 C97.6739894,114 113.951373,114 113.951373,97.7214053" id="Fill-1" fill="#1B2949" mask="url(#mask-2)"></path>
                    </g>
                    <path d="M96.5113912,51.6448248 C96.3275788,51.0494018 96.0438903,50.4884814 95.6413593,49.9767929 C95.0332248,49.1434832 93.9196566,48.1237381 92.3454478,46.8267611 C92.0629699,46.5477133 91.833154,46.365515 91.6412708,46.2214513 C91.6412708,46.2214513 91.5486584,46.1790796 91.4606867,46.0864673 C90.0246903,44.8798832 89.325154,44.0520212 89.325154,43.6353664 C89.325154,43.3930407 89.3810442,43.168269 89.5584,43.028846 C89.6988319,42.8379717 89.9332885,42.7506053 90.1631044,42.7506053 C90.4865416,42.7506053 91.0811575,42.9328035 91.9257664,43.3072885 C92.7604885,43.6809664 93.4543752,43.8680071 94.0100496,43.8680071 C94.7130159,43.8680071 95.2664708,43.5302442 95.6803009,42.9328035 C96.0438903,42.3321345 96.2803646,41.4564531 96.2803646,40.3434903 C96.2803646,40.2496673 96.2277027,39.6935894 96.2277027,39.6935894 C95.8197239,39.9211858 95.3990336,40.0644425 94.9864142,40.1538265 C94.5633027,40.2496673 94.1541133,40.3434903 93.7241416,40.3434903 C93.3651929,40.3434903 92.7134761,40.2496673 91.7885628,40.0644425 C90.8616319,39.8751823 90.1195221,39.7825699 89.5125982,39.7825699 C88.0743823,39.7825699 86.9208637,40.1972071 86.0417522,41.0327363 C85.1602195,41.8222619 84.6949381,42.9328035 84.6949381,44.280223 C84.6949381,44.835292 84.7806903,45.3445593 84.9283858,45.8526159 C85.0732566,46.365515 85.2584814,46.8673168 85.5330903,47.3372389 C85.993731,48.1727681 87.2445027,49.4675257 89.2347611,51.188623 C89.6988319,51.6052779 90.0717027,51.9307327 90.3483292,52.1060708 C90.8616319,52.5719575 91.2284496,52.9853841 91.4606867,53.3602726 C91.6412708,53.7323363 91.7885628,54.0999611 91.7885628,54.478885 C91.7885628,54.9391221 91.6013204,55.3547681 91.2284496,55.6685204 C90.8077593,56.0000283 90.3483292,56.1418726 89.7938655,56.1418726 C88.9992956,56.1418726 88.4012496,55.9118549 87.891377,55.3547681 C87.3804956,54.8527646 87.1573381,54.1960035 87.1573381,53.3602726 C87.1573381,53.2277097 87.1573381,53.0332035 87.1974903,52.8487858 C87.1974903,52.7148106 87.2445027,52.5326124 87.2923221,52.3393168 C85.993731,53.0332035 85.0732566,53.638715 84.5097133,54.1514124 C83.9998407,54.6516 83.6295929,55.2157487 83.4019965,55.9118549 C84.4207327,56.9330124 85.5330903,57.7142655 86.7378584,58.2209097 C87.891377,58.7293699 89.1490088,59.0130584 90.3917097,59.0130584 C92.3454478,59.0130584 93.9196566,58.5487858 95.0697451,57.580492 C96.2277027,56.6031186 96.7870088,55.3067469 96.7870088,53.6833062 C96.7870088,52.9470478 96.7022655,52.2959363 96.5113912,51.6448248 Z M75.5559717,40.5390053 C74.6346903,40.5390053 73.8274088,40.6653133 73.1254513,40.9201487 C72.425915,41.1745805 71.8462301,41.551285 71.3865982,42.060754 L71.3865982,37.6803292 C71.3865982,37.059685 71.4461204,36.4348035 71.5685947,35.7974124 C71.6862265,35.1668814 71.8736708,34.5403858 72.1250761,33.9201451 L67.2000743,33.9201451 C66.327823,33.9201451 65.7287681,34.0894301 65.3857593,34.4334478 C65.0484,34.7732283 64.6575717,35.6551646 64.2185204,37.0762301 C64.8988885,37.133331 65.3583186,37.308669 65.5996354,37.5955858 C65.8409522,37.8814938 65.9573735,38.4537133 65.9573735,39.3237451 L65.9573735,55.4661451 C65.9573735,56.2036142 65.9115717,56.8523044 65.8201699,57.4170584 C65.7275575,57.9793912 65.6177947,58.4368035 65.4200602,59.0243575 C66.3564743,59.0243575 67.2894584,59.0221381 68.2234513,59.0267788 C69.2659965,59.0314195 69.9816743,59.0574478 70.3359823,58.7545912 C70.6902903,58.4505239 70.8995257,57.8468283 70.9636885,56.9562159 C72.1561487,58.882715 73.694846,59.0917487 75.738977,59.0334372 C76.2476389,59.0199186 76.7403611,58.9614053 77.218354,58.882715 C78.4632743,58.6769097 79.5859221,58.1636071 80.5072035,56.8928602 C81.7226655,55.2179681 82.3330195,52.9046761 82.3330195,49.9511681 C82.3330195,46.9496389 81.7442549,44.6264602 80.5667257,42.9939398 C79.3950478,41.3547611 77.7245947,40.5390053 75.5559717,40.5390053 Z M75.980092,54.5916743 C75.5297416,55.6204991 74.8289947,56.1344071 73.8812814,56.1344071 C72.9815894,56.1344071 72.3010195,55.662669 71.8415894,54.7133416 C71.3809487,53.7638124 71.1511327,52.3594938 71.1511327,50.4975611 L71.1511327,48.7100814 C71.1511327,46.981115 71.3809487,45.6607327 71.8462301,44.7545841 C72.3127221,43.8486372 72.9928885,43.3974796 73.8812814,43.3974796 C74.817292,43.3974796 75.5184425,43.9222832 75.9732319,44.9660389 C76.4284248,46.0104 76.6548106,47.6120496 76.6548106,49.7649345 C76.6548106,51.950708 76.4284248,53.5567965 75.980092,54.5916743 Z M62.1800389,53.5848425 L62.1800389,46.6112708 C62.1800389,44.5168991 61.7308991,42.947331 60.8265664,41.8920743 C59.9224354,40.8418619 58.5721912,40.3178655 56.784308,40.3178655 C55.7415611,40.3178655 54.8041381,40.5343646 53.9740566,40.9681699 C53.1395363,41.4037912 52.4866088,42.0302867 52.0043788,42.8357522 C51.533246,41.9976 50.9069522,41.3666655 50.1315504,40.9488 C49.349692,40.5291186 48.4237699,40.3178655 47.3481345,40.3178655 C46.127023,40.3178655 45.0774159,40.576131 44.2110159,41.0962938 C43.3432035,41.6114124 42.678977,42.3698655 42.2195469,43.3672142 C42.2629274,42.9106088 42.3165982,42.4481522 42.3793487,41.9822655 C42.4388708,41.5151681 42.5133239,41.0327363 42.5978655,40.5343646 C42.347469,40.6092212 42.0696319,40.6618832 41.7758549,40.6996142 C41.4752177,40.7355292 41.1481487,40.7520743 40.7960602,40.7520743 C40.7526796,40.7520743 40.5652354,40.7460212 40.2278761,40.7355292 C39.8963681,40.7248354 39.5910903,40.7201947 39.3178938,40.7201947 C38.4502832,40.7201947 37.8570796,40.8842336 37.5310195,41.2026265 C37.2041522,41.5254584 36.8278513,42.4749876 36.4005027,44.0665487 C37.0165062,44.0822867 37.427108,44.1876106 37.6317027,44.3841345 C37.8350867,44.5752106 37.9367788,45.0741876 37.9367788,45.8806619 L37.9367788,55.2609451 C37.9367788,55.8920814 37.8784673,56.5230159 37.7551858,57.1485027 C37.6373522,57.7747965 37.4601982,58.4002832 37.2303823,59.0199186 L41.9507894,59.0199186 C42.7705805,59.0199186 43.3385628,58.8562832 43.6644212,58.532846 C43.9902796,58.2035575 44.3710195,57.3141558 44.809869,55.854754 C44.1833735,55.781108 43.755823,55.6055681 43.5249982,55.3299504 C43.2963929,55.0597805 43.1775504,54.4754549 43.1775504,53.5848425 L43.1775504,47.3110088 C43.1775504,45.8372814 43.3547044,44.8038159 43.702354,44.2041558 C44.0498018,43.6051009 44.632715,43.3026478 45.4468566,43.3026478 C46.1486124,43.3026478 46.6621168,43.5405345 46.9821239,44.0183257 C47.3102018,44.4957133 47.4702053,45.2438761 47.4702053,46.2670513 L47.4702053,55.2609451 C47.4702053,55.7387363 47.4062442,56.2950159 47.2839717,56.9426973 C47.1546372,57.5839221 46.9730442,58.2733699 46.7317274,59.0199186 L51.4533451,59.0199186 C52.2719257,59.0199186 52.8386973,58.8562832 53.1657664,58.532846 C53.4928354,58.2035575 53.8723646,57.3072956 54.3126265,55.8382088 C53.6859292,55.7855469 53.2573699,55.6158584 53.027554,55.3299504 C52.7977381,55.0492885 52.6786938,54.4653664 52.6786938,53.5848425 L52.6786938,47.3110088 C52.6786938,45.8372814 52.8560496,44.8038159 53.2034973,44.2041558 C53.5511469,43.6051009 54.1411221,43.3026478 54.9641416,43.3026478 C55.6548,43.3026478 56.1644708,43.5405345 56.4949699,44.0183257 C56.8218372,44.4957133 56.987692,45.2438761 56.987692,46.2670513 L56.987692,55.2609451 C56.987692,55.7702124 56.9235292,56.3371858 56.8014584,56.9632779 C56.6721239,57.5885628 56.4846796,58.2733699 56.2332743,59.0199186 L60.9546903,59.0199186 C61.7742796,59.0199186 62.3402442,58.8562832 62.6671115,58.532846 C62.9941805,58.2035575 63.3737097,57.3072956 63.8125593,55.8382088 C63.1977664,55.7855469 62.7688035,55.6158584 62.5333381,55.3299504 C62.2966619,55.0492885 62.1800389,54.4653664 62.1800389,53.5848425 Z M34.0246619,55.2609451 C33.6382726,54.9367009 33.3067646,54.4018088 33.0232779,53.643154 L29.6506938,44.835292 L30.2338088,44.2309912 C30.5973982,43.8486372 31.155292,43.6262867 31.8937699,43.5782655 C32.1990478,43.5570796 32.4127221,43.5312531 32.540846,43.4981628 C33.0129876,43.3672142 33.3547858,43.1168177 33.5799611,42.7518159 C33.8041274,42.3898407 34.0293027,41.6325982 34.2488283,40.4710088 C33.9332602,40.6035717 33.5904531,40.7040531 33.2210124,40.7625664 C32.8517735,40.826931 32.2630088,40.8584071 31.4547186,40.8584071 C30.5562372,40.8584071 29.8439894,40.984715 29.307685,41.2447965 C28.7727929,41.5042726 28.2800708,41.9445345 27.8192283,42.5653805 L24.902846,46.6381062 L24.902846,37.6768991 C24.902846,37.0560531 24.9657982,36.423908 25.0902903,35.7939823 C25.2184142,35.1618372 25.4002088,34.5369558 25.6415257,33.9163115 L20.7907752,33.9163115 C19.9126726,33.9163115 19.3091788,34.086 18.9661699,34.4300177 C18.6276,34.7695965 18.2436319,35.6499186 17.8150726,37.0663434 C18.4744566,37.1196106 18.9237982,37.2892991 19.169554,37.5808566 C19.4155115,37.8722124 19.5387929,38.4502832 19.5387929,39.3191044 L19.5387929,55.2609451 C19.5387929,55.7702124 19.4736212,56.3321416 19.3410584,56.9527858 C19.2119257,57.5782726 19.0198407,58.261869 18.7684354,59.0199186 L23.6167646,59.0199186 C24.4742867,59.0199186 25.0733416,58.8518442 25.4161487,58.5066159 C25.7635965,58.1670372 26.1548283,57.2822761 26.5938796,55.8501133 C25.926223,55.781108 25.4744602,55.6055681 25.2446442,55.3299504 C25.0150301,55.0539292 24.902846,54.4754549 24.902846,53.5848425 L24.902846,50.2437345 L26.096315,48.7804991 L28.6172283,55.8335681 C28.7144814,56.1039398 28.7784425,56.3428354 28.8208142,56.5442018 C28.8641947,56.7453664 28.8847752,56.9316 28.8847752,57.1117805 C28.8847752,57.3873982 28.836754,57.6902549 28.7397027,58.0023929 C28.6503186,58.3213912 28.5108956,58.6609699 28.3337416,59.0199186 L32.6643292,59.0199186 C33.5640212,59.0199186 34.2223965,58.7979717 34.6340071,58.3522619 C35.0468283,57.9063504 35.3771257,57.0375292 35.6297416,55.743377 L35.4743788,55.743377 C34.8856142,55.743377 34.4043929,55.5845841 34.0246619,55.2609451 L34.0246619,55.2609451 Z" id="Fill-4" fill="#FFFFFF"></path>
                    <path d="M22.9101664,81.952885 C23.0941805,81.8501841 23.2475257,81.6990584 23.3687894,81.500315 C23.4908602,81.3023788 23.5526018,81.0818442 23.5526018,80.8372991 C23.5526018,80.5879115 23.5070018,80.3742372 23.4180212,80.1946619 C23.3276283,80.0162973 23.2063646,79.8700142 23.0520106,79.7556106 C22.8976566,79.6414088 22.711423,79.5568673 22.4941168,79.5031965 C22.2780212,79.4493239 22.0435646,79.4218832 21.7945805,79.4218832 L19.907023,79.4309628 C19.734308,79.4309628 19.6142549,79.467685 19.5490832,79.5441558 C19.4851221,79.6210301 19.4520319,79.7364425 19.4520319,79.8940248 L19.4520319,84.6693133 C19.4520319,84.8317381 19.4851221,84.9505805 19.5490832,85.0236212 C19.6142549,85.0968637 19.734308,85.1335858 19.907023,85.1335858 L21.8928425,85.1335858 C22.1579681,85.1335858 22.407154,85.0936354 22.6369699,85.0111115 C22.8679965,84.93 23.0681522,84.813377 23.2394549,84.6614442 C23.4097487,84.5103186 23.5457416,84.3277168 23.6452142,84.1172708 C23.7458973,83.9056142 23.7963398,83.6725699 23.7963398,83.4163221 C23.7963398,83.2698372 23.7791894,83.1259752 23.7436779,82.9865522 C23.7081664,82.844708 23.6544956,82.7121451 23.584885,82.5864425 C23.5138619,82.4619504 23.4212496,82.3485558 23.3082584,82.2502938 C23.1950655,82.1496106 23.0610903,82.069508 22.9101664,82.0101876 L22.9101664,81.952885 Z M22.7261522,83.6483575 C22.696492,83.754892 22.6428212,83.850531 22.5683681,83.9376956 C22.4918973,84.0246584 22.3912142,84.0952779 22.267731,84.1523788 C22.1420283,84.2098832 21.981823,84.2395434 21.7865097,84.2395434 L20.4443363,84.2395434 L20.4443363,82.4651788 L21.7945805,82.4651788 C22.1157982,82.4651788 22.3581239,82.5475009 22.5227681,82.7133558 C22.688623,82.8790088 22.7707434,83.0918761 22.7707434,83.3513522 C22.7707434,83.4439646 22.7572248,83.5432354 22.7261522,83.6483575 Z M20.4443363,80.3090655 L21.8103186,80.3090655 C22.0288354,80.3090655 22.2003398,80.3663681 22.3282619,80.4793593 C22.455377,80.5925522 22.5191363,80.747915 22.5191363,80.9434301 C22.5191363,81.089915 22.4941168,81.2077487 22.444885,81.2967292 C22.3968637,81.3871221 22.3339115,81.4567327 22.2586513,81.5095965 C22.1831894,81.5598372 22.0996566,81.5951469 22.0104743,81.6145168 C21.921292,81.6340885 21.8379611,81.6431681 21.7624991,81.6431681 L20.4443363,81.6431681 L20.4443363,80.3090655 Z M26.2450195,84.331954 C26.103377,84.2805027 25.9934124,84.2028212 25.9147221,84.1001204 C25.8368389,83.9970159 25.7843788,83.8666726 25.7569381,83.7090903 C25.7305062,83.552315 25.715777,83.3683009 25.715777,83.156846 L25.715777,80.9926619 C25.715777,80.9331398 25.7044779,80.8944 25.6802655,80.8784602 C25.655246,80.8625204 25.6150938,80.8544496 25.5616248,80.8544496 L24.9270584,80.8544496 C24.8675363,80.8544496 24.8263752,80.8625204 24.8055929,80.8784602 C24.7829947,80.8944 24.7725027,80.9331398 24.7725027,80.9926619 L24.7725027,83.1409062 C24.7725027,83.5145841 24.8092248,83.8347929 24.8824673,84.1001204 C24.955508,84.3664566 25.0709204,84.5823504 25.2276956,84.7471965 C25.3852779,84.9128496 25.5910832,85.0329027 25.8461204,85.1083646 C26.1009558,85.1838265 26.4130938,85.2225664 26.7811221,85.2225664 C26.8533558,85.2225664 26.9332566,85.2225664 27.025869,85.2181274 C27.1184814,85.215908 27.213515,85.211469 27.3105664,85.2066265 C27.4090301,85.200977 27.5038619,85.193108 27.5952637,85.1814053 C27.6878761,85.1723257 27.7689876,85.1598159 27.8398088,85.1495257 C28.0296743,85.1117947 28.1678867,85.0375434 28.2536389,84.9253593 C28.3406018,84.8145876 28.3839823,84.6648743 28.3839823,84.4737982 L28.3839823,80.9926619 C28.3839823,80.9331398 28.3726832,80.8944 28.3474619,80.8784602 C28.3234513,80.8625204 28.2845097,80.8544496 28.2296283,80.8544496 L27.5952637,80.8544496 C27.5357416,80.8544496 27.4957912,80.8625204 27.4729912,80.8784602 C27.4524106,80.8944 27.4409097,80.9331398 27.4409097,80.9926619 L27.4409097,84.3608071 C27.2944248,84.388046 27.165292,84.4019681 27.0543186,84.4041876 C26.9435469,84.4086265 26.8577947,84.4098372 26.7984743,84.4098372 C26.5708779,84.4098372 26.3856531,84.3836071 26.2450195,84.331954 Z M32.4161522,83.4256035 C32.3372602,83.2837593 32.2345593,83.161285 32.1064354,83.0585841 C31.9795221,82.9556814 31.8332389,82.867508 31.6673841,82.7944673 C31.5015292,82.7214265 31.3312354,82.6528248 31.1585204,82.5864425 C31.0065876,82.5337805 30.8774549,82.4811186 30.7723327,82.4320885 C30.6670088,82.3828566 30.5812566,82.3370549 30.516085,82.2892354 C30.4509133,82.2434336 30.402892,82.1931929 30.3744425,82.1393204 C30.3435717,82.0856496 30.3286407,82.0204779 30.3286407,81.9438053 C30.3286407,81.8409027 30.3756531,81.7472814 30.4670549,81.6627398 C30.5596673,81.5792071 30.7059504,81.5378442 30.907115,81.5378442 C31.091331,81.5378442 31.2626336,81.5505558 31.4226372,81.5781982 C31.5838513,81.6054372 31.7680673,81.6556779 31.980531,81.7323504 C32.0241133,81.7482903 32.0572035,81.7541416 32.0824248,81.7482903 C32.1064354,81.7436496 32.1270159,81.7198407 32.1429558,81.6764602 L32.3304,81.2121876 C32.340892,81.1686053 32.3419009,81.1298655 32.3338301,81.0979858 C32.3257593,81.0648956 32.299731,81.0384637 32.2561487,81.0166726 C32.0459044,80.9311221 31.826177,80.8657487 31.5977735,80.8257982 C31.370177,80.7846372 31.1427823,80.7642584 30.9151858,80.7642584 C30.666,80.7642584 30.4442549,80.7961381 30.2531788,80.8576779 C30.0623044,80.9218407 29.9033097,81.0063823 29.7753876,81.1139257 C29.6462549,81.2236885 29.5490018,81.3518124 29.4836283,81.500315 C29.4176496,81.6500283 29.3853664,81.8136637 29.3853664,81.9930372 C29.3853664,82.1564708 29.4140177,82.298315 29.4701097,82.4240177 C29.5272106,82.5497204 29.6097345,82.6619044 29.718085,82.7611752 C29.8280496,82.8620602 29.9640425,82.9532602 30.1298973,83.0343717 C30.2945416,83.1168956 30.4886442,83.1967965 30.7116,83.2791186 C31.0043681,83.3866619 31.2238938,83.4873451 31.370177,83.5799575 C31.5164602,83.6725699 31.5907115,83.7960531 31.5907115,83.9536354 C31.5907115,84.0952779 31.5336106,84.2098832 31.4194088,84.2988637 C31.3050053,84.388046 31.1335009,84.4338478 30.907115,84.4338478 C30.722092,84.4338478 30.5104354,84.4086265 30.2727504,84.357377 C30.0336531,84.3057239 29.8165487,84.2324814 29.6210336,84.1412814 C29.5615115,84.1136389 29.518131,84.1069805 29.4919009,84.1204991 C29.4632496,84.1342195 29.4370195,84.1650903 29.409377,84.2143221 L29.2140637,84.6693133 C29.1706832,84.7562761 29.1900531,84.8214478 29.2711646,84.8650301 C29.3853664,84.93 29.5102619,84.9846796 29.6462549,85.0306832 C29.7822478,85.0785027 29.924092,85.1140142 30.0701735,85.1414549 C30.217869,85.1678867 30.3641522,85.1894761 30.511646,85.2021876 C30.6579292,85.215908 30.7963434,85.2225664 30.9266867,85.2225664 C31.155292,85.2225664 31.3667469,85.1973451 31.5622619,85.1458938 C31.7589876,85.0946442 31.9292814,85.0145416 32.0731434,84.9094195 C32.2174088,84.8042973 32.3293912,84.6693133 32.4115115,84.5068885 C32.4928248,84.3446655 32.5339858,84.1548 32.5339858,83.9376956 C32.5339858,83.736531 32.4940354,83.5648248 32.4161522,83.4256035 Z M34.4213416,79.3327009 C34.3083504,79.2182973 34.1689274,79.1611965 34.005292,79.1611965 C33.8440779,79.1611965 33.7046549,79.2182973 33.5914619,79.3327009 C33.478269,79.4458938 33.4199575,79.5855186 33.4199575,79.7477416 C33.4199575,79.9111752 33.478269,80.0483788 33.5914619,80.1627823 C33.7046549,80.2759752 33.8440779,80.3330761 34.005292,80.3330761 C34.1689274,80.3330761 34.3083504,80.2759752 34.4213416,80.1627823 C34.5347363,80.0483788 34.5918372,79.9111752 34.5918372,79.7477416 C34.5918372,79.5855186 34.5347363,79.4458938 34.4213416,79.3327009 Z M34.4705735,81.000531 C34.4705735,80.9402018 34.4578619,80.902269 34.4328425,80.8875398 C34.4090336,80.8703894 34.3678726,80.8625204 34.3083504,80.8625204 L33.6818549,80.8625204 C33.6269735,80.8625204 33.5880319,80.8703894 33.5630124,80.8875398 C33.5390018,80.902269 33.5250796,80.9402018 33.5250796,81.000531 L33.5250796,84.9951717 C33.5250796,85.054492 33.5390018,85.0936354 33.5630124,85.1083646 C33.5880319,85.1245062 33.6269735,85.1335858 33.6818549,85.1335858 L34.3083504,85.1335858 C34.3678726,85.1335858 34.4090336,85.1245062 34.4328425,85.1083646 C34.4578619,85.0936354 34.4705735,85.054492 34.4705735,84.9951717 L34.4705735,81.000531 Z M37.8419469,81.6556779 C37.9916602,81.7059186 38.1082832,81.7838018 38.195246,81.8867044 C38.2834195,81.9896071 38.3437487,82.1211611 38.3792602,82.2777345 C38.4147717,82.4355186 38.4319221,82.6195327 38.4319221,82.8311894 L38.4319221,84.9951717 C38.4319221,85.054492 38.4432212,85.0936354 38.4686442,85.1083646 C38.4924531,85.1245062 38.5313947,85.1335858 38.5850655,85.1335858 L39.2218513,85.1335858 C39.2813735,85.1335858 39.3213239,85.1245062 39.3441239,85.1083646 C39.3649062,85.0936354 39.3749947,85.054492 39.3749947,84.9951717 L39.3749947,82.8471292 C39.3749947,82.4732496 39.3350442,82.1518301 39.2539327,81.8867044 C39.1728212,81.6215788 39.0469168,81.4054832 38.876623,81.2408389 C38.7061274,81.0749841 38.489023,80.9551327 38.2271257,80.8784602 C37.9644212,80.8029982 37.6545027,80.7642584 37.2977735,80.7642584 C37.2269522,80.7642584 37.1434195,80.767285 37.0461664,80.7721274 C36.949115,80.777777 36.8484319,80.7846372 36.7443186,80.7892779 C36.6426265,80.7939186 36.5443646,80.8029982 36.4529628,80.8132885 C36.3615611,80.8235788 36.2885204,80.8326584 36.2346478,80.8372991 C36.011692,80.8760389 35.8652071,80.9492814 35.7955965,81.0568248 C35.7259858,81.1665876 35.6904743,81.3173097 35.6904743,81.5138336 L35.6904743,84.9951717 C35.6904743,85.054492 35.7019752,85.0936354 35.7269947,85.1083646 C35.7512071,85.1245062 35.7909558,85.1335858 35.8448283,85.1335858 L36.4793947,85.1335858 C36.538715,85.1335858 36.5798761,85.1245062 36.6014655,85.1083646 C36.6232566,85.0936354 36.6337487,85.054492 36.6337487,84.9951717 L36.6337487,81.6272283 C36.7798301,81.5997876 36.9091646,81.5850584 37.0199363,81.5826372 C37.1309097,81.5792071 37.2166619,81.5781982 37.2761841,81.5781982 C37.5045876,81.5781982 37.6932425,81.6032177 37.8419469,81.6556779 Z M41.4421274,80.9149805 C41.2030301,81.0156637 40.999646,81.1617451 40.8281416,81.3538301 C40.6578478,81.5471257 40.5228637,81.7825912 40.4256106,82.0626478 C40.3273487,82.3416956 40.2793274,82.6606938 40.2793274,83.017423 C40.2793274,83.7833416 40.4520425,84.342446 40.7994903,84.6945345 C41.1471398,85.046623 41.647731,85.2225664 42.3040885,85.2225664 C42.5268425,85.2225664 42.7600885,85.1987575 43.0048354,85.1495257 C43.2483717,85.1004956 43.4723363,85.0135327 43.6793522,84.8888389 C43.7548142,84.8509062 43.7741841,84.7881558 43.7364531,84.7024035 L43.5157168,84.2395434 C43.484846,84.1687221 43.4245168,84.1523788 43.3385628,84.1891009 C43.2128602,84.248623 43.066577,84.301285 42.8985027,84.3446655 C42.7304283,84.388046 42.5601345,84.4098372 42.3849982,84.4098372 C42.2286265,84.4098372 42.0821416,84.3904673 41.9461487,84.3515257 C41.8101558,84.3150053 41.6911115,84.2508425 41.5882088,84.1616602 C41.485508,84.0712673 41.4043965,83.9560566 41.3448743,83.8117912 C41.2853522,83.6679292 41.2522619,83.4893628 41.2476212,83.2791186 L43.4105947,83.2791186 C43.5032071,83.2791186 43.5889593,83.2678195 43.6666407,83.2460283 C43.7457345,83.2242372 43.8143363,83.1865062 43.8748673,83.1328354 C43.9341876,83.077954 43.9812,83.0049133 44.0120708,82.9123009 C44.0451611,82.8196885 44.0613027,82.7042761 44.0613027,82.5624319 C44.0613027,82.0033274 43.9113876,81.5640743 43.6097416,81.244269 C43.3089027,80.9240602 42.8470513,80.7642584 42.2239858,80.7642584 C41.9417097,80.7642584 41.6808212,80.8144991 41.4421274,80.9149805 Z M42.6904779,81.6352991 C42.8083115,81.6891717 42.8997133,81.763423 42.9671044,81.8592637 C43.0344956,81.952885 43.0825168,82.0626478 43.1101593,82.1873416 C43.1363894,82.3130442 43.1511186,82.4492389 43.1511186,82.5955221 L41.278492,82.5955221 C41.2853522,82.4595292 41.3117841,82.3289841 41.3610159,82.204492 C41.410046,82.08 41.4740071,81.9690265 41.5563292,81.8707646 C41.6374407,81.7733097 41.7357027,81.6958301 41.8490973,81.6387292 C41.9622903,81.5826372 42.0924319,81.552977 42.2389168,81.552977 C42.4241416,81.552977 42.5738549,81.5814265 42.6904779,81.6352991 Z M47.9058265,83.4256035 C47.8269345,83.2837593 47.7240319,83.161285 47.5971186,83.0585841 C47.4691965,82.9556814 47.3229133,82.867508 47.1570584,82.7944673 C46.9924142,82.7214265 46.8219186,82.6528248 46.6481947,82.5864425 C46.4962619,82.5337805 46.3681381,82.4811186 46.2630159,82.4320885 C46.1566832,82.3828566 46.0721416,82.3370549 46.0057593,82.2892354 C45.9405876,82.2434336 45.893777,82.1931929 45.8629062,82.1393204 C45.8344566,82.0856496 45.818315,82.0204779 45.818315,81.9438053 C45.818315,81.8409027 45.863915,81.7472814 45.9565274,81.6627398 C46.0491398,81.5792071 46.1956248,81.5378442 46.3967894,81.5378442 C46.5808035,81.5378442 46.7533168,81.5505558 46.9135221,81.5781982 C47.072315,81.6054372 47.2587504,81.6556779 47.4702053,81.7323504 C47.5135858,81.7482903 47.5480885,81.7541416 47.5720991,81.7482903 C47.5971186,81.7436496 47.6166903,81.7198407 47.6338407,81.6764602 L47.821285,81.2121876 C47.8315752,81.1686053 47.8325841,81.1298655 47.824715,81.0979858 C47.8154336,81.0648956 47.7902124,81.0384637 47.7468319,81.0166726 C47.535377,80.9311221 47.3158513,80.8657487 47.087246,80.8257982 C46.8610619,80.7846372 46.6322549,80.7642584 46.4036496,80.7642584 C46.1544637,80.7642584 45.9349381,80.7961381 45.7440637,80.8576779 C45.5531894,80.9218407 45.3939929,81.0063823 45.2648602,81.1139257 C45.1369381,81.2236885 45.0386761,81.3518124 44.9735044,81.500315 C44.9083327,81.6500283 44.8750407,81.8136637 44.8750407,81.9930372 C44.8750407,82.1564708 44.903692,82.298315 44.9607929,82.4240177 C45.0178938,82.5497204 45.1004177,82.6619044 45.2089699,82.7611752 C45.3175221,82.8620602 45.453515,82.9532602 45.6193699,83.0343717 C45.7852248,83.1168956 45.9795292,83.1967965 46.2012743,83.2791186 C46.4938407,83.3866619 46.714577,83.4873451 46.8610619,83.5799575 C47.0071434,83.6725699 47.079377,83.7960531 47.079377,83.9536354 C47.079377,84.0952779 47.023285,84.2098832 46.9088814,84.2988637 C46.7946796,84.388046 46.6241841,84.4338478 46.3967894,84.4338478 C46.2127752,84.4338478 45.999908,84.4086265 45.7612142,84.357377 C45.5233274,84.3057239 45.3060212,84.2324814 45.1105062,84.1412814 C45.0511858,84.1136389 45.0078053,84.1069805 44.9801628,84.1204991 C44.9539327,84.1342195 44.9266938,84.1650903 44.9002619,84.2143221 L44.7047469,84.6693133 C44.6613664,84.7562761 44.6797274,84.8214478 44.7620496,84.8650301 C44.8750407,84.93 45.0009451,84.9846796 45.1369381,85.0306832 C45.2719221,85.0785027 45.4135646,85.1140142 45.5598478,85.1414549 C45.7073416,85.1678867 45.8538265,85.1894761 45.999908,85.2021876 C46.1474018,85.215908 46.2858159,85.2225664 46.4173699,85.2225664 C46.6449664,85.2225664 46.8574301,85.1973451 47.0529451,85.1458938 C47.2484602,85.0946442 47.418754,85.0145416 47.5628177,84.9094195 C47.7068814,84.8042973 47.8190655,84.6693133 47.9011858,84.5068885 C47.983508,84.3446655 48.0236602,84.1548 48.0236602,83.9376956 C48.0236602,83.736531 47.9847186,83.5648248 47.9058265,83.4256035 Z M51.827023,83.4256035 C51.7483327,83.2837593 51.6452283,83.161285 51.5173062,83.0585841 C51.3903929,82.9556814 51.2441097,82.867508 51.0782549,82.7944673 C50.9136106,82.7214265 50.7433168,82.6528248 50.5706018,82.5864425 C50.418669,82.5337805 50.2895363,82.4811186 50.1830018,82.4320885 C50.0778796,82.3828566 49.9923292,82.3370549 49.9281664,82.2892354 C49.8617841,82.2434336 49.8139646,82.1931929 49.7853133,82.1393204 C49.7544425,82.0856496 49.7407221,82.0204779 49.7407221,81.9438053 C49.7407221,81.8409027 49.7865239,81.7472814 49.8791363,81.6627398 C49.9717487,81.5792071 50.1180319,81.5378442 50.3179858,81.5378442 C50.5032106,81.5378442 50.674715,81.5505558 50.8337097,81.5781982 C50.9949239,81.6054372 51.1801487,81.6556779 51.3926124,81.7323504 C51.4349841,81.7482903 51.4680743,81.7541416 51.4932956,81.7482903 C51.5173062,81.7436496 51.5390973,81.7198407 51.5538265,81.6764602 L51.7414726,81.2121876 C51.7529735,81.1686053 51.7539823,81.1298655 51.7459115,81.0979858 C51.7378407,81.0648956 51.7118124,81.0384637 51.6682301,81.0166726 C51.4567752,80.9311221 51.2372496,80.8657487 51.0096531,80.8257982 C50.7810478,80.7846372 50.5548637,80.7642584 50.3260566,80.7642584 C50.0768708,80.7642584 49.8563363,80.7961381 49.6652602,80.8576779 C49.4743858,80.9218407 49.3143823,81.0063823 49.1872673,81.1139257 C49.0581345,81.2236885 48.9610832,81.3518124 48.8959115,81.500315 C48.8295292,81.6500283 48.7974478,81.8136637 48.7974478,81.9930372 C48.7974478,82.1564708 48.8250903,82.298315 48.8821912,82.4240177 C48.9380814,82.5497204 49.0216142,82.6619044 49.1303681,82.7611752 C49.2389204,82.8620602 49.3749133,82.9532602 49.5405664,83.0343717 C49.7064212,83.1168956 49.8997168,83.1967965 50.1226726,83.2791186 C50.4164496,83.3866619 50.6347646,83.4873451 50.7810478,83.5799575 C50.927331,83.6725699 51.0015823,83.7960531 51.0015823,83.9536354 C51.0015823,84.0952779 50.9446832,84.2098832 50.8300779,84.2988637 C50.7170867,84.388046 50.5455823,84.4338478 50.3179858,84.4338478 C50.1341735,84.4338478 49.9225168,84.4086265 49.6836212,84.357377 C49.4447257,84.3057239 49.2274195,84.2324814 49.0319044,84.1412814 C48.9725841,84.1136389 48.9290018,84.1069805 48.9027717,84.1204991 C48.875331,84.1342195 48.8491009,84.1650903 48.8204496,84.2143221 L48.6261451,84.6693133 C48.5825628,84.7562761 48.6021345,84.8214478 48.6820354,84.8650301 C48.7974478,84.93 48.920931,84.9846796 49.0581345,85.0306832 C49.1941274,85.0785027 49.3347611,85.1140142 49.4824566,85.1414549 C49.6287398,85.1678867 49.7762336,85.1894761 49.9225168,85.2021876 C50.0688,85.215908 50.208223,85.2225664 50.3373558,85.2225664 C50.5661628,85.2225664 50.7788283,85.1973451 50.9741416,85.1458938 C51.1696566,85.0946442 51.3401522,85.0145416 51.4842159,84.9094195 C51.6280779,84.8042973 51.7414726,84.6693133 51.8225841,84.5068885 C51.9036956,84.3446655 51.9448566,84.1548 51.9448566,83.9376956 C51.9448566,83.736531 51.9049062,83.5648248 51.827023,83.4256035 Z M55.1550159,81.4615752 C55.2385487,81.6260177 55.3586018,81.7745204 55.5163858,81.9074867 C55.6729593,82.0400496 55.8694832,82.1645416 56.1015186,82.2777345 C56.3349664,82.3919363 56.5990832,82.5063398 56.8916496,82.6195327 C57.085954,82.6962053 57.2552389,82.7668248 57.3958726,82.8356283 C57.5377168,82.9030195 57.6529274,82.9728319 57.7455398,83.047285 C57.8381522,83.119115 57.9055434,83.2002265 57.9491257,83.2869876 C57.9925062,83.3729416 58.0142973,83.4736248 58.0142973,83.5878265 C58.0142973,83.7982726 57.9285451,83.9756283 57.7570407,84.1172708 C57.5867469,84.2577027 57.2949876,84.3277168 56.8825699,84.3277168 C56.6230938,84.3277168 56.3521168,84.2920035 56.0742796,84.2177522 C55.794223,84.1457204 55.5244566,84.0543186 55.2637699,83.9467752 C55.1836673,83.9124743 55.1231363,83.9376956 55.0854053,84.0188071 L54.8406584,84.5722619 C54.7982867,84.6693133 54.8144283,84.7356956 54.8908991,84.7675752 C55.2098973,84.9415009 55.5575469,85.0603434 55.9314265,85.1245062 C56.306315,85.190485 56.6640531,85.2225664 57.0060531,85.2225664 C57.2929699,85.2225664 57.560315,85.1894761 57.8109133,85.1218832 C58.0598973,85.0532814 58.2759929,84.9515894 58.4579894,84.8157982 C58.6385735,84.6808142 58.7824354,84.5080991 58.8875575,84.2988637 C58.9953027,84.0908389 59.0477628,83.8450832 59.0477628,83.5628071 C59.0477628,83.303331 58.9997416,83.0825947 58.9049097,82.9008 C58.8100779,82.7177947 58.6809451,82.5602124 58.5183186,82.4240177 C58.354885,82.2892354 58.1686513,82.1701912 57.9571965,82.0709204 C57.7455398,81.9700354 57.5225841,81.8707646 57.2905487,81.7733097 C57.0677947,81.6867504 56.8789381,81.6078584 56.7247858,81.5334053 C56.5704319,81.4615752 56.4410973,81.3871221 56.3383965,81.3128708 C56.235292,81.2408389 56.1600319,81.1641664 56.1154407,81.086485 C56.0684283,81.0075929 56.0456283,80.9184106 56.0456283,80.8211575 C56.0456283,80.6645841 56.1085805,80.5275823 56.2365027,80.4109593 C56.3646265,80.2931257 56.5692212,80.235823 56.8516991,80.235823 C57.0734442,80.235823 57.3147611,80.2588248 57.575246,80.3044248 C57.8349239,80.3502265 58.1000496,80.4198372 58.3722372,80.5124496 C58.4156177,80.5227398 58.4464885,80.5251611 58.4658584,80.5205204 C58.4842195,80.5148708 58.5058088,80.4829912 58.5263894,80.4222584 L58.7219044,79.8700142 C58.742485,79.8151327 58.7493451,79.7774018 58.738046,79.7556106 C58.727554,79.7340212 58.700315,79.7100106 58.6567327,79.6825699 C58.5322407,79.6288991 58.396046,79.5794655 58.2497628,79.5362867 C58.1034796,79.4929062 57.9513451,79.4586053 57.7947717,79.4309628 C57.6369876,79.4025133 57.4802124,79.3819327 57.3226301,79.3645805 C57.164846,79.3488425 57.0139221,79.3407717 56.8676389,79.3407717 C56.5577204,79.3407717 56.287954,79.3785027 56.0571292,79.4549735 C55.8273133,79.5304354 55.6364389,79.6379788 55.4843044,79.7761912 C55.3323717,79.9135965 55.2177664,80.0780389 55.1425062,80.2681062 C55.0660354,80.4589805 55.0283044,80.6668035 55.0283044,80.8944 C55.0283044,81.1058549 55.0704743,81.2945097 55.1550159,81.4615752 Z M61.1625133,84.2873628 C61.0267221,84.2167434 60.9191788,84.1192885 60.8402867,83.9947965 C60.7626053,83.8703044 60.7077239,83.7250301 60.6744319,83.5579646 C60.6413416,83.3935221 60.6254018,83.2175788 60.6254018,83.0254938 C60.6254018,82.8422867 60.6437628,82.6641239 60.6825027,82.4926195 C60.7204354,82.3223257 60.7809664,82.1726124 60.865508,82.0412602 C60.9502513,81.9119257 61.0588035,81.8068035 61.1913664,81.7289204 C61.3237274,81.6500283 61.4827221,81.6100779 61.6667363,81.6100779 C61.8247221,81.6100779 61.9734265,81.6284389 62.115069,81.6627398 C62.254492,81.6990584 62.390485,81.7402195 62.5208283,81.7896531 C62.586,81.8156814 62.6307929,81.8249628 62.6558124,81.8136637 C62.679823,81.8043823 62.7038336,81.775731 62.7244142,81.7323504 L62.9277982,81.2521381 C62.9554407,81.1984673 62.9633097,81.157508 62.9530195,81.1298655 C62.9415186,81.1036354 62.9116566,81.0774053 62.8628283,81.0499646 C62.6786124,80.9515009 62.4818867,80.8806796 62.2726513,80.8326584 C62.0646265,80.7870584 61.8487327,80.7642584 61.6269876,80.7642584 C61.321508,80.7642584 61.0507327,80.8167186 60.8094159,80.9240602 C60.5670903,81.0293841 60.3614867,81.1801062 60.1899823,81.3790513 C60.0194867,81.5769876 59.8879327,81.8156814 59.7953204,82.0947292 C59.7029097,82.373777 59.657108,82.6847044 59.657108,83.0254938 C59.657108,83.7524708 59.8183221,84.301285 60.1417593,84.6693133 C60.4641876,85.0375434 60.929469,85.2225664 61.5378053,85.2225664 C61.7583398,85.2225664 61.998446,85.2021876 62.2579221,85.1620354 C62.514977,85.1218832 62.755285,85.0375434 62.9770301,84.9140602 C63.0637912,84.8650301 63.0799327,84.7974372 63.0250513,84.7104743 L62.8226761,84.2395434 C62.8067363,84.1959611 62.7849451,84.1687221 62.7609345,84.1572212 C62.7369239,84.1457204 62.6945522,84.1548 62.6352319,84.1812319 C62.5208283,84.2361133 62.3779752,84.2841345 62.2032425,84.3277168 C62.0305274,84.3710973 61.8568035,84.3926867 61.6840885,84.3926867 C61.471423,84.3926867 61.298708,84.3583858 61.1625133,84.2873628 Z M67.5327929,84.9951717 L67.5327929,82.6528248 C67.5327929,82.0604283 67.3933699,81.598577 67.1133133,81.2648496 C66.8342655,80.9311221 66.3929947,80.7642584 65.7917204,80.7642584 C65.6452354,80.7642584 65.4795823,80.777777 65.2921381,80.8017876 C65.104492,80.8257982 64.9319788,80.8647398 64.7741947,80.9184106 L64.7741947,79.3236212 C64.7741947,79.2640991 64.7639044,79.227377 64.742315,79.2102265 C64.7203221,79.1942867 64.6793628,79.1864177 64.6198407,79.1864177 L63.9854761,79.1864177 C63.9318053,79.1864177 63.8916531,79.1942867 63.8676425,79.2102265 C63.8434301,79.227377 63.8309204,79.2640991 63.8309204,79.3236212 L63.8309204,84.9951717 C63.8309204,85.054492 63.8434301,85.0936354 63.8676425,85.1083646 C63.8916531,85.1245062 63.9318053,85.1335858 63.9854761,85.1335858 L64.6198407,85.1335858 C64.6793628,85.1335858 64.7203221,85.1245062 64.742315,85.1083646 C64.7639044,85.0936354 64.7741947,85.054492 64.7741947,84.9951717 L64.7741947,81.7174195 C64.8883965,81.6671788 65.0221699,81.6340885 65.1765239,81.6145168 C65.3310796,81.5951469 65.4807929,81.5860673 65.6202159,81.5860673 C65.9620142,81.5860673 66.2065593,81.6833204 66.3528425,81.8752035 C66.4993274,82.0674903 66.5725699,82.3485558 66.5725699,82.7165841 L66.5725699,84.9951717 C66.5725699,85.054492 66.5850796,85.0936354 66.6100991,85.1083646 C66.6331009,85.1245062 66.6730513,85.1335858 66.7269239,85.1335858 L67.3693593,85.1335858 C67.4298903,85.1335858 67.4710513,85.1245062 67.4960708,85.1083646 C67.5200814,85.0936354 67.5327929,85.054492 67.5327929,84.9951717 Z M71.8656,81.3538301 C71.5318726,80.9607823 71.0423788,80.7642584 70.396715,80.7642584 C70.1027363,80.7642584 69.8364,80.8144991 69.5950832,80.9149805 C69.3539681,81.0156637 69.147154,81.1607363 68.9720177,81.3506018 C68.7995044,81.5402655 68.6633097,81.7733097 68.5664602,82.0491292 C68.4679965,82.3269664 68.4199752,82.6435434 68.4199752,83.0012814 C68.4199752,83.7284602 68.5811894,84.2805027 68.9036177,84.6578124 C69.2258442,85.0351221 69.7153381,85.2225664 70.3727044,85.2225664 C71.0332991,85.2225664 71.5318726,85.0282619 71.8656,84.6418726 C72.1983186,84.2532637 72.3651823,83.6985982 72.3651823,82.9772708 C72.3651823,82.2892354 72.1983186,81.7472814 71.8656,81.3538301 Z M71.3442265,83.5456566 C71.3089168,83.7181699 71.2516142,83.8690938 71.1729239,83.9994372 C71.0952425,84.1307894 70.9909274,84.2361133 70.8607858,84.3150053 C70.7292319,84.395108 70.5702372,84.4338478 70.3805735,84.4338478 C70.005685,84.4338478 69.7460071,84.3037062 69.598715,84.0450372 C69.4522301,83.7855611 69.3801982,83.4298407 69.3801982,82.9772708 C69.3801982,82.7761062 69.3999717,82.5864425 69.440931,82.4125168 C69.482092,82.2387929 69.5448425,82.087869 69.6318053,81.9621664 C69.7175575,81.8376743 69.8273204,81.7382018 69.9564531,81.6649593 C70.0867965,81.590708 70.238931,81.552977 70.4124531,81.552977 C70.6081699,81.552977 70.7693841,81.5917168 70.8973062,81.6671788 C71.0240177,81.7450619 71.1247009,81.8501841 71.1981451,81.9827469 C71.2711858,82.117731 71.3226372,82.2708743 71.3522973,82.4445982 C71.3833699,82.6195327 71.3968885,82.8059681 71.3968885,83.0012814 C71.3968885,83.1935681 71.3785274,83.3729416 71.3442265,83.5456566 Z M76.5426265,81.3538301 C76.2101097,80.9607823 75.7208177,80.7642584 75.0737416,80.7642584 C74.7809735,80.7642584 74.5144354,80.8144991 74.2733204,80.9149805 C74.0322053,81.0156637 73.8251894,81.1607363 73.6502549,81.3506018 C73.4775398,81.5402655 73.3417487,81.7733097 73.2442938,82.0491292 C73.1460319,82.3269664 73.0980106,82.6435434 73.0980106,83.0012814 C73.0980106,83.7284602 73.2592248,84.2805027 73.5814513,84.6578124 C73.9038796,85.0351221 74.3933735,85.2225664 75.0505381,85.2225664 C75.7115363,85.2225664 76.2101097,85.0282619 76.5426265,84.6418726 C76.876354,84.2532637 77.0434195,83.6985982 77.0434195,82.9772708 C77.0434195,82.2892354 76.876354,81.7472814 76.5426265,81.3538301 Z M76.0224637,83.5456566 C75.9869522,83.7181699 75.9298513,83.8690938 75.8509593,83.9994372 C75.7730761,84.1307894 75.667954,84.2361133 75.5388212,84.3150053 C75.407469,84.395108 75.2484743,84.4338478 75.0586088,84.4338478 C74.6837204,84.4338478 74.4242442,84.3037062 74.2765487,84.0450372 C74.1304673,83.7855611 74.0572248,83.4298407 74.0572248,82.9772708 C74.0572248,82.7761062 74.0778053,82.5864425 74.1189664,82.4125168 C74.1589168,82.2387929 74.2230796,82.087869 74.3098407,81.9621664 C74.3955929,81.8376743 74.5053558,81.7382018 74.6346903,81.6649593 C74.7648319,81.590708 74.9167646,81.552977 75.090892,81.552977 C75.2860035,81.552977 75.4472177,81.5917168 75.5743327,81.6671788 C75.7024566,81.7450619 75.8017274,81.8501841 75.8761805,81.9827469 C75.9492212,82.117731 76.0006726,82.2708743 76.0305345,82.4445982 C76.0587823,82.6195327 76.0751257,82.8059681 76.0751257,83.0012814 C76.0751257,83.1935681 76.0567646,83.3729416 76.0224637,83.5456566 Z M79.6716743,84.481869 C79.6648142,84.4382867 79.6533133,84.4110478 79.6349522,84.3971257 C79.6145735,84.3836071 79.5847115,84.3789664 79.541331,84.3858265 C79.5025912,84.3904673 79.455377,84.395108 79.3984779,84.4019681 C79.3423858,84.4062053 79.2921451,84.4098372 79.2485628,84.4098372 C79.1400106,84.4098372 79.0657593,84.3836071 79.0280283,84.331954 C78.991508,84.2805027 78.9709274,84.1846619 78.9709274,84.0430195 L78.9709274,79.3236212 C78.9709274,79.2640991 78.9594265,79.227377 78.9342053,79.2102265 C78.9101947,79.1942867 78.867823,79.1864177 78.8083009,79.1864177 L78.1660673,79.1864177 C78.1121947,79.1864177 78.0722442,79.1942867 78.0482336,79.2102265 C78.024223,79.227377 78.0115115,79.2640991 78.0115115,79.3236212 L78.0115115,84.271423 C78.0115115,84.6235115 78.0815257,84.8706796 78.2231681,85.0111115 C78.3636,85.1517451 78.5855469,85.2225664 78.8896142,85.2225664 C78.9983681,85.2225664 79.1216496,85.215908 79.2600637,85.2021876 C79.3984779,85.1894761 79.5207504,85.1598159 79.6305133,85.117646 C79.6841841,85.0900035 79.7160637,85.0672035 79.7287752,85.0476319 C79.7390655,85.0282619 79.7390655,84.9929522 79.7287752,84.9368602 L79.6716743,84.481869 L79.6716743,84.481869 Z" id="Fill-5" fill="#FFFFFF"></path>
                    <path d="M23.7392389,69.5260779 C23.7723292,69.4895575 23.7801982,69.4564673 23.7630478,69.4302372 C23.747108,69.4015858 23.7152283,69.3890761 23.6659965,69.3890761 L22.8361168,69.3890761 C22.7548035,69.3890761 22.6896319,69.3981558 22.6404,69.416315 C22.5913699,69.435685 22.5512177,69.4643363 22.5191363,69.5020673 L21.2822867,71.0157451 L20.4693558,72.048 L20.4362655,72.0320602 L20.4362655,69.5603788 C20.4362655,69.4837062 20.4237558,69.435685 20.3997451,69.416315 C20.3757345,69.3981558 20.325292,69.3890761 20.2488212,69.3890761 L19.6394761,69.3890761 C19.579954,69.3890761 19.5331434,69.3991646 19.5012637,69.4209558 C19.4679717,69.4427469 19.4520319,69.4895575 19.4520319,69.5603788 L19.4520319,74.9131327 C19.4520319,74.983954 19.4679717,75.0297558 19.5012637,75.0513451 C19.5331434,75.0729345 19.579954,75.0844354 19.6394761,75.0844354 L20.2488212,75.0844354 C20.325292,75.0844354 20.3757345,75.0753558 20.3997451,75.0547752 C20.4237558,75.0366159 20.4362655,74.9885947 20.4362655,74.9131327 L20.4362655,73.5295965 L21.4685204,72.2606655 L22.9250973,74.9131327 C22.9743292,74.9998938 23.0199292,75.0501345 23.0645204,75.062846 C23.1081027,75.077777 23.1799327,75.0844354 23.2830372,75.0844354 L24.0077947,75.0844354 C24.1322867,75.0844354 24.1587186,75.0204743 24.0889062,74.8967894 L22.1523186,71.4388566 L23.7392389,69.5260779 Z M26.7173628,75.7829628 L28.3440319,70.9174832 C28.3714726,70.8476708 28.3440319,70.8121593 28.2629204,70.8121593 L27.5220212,70.8121593 C27.4624991,70.8121593 27.4225487,70.8202301 27.4043894,70.8361699 C27.3860283,70.8533204 27.3698867,70.8819717 27.3597982,70.925554 L26.7583221,72.7729593 L26.3011115,74.2626265 L26.2530903,74.2626265 L25.8301805,72.7888991 L25.2767257,70.9174832 C25.2654265,70.8751115 25.2504956,70.8464602 25.2276956,70.831731 C25.2059044,70.8190195 25.165954,70.8121593 25.1064319,70.8121593 L24.3576637,70.8121593 C24.2765522,70.8121593 24.2456814,70.8498903 24.2682796,70.925554 L25.4883823,74.6605168 C25.5374124,74.8183009 25.5935044,74.9131327 25.655246,74.9450124 C25.7169876,74.9770938 25.7980991,74.9942442 25.8953522,74.9942442 L26.0906655,74.9942442 L25.9203717,75.5016956 C25.8541912,75.696 25.7660177,75.8297735 25.655246,75.9030159 C25.5442726,75.9750478 25.3933487,76.0105593 25.203685,76.0105593 C25.1326619,76.0105593 25.072131,76.0059186 25.0206796,75.9990584 C24.9692283,75.989777 24.8971965,75.9762584 24.8055929,75.9532566 C24.7565628,75.9431681 24.7200425,75.9417558 24.6948212,75.9510372 C24.6708106,75.9578973 24.6538619,75.9887681 24.6423611,76.0448602 L24.5277558,76.5454513 C24.5176673,76.5936743 24.5188779,76.6301947 24.5323965,76.6517841 C24.545108,76.6735752 24.5826372,76.6897168 24.6423611,76.7022265 C24.7771434,76.7443965 24.9097062,76.7718372 25.0366195,76.7833381 C25.1647434,76.7948389 25.2710761,76.8004885 25.3580389,76.8004885 C25.6998372,76.8004885 25.9811044,76.7228071 26.2004283,76.5684531 C26.419954,76.4140991 26.5914584,76.1497805 26.7173628,75.7750938 L26.7173628,75.7829628 Z M30.0108531,69.2837522 C29.8976602,69.1693487 29.7594478,69.1122478 29.597023,69.1122478 C29.4345982,69.1122478 29.2963858,69.1693487 29.1809735,69.2837522 C29.0675788,69.3969451 29.0116885,69.5353593 29.0116885,69.6975823 C29.0116885,69.8600071 29.0675788,69.9994301 29.1809735,70.1116142 C29.2963858,70.2270265 29.4345982,70.2829168 29.597023,70.2829168 C29.7594478,70.2829168 29.8976602,70.2270265 30.0108531,70.1116142 C30.1262655,69.9994301 30.1821558,69.8600071 30.1821558,69.6975823 C30.1821558,69.5353593 30.1262655,69.3969451 30.0108531,69.2837522 Z M30.060085,70.9505735 C30.060085,70.8910513 30.0485841,70.8533204 30.0245735,70.8361699 C29.999554,70.8202301 29.9571823,70.8121593 29.8976602,70.8121593 L29.2711646,70.8121593 C29.2174938,70.8121593 29.1775434,70.8202301 29.1535327,70.8361699 C29.1283115,70.8533204 29.1168106,70.8910513 29.1168106,70.9505735 L29.1168106,74.9450124 C29.1168106,75.0045345 29.1283115,75.0432743 29.1535327,75.0594159 C29.1775434,75.0753558 29.2174938,75.0844354 29.2711646,75.0844354 L29.8976602,75.0844354 C29.9571823,75.0844354 29.999554,75.0753558 30.0245735,75.0594159 C30.0485841,75.0432743 30.060085,75.0045345 30.060085,74.9450124 L30.060085,70.9505735 Z M34.901554,70.9174832 C34.9279858,70.8476708 34.901554,70.8121593 34.8192319,70.8121593 L34.103554,70.8121593 C34.0442336,70.8121593 34.0040814,70.8202301 33.9859221,70.8361699 C33.9675611,70.8533204 33.9516212,70.8819717 33.941331,70.925554 L33.3400566,72.8540708 L32.9397451,74.2293345 L32.890715,74.2293345 L32.4928248,72.846 L31.8663292,70.9174832 C31.8548283,70.8751115 31.8400991,70.8464602 31.8170973,70.831731 C31.7965168,70.8190195 31.7553558,70.8121593 31.6958336,70.8121593 L30.9632071,70.8121593 C30.8820956,70.8121593 30.8522336,70.8498903 30.8740248,70.925554 L32.1921876,74.7256885 C32.251508,74.8992106 32.3178903,75.0091752 32.3911327,75.0547752 C32.4653841,75.1003752 32.5612248,75.1231752 32.680269,75.1231752 L33.1352602,75.1231752 C33.2758938,75.1231752 33.3800071,75.0971469 33.4486088,75.0432743 C33.516,74.9885947 33.5777416,74.8832708 33.632623,74.7256885 L34.901554,70.9174832 Z M37.6672142,73.0493841 L37.6672142,72.3819292 C37.6672142,72.3226088 37.6589416,72.2822549 37.6430018,72.2606655 C37.6270619,72.240085 37.589331,72.2275752 37.5300106,72.2275752 L35.568,72.2275752 C35.5084779,72.2275752 35.4697381,72.240085 35.4537982,72.2606655 C35.4388673,72.2822549 35.4309982,72.3226088 35.4309982,72.3819292 L35.4309982,73.0493841 C35.4309982,73.1032566 35.4388673,73.1434088 35.4537982,73.1684283 C35.4697381,73.1922372 35.5084779,73.2039398 35.568,73.2039398 L37.5300106,73.2039398 C37.589331,73.2039398 37.6270619,73.1922372 37.6430018,73.1684283 C37.6589416,73.1434088 37.6672142,73.1032566 37.6672142,73.0493841 Z M43.3385628,74.9131327 C43.3385628,74.9885947 43.3522832,75.0366159 43.383154,75.0547752 C43.4118053,75.0753558 43.4563965,75.0844354 43.5157168,75.0844354 L44.0943929,75.0844354 C44.1652142,75.0844354 44.2142442,75.0753558 44.2406761,75.0547752 C44.2681168,75.0366159 44.2816354,74.9885947 44.2816354,74.9131327 L44.2816354,69.8600071 C44.2816354,69.6919327 44.2465274,69.5694584 44.1755044,69.4939965 C44.1046832,69.4187363 43.9834195,69.3797947 43.8096956,69.3797947 L43.5009876,69.3797947 C43.3593451,69.3797947 43.2505912,69.4050159 43.1751292,69.4528354 C43.0996673,69.5020673 43.0310655,69.5993204 42.9715434,69.7468142 L42.0113204,72.1222513 L41.5070973,73.3913841 L41.4740071,73.3913841 L40.9697841,72.1303221 L40.0014903,69.7468142 C39.9419681,69.5993204 39.8782088,69.5020673 39.806177,69.4528354 C39.7363646,69.4050159 39.6312425,69.3797947 39.4893982,69.3797947 L39.1566796,69.3797947 C38.9714549,69.3797947 38.8469628,69.4209558 38.7817912,69.5020673 C38.7166195,69.5843894 38.6833274,69.7090832 38.6833274,69.8771575 L38.6833274,74.9131327 C38.6833274,74.9885947 38.7004779,75.0366159 38.7325593,75.0547752 C38.7656496,75.0753558 38.8114513,75.0844354 38.8709735,75.0844354 L39.4575186,75.0844354 C39.5283398,75.0844354 39.5773699,75.0753558 39.6036,75.0547752 C39.6312425,75.0366159 39.6437522,74.9885947 39.6437522,74.9131327 L39.6437522,71.2512106 L39.6929841,71.2512106 L40.1318336,72.3407681 L40.8487221,74.0578301 C40.9023929,74.1994726 40.958485,74.2932956 41.014577,74.3437381 C41.0716779,74.3917593 41.1675186,74.4169805 41.3037133,74.4169805 L41.6697239,74.4169805 C41.8057168,74.4169805 41.9015575,74.3917593 41.9586584,74.3437381 C42.0159611,74.2932956 42.0742726,74.1994726 42.1337947,74.0578301 L42.8585522,72.2606655 L43.2895327,71.1541593 L43.3385628,71.1541593 L43.3385628,74.9131327 Z M48.7038265,71.3038726 C48.3700991,70.9116319 47.8808071,70.715108 47.2347398,70.715108 C46.9421735,70.715108 46.6746265,70.7643398 46.4333097,70.8648212 C46.1921947,70.9655044 45.9841699,71.1107788 45.8102442,71.3002407 C45.637731,71.490308 45.5017381,71.723554 45.404485,72.0001805 C45.3060212,72.2766053 45.258,72.5945947 45.258,72.9525345 C45.258,73.6793097 45.4182053,74.2305451 45.7418442,74.6078549 C46.0652814,74.983954 46.5545735,75.1736177 47.2107292,75.1736177 C47.8727363,75.1736177 48.3700991,74.979515 48.7038265,74.5907044 C49.0377558,74.2041133 49.2034088,73.6486407 49.2034088,72.9285239 C49.2034088,72.240085 49.0377558,71.6969204 48.7038265,71.3038726 Z M48.1824531,73.4965062 C48.1471434,73.6668 48.0898407,73.8201451 48.0109487,73.9502867 C47.9332673,74.0808319 47.829154,74.185954 47.6988106,74.2658549 C47.5674584,74.3437381 47.4084637,74.3834867 47.2175894,74.3834867 C46.8449204,74.3834867 46.5832248,74.2545558 46.4367398,73.9962903 C46.2904566,73.7366124 46.2184248,73.3810938 46.2184248,72.9285239 C46.2184248,72.7249381 46.2379965,72.5374938 46.2791575,72.3635681 C46.3201168,72.1888354 46.3828673,72.0379115 46.4700319,71.9130159 C46.5569947,71.7873133 46.6653451,71.6878407 46.7956885,71.6135894 C46.9248212,71.5405487 47.0769558,71.5038265 47.2508814,71.5038265 C47.4463965,71.5038265 47.6076106,71.5417593 47.735331,71.6182301 C47.862446,71.6947009 47.9619186,71.7988142 48.0361699,71.9337982 C48.1082018,72.0673699 48.1596531,72.220715 48.1905239,72.3956496 C48.2201841,72.5705841 48.235115,72.7558088 48.235115,72.9525345 C48.235115,73.1434088 48.2179646,73.3239929 48.1824531,73.4965062 Z M53.8003327,74.9450124 L53.8003327,72.6024637 C53.8003327,72.0114796 53.6596991,71.5484177 53.3818619,71.2159009 C53.1018053,70.8819717 52.6617451,70.715108 52.0580496,70.715108 C51.9117664,70.715108 51.7459115,70.7264071 51.5584673,70.7516283 C51.371023,70.7768496 51.1995186,70.8145805 51.0429451,70.8694619 L51.0429451,69.2746726 C51.0429451,69.2151504 51.0304354,69.1764106 51.0096531,69.160269 C50.9868531,69.1443292 50.9479115,69.1352496 50.8873805,69.1352496 L50.2530159,69.1352496 C50.1981345,69.1352496 50.1604035,69.1443292 50.1351823,69.160269 C50.1101628,69.1764106 50.0986619,69.2151504 50.0986619,69.2746726 L50.0986619,74.9450124 C50.0986619,75.0045345 50.1101628,75.0432743 50.1351823,75.0594159 C50.1604035,75.0753558 50.1981345,75.0844354 50.2530159,75.0844354 L50.8873805,75.0844354 C50.9479115,75.0844354 50.9868531,75.0753558 51.0096531,75.0594159 C51.0304354,75.0432743 51.0429451,75.0045345 51.0429451,74.9450124 L51.0429451,71.6662513 C51.1561381,71.6182301 51.2911221,71.5839292 51.4452743,71.5655681 C51.5996283,71.5461982 51.7471221,71.535908 51.8887646,71.535908 C52.229554,71.535908 52.4740991,71.6331611 52.6205841,71.825246 C52.7668673,72.0185416 52.839908,72.2973876 52.839908,72.6678372 L52.839908,74.9450124 C52.839908,75.0045345 52.8526195,75.0432743 52.8764283,75.0594159 C52.9016496,75.0753558 52.9405912,75.0844354 52.9954726,75.0844354 L53.6381097,75.0844354 C53.6974301,75.0844354 53.7398018,75.0753558 53.7626018,75.0594159 C53.787823,75.0432743 53.8003327,75.0045345 53.8003327,74.9450124 Z M56.8595681,75.7829628 L58.4864389,70.9174832 C58.5138796,70.8476708 58.4864389,70.8121593 58.4051257,70.8121593 L57.6644283,70.8121593 C57.605108,70.8121593 57.5649558,70.8202301 57.5465947,70.8361699 C57.5284354,70.8533204 57.5124956,70.8819717 57.5022053,70.925554 L56.8995186,72.7729593 L56.4435186,74.2626265 L56.3954973,74.2626265 L55.9723858,72.7888991 L55.4191327,70.9174832 C55.4076319,70.8751115 55.391692,70.8464602 55.3699009,70.831731 C55.3481097,70.8190195 55.3083611,70.8121593 55.2488389,70.8121593 L54.4988602,70.8121593 C54.4189593,70.8121593 54.3878867,70.8498903 54.4108885,70.925554 L55.6305876,74.6605168 C55.6798195,74.8183009 55.7347009,74.9131327 55.7976531,74.9450124 C55.8591929,74.9770938 55.9392956,74.9942442 56.0375575,74.9942442 L56.2332743,74.9942442 L56.0617699,75.5016956 C55.9963965,75.696 55.9084248,75.8297735 55.7976531,75.9030159 C55.6866796,75.9750478 55.5357558,76.0105593 55.3458903,76.0105593 C55.2752708,76.0105593 55.2145381,76.0059186 55.1630867,75.9990584 C55.1116354,75.989777 55.0396035,75.9762584 54.9482018,75.9532566 C54.8989699,75.9431681 54.8624496,75.9417558 54.8372283,75.9510372 C54.8132177,75.9578973 54.7960673,75.9887681 54.7847681,76.0448602 L54.6703646,76.5454513 C54.6600743,76.5936743 54.6610832,76.6301947 54.6748035,76.6517841 C54.687515,76.6735752 54.7240354,76.6897168 54.7847681,76.7022265 C54.9195504,76.7443965 55.0521133,76.7718372 55.1790265,76.7833381 C55.3059398,76.7948389 55.4134832,76.8004885 55.5002442,76.8004885 C55.8420425,76.8004885 56.1233097,76.7228071 56.3416248,76.5684531 C56.5623611,76.4140991 56.7338655,76.1497805 56.8595681,75.7750938 L56.8595681,75.7829628 Z M60.8287858,74.4329204 C60.8231363,74.3893381 60.8118372,74.3608885 60.7922655,74.3483788 C60.7728956,74.333246 60.741823,74.3300177 60.6996531,74.3344566 C60.6609133,74.3413168 60.6141027,74.3459575 60.5568,74.3503965 C60.4996991,74.3574584 60.4494584,74.3594761 60.4070867,74.3594761 C60.2973239,74.3594761 60.2240814,74.333246 60.1863504,74.2819965 C60.1476106,74.2305451 60.1292496,74.1345027 60.1292496,73.9926584 L60.1292496,69.2746726 C60.1292496,69.2151504 60.1177487,69.1764106 60.0927292,69.160269 C60.0685168,69.1443292 60.0265487,69.1352496 59.9670265,69.1352496 L59.3233805,69.1352496 C59.269508,69.1352496 59.2295575,69.1443292 59.2067575,69.160269 C59.1815363,69.1764106 59.1690265,69.2151504 59.1690265,69.2746726 L59.1690265,74.2214655 C59.1690265,74.573554 59.2398478,74.8205204 59.3814903,74.961154 C59.521115,75.1027965 59.7440708,75.1736177 60.0481381,75.1736177 C60.1554796,75.1736177 60.2801735,75.1667575 60.4183858,75.1530372 C60.5568,75.1395186 60.6802832,75.1108673 60.7878265,75.067285 C60.842708,75.0410549 60.8747894,75.0170442 60.8860885,74.9986832 C60.8973876,74.979515 60.8973876,74.9427929 60.8860885,74.8879115 L60.8287858,74.4329204 Z M65.036092,72.1797558 C65.036092,71.7015611 64.9033274,71.3381735 64.6404212,71.087777 C64.377515,70.8385912 63.963685,70.715108 63.3999398,70.715108 C63.161246,70.715108 62.9062088,70.733469 62.6352319,70.7677699 C62.3642549,70.8030796 62.115069,70.8638124 61.8864637,70.9505735 C61.8166513,70.9780142 61.7916319,71.035115 61.8132212,71.1218761 L61.927423,71.5849381 C61.937915,71.6341699 61.957285,71.6640319 61.9847257,71.6755327 C62.0109558,71.6856212 62.0545381,71.6834018 62.115069,71.6662513 C62.2498513,71.6228708 62.4259965,71.5849381 62.6431009,71.5518478 C62.8604071,71.5199681 63.0605628,71.5038265 63.2457876,71.5038265 C63.4183009,71.5038265 63.5599434,71.5221876 63.6674867,71.5564885 C63.7772496,71.5922018 63.8617912,71.6424425 63.9247434,71.7074124 C63.9862832,71.7725841 64.0286549,71.848046 64.0506478,71.9350088 C64.0722372,72.0217699 64.0837381,72.1168035 64.0837381,72.2195044 L64.0837381,72.3579186 L63.1713345,72.3579186 C62.8466867,72.3579186 62.5712708,72.3980708 62.3460956,72.4801912 C62.1219292,72.5613027 61.937915,72.668846 61.7972814,72.8014088 C61.6554372,72.9353841 61.5549558,73.0895363 61.4920035,73.2644708 C61.4304637,73.4418265 61.3981805,73.6234195 61.3981805,73.8130832 C61.3981805,73.998308 61.4256212,74.1732425 61.4807044,74.3390973 C61.5343752,74.5049522 61.6304177,74.6478053 61.7686301,74.7700779 C61.9070442,74.8925522 62.0944885,74.9908142 62.329954,75.062846 C62.5666301,75.1370973 62.8628283,75.1736177 63.2205664,75.1736177 C63.3509097,75.1736177 63.4881133,75.1691788 63.632177,75.161108 C63.7760389,75.1530372 63.9213133,75.138308 64.0677982,75.1153062 C64.2138796,75.0947257 64.3567327,75.0638549 64.4941381,75.0273345 C64.6325522,74.9885947 64.7614832,74.9427929 64.8805274,74.8879115 C64.9834301,74.8396885 65.036092,74.750708 65.036092,74.619154 L65.036092,72.1797558 Z M64.0756673,74.2785664 C64.0046442,74.3049982 63.9281735,74.3263858 63.8434301,74.3437381 C63.7590903,74.3594761 63.6801982,74.3736 63.6035257,74.3834867 C63.5280637,74.3939788 63.4548212,74.4008389 63.3886407,74.4032602 C63.3200389,74.4076991 63.2663681,74.408708 63.2286372,74.408708 C62.9689593,74.408708 62.7597239,74.3618973 62.6033522,74.2704956 C62.4455681,74.1778832 62.3664743,74.0144496 62.3664743,73.7824142 C62.3664743,73.6187788 62.3973451,73.4920673 62.4602973,73.3994549 C62.5220389,73.3068425 62.6019398,73.2370301 62.6969735,73.188 C62.7907965,73.139777 62.8912779,73.1089062 62.9976106,73.0986159 C63.1027327,73.0885274 63.2024071,73.0814655 63.2950195,73.0814655 L64.0756673,73.0814655 L64.0756673,74.2785664 L64.0756673,74.2785664 Z" id="Fill-6" fill="#FFFFFF"></path>
                </g>
            </g>
        </g>
    </g>
</svg>