<?xml version="1.0" encoding="UTF-8"?>
<svg width="138px" height="52px" viewBox="0 0 138 52" version="1.1" xmlns="http://www.w3.org/2000/svg" xmlns:xlink="http://www.w3.org/1999/xlink">
    <!-- Generator: sketchtool 42 (36781) - http://www.bohemiancoding.com/sketch -->
    <title>BFCC5BEA-ADB7-44EC-8B00-8E8FB0E1FD1B</title>
    <desc>Created with sketchtool.</desc>
    <defs></defs>
    <g id="Page-1" stroke="none" stroke-width="1" fill="none" fill-rule="evenodd">
        <g id="vogue_conf2017_landing_new" transform="translate(-997.000000, -3866.000000)" fill="#0057A3">
            <g id="Group-21" transform="translate(145.000000, 3840.000000)">
                <g id="logo-suur-_2_" transform="translate(851.000000, 26.000000)">
                    <path d="M10.5692952,42.0371213 L8.61535238,51.187788 L7.6582381,51.187788 L6.48401905,45.5411213 C6.31854286,44.707788 6.1438,43.791788 5.97832381,42.7651213 L5.85918095,42.7651213 C5.72415238,43.6411213 5.55867619,44.5571213 5.34686667,45.515788 L4.14749524,51.187788 L3.17449524,51.187788 L1.29733333,42.0371213 L2.06779048,42.0371213 L3.13875238,47.6251213 C3.2526,48.203788 3.41807619,49.1411213 3.62459048,50.4224547 L3.74902857,50.4224547 C4.0588,48.7131213 4.20971429,47.8024547 4.24545714,47.671788 L5.43953333,42.0371213 L6.44298095,42.0371213 L7.60131429,47.7131213 C7.62249524,47.8131213 7.78797143,48.7131213 8.09774286,50.4224547 L8.22218095,50.4224547 C8.25262857,50.2704547 8.33073333,49.7811213 8.47502857,48.9531213 C8.55313333,48.479788 8.6312381,48.0624547 8.70801905,47.6984547 L9.83060952,42.0371213 L10.5692952,42.0371213 Z" id="Fill-1"></path>
                    <path d="M22.2519143,42.0371213 L24.9140952,51.187788 L24.1383429,51.187788 L23.2911048,48.1611213 L20.2556095,48.1611213 L19.3818952,51.187788 L18.6524762,51.187788 L21.315981,42.0371213 L22.2519143,42.0371213 Z M23.1256286,47.499788 L22.4531333,45.1144547 C22.2201429,44.2811213 21.9977429,43.479788 21.8124095,42.687788 L21.7131238,42.687788 C21.5119048,43.5051213 21.3053905,44.307788 21.0829905,45.0984547 L20.4210857,47.499788 L23.1256286,47.499788 Z" id="Fill-2"></path>
                    <polygon id="Fill-3" points="38.9226476 42.0371213 38.9226476 42.7504547 36.3266571 42.7504547 36.3266571 51.187788 35.5985619 51.187788 35.5985619 42.7504547 33.0131619 42.7504547 33.0131619 42.0371213"></polygon>
                    <polygon id="Fill-4" points="52.771019 42.0371213 52.771019 42.7504547 48.5467429 42.7504547 48.5467429 45.9531213 51.7371238 45.9531213 51.7371238 46.671788 48.5467429 46.671788 48.5467429 50.4744547 52.8491238 50.4744547 52.8491238 51.187788 47.8173238 51.187788 47.8173238 42.0371213"></polygon>
                    <path d="M61.7848381,42.0371213 L64.4218667,42.0371213 C66.2315143,42.0371213 67.137,42.8131213 67.137,44.3851213 C67.137,44.999788 66.9609333,45.515788 66.629981,45.9171213 C66.3294762,46.291788 65.9005619,46.5411213 65.3683905,46.6824547 L67.338219,51.187788 L66.532019,51.187788 L64.6853048,46.807788 C64.5979333,46.8171213 64.4536381,46.8171213 64.2563905,46.8171213 L62.4983714,46.8171213 L62.4983714,51.187788 L61.7848381,51.187788 L61.7848381,42.0371213 Z M62.4983714,42.723788 L62.4983714,46.1411213 L64.2974286,46.1411213 C65.6781619,46.1411213 66.3771333,45.5624547 66.3771333,44.395788 C66.3771333,43.791788 66.2010667,43.3651213 65.8542286,43.103788 C65.5232762,42.8544547 65.0268476,42.723788 64.3649429,42.723788 L62.4983714,42.723788 Z" id="Fill-5"></path>
                    <path d="M87.7897524,42.0371213 L90.3804476,42.0371213 C91.3428571,42.0371213 92.0616857,42.2864547 92.5223714,42.775788 C92.9195143,43.1931213 93.1220571,43.7811213 93.1220571,44.5371213 C93.1220571,45.3904547 92.8427333,46.0411213 92.3052667,46.4944547 C91.8181048,46.895788 91.1562,47.0931213 90.3142571,47.0931213 L88.5138762,47.0931213 L88.5138762,51.187788 L87.7897524,51.187788 L87.7897524,42.0371213 Z M88.5138762,42.723788 L88.5138762,46.4171213 L90.2718952,46.4171213 C91.663219,46.4171213 92.3621905,45.791788 92.3621905,44.5464547 C92.3621905,43.327788 91.6844,42.723788 90.3394095,42.723788 L88.5138762,42.723788 Z" id="Fill-6"></path>
                    <path d="M107.781924,42.0371213 L107.781924,48.1771213 C107.781924,49.291788 107.472152,50.135788 106.84599,50.6984547 C106.349562,51.1411213 105.708838,51.3651213 104.933086,51.3651213 C104.01701,51.3651213 103.308771,51.0784547 102.812343,50.499788 C102.326505,49.947788 102.082924,49.1664547 102.082924,48.1771213 L102.082924,42.0371213 L102.812343,42.0371213 L102.812343,48.1411213 C102.812343,49.0411213 103.034743,49.707788 103.474248,50.119788 C103.840943,50.4744547 104.328105,50.6504547 104.952943,50.6504547 C105.661181,50.6504547 106.205267,50.4224547 106.577257,49.9584547 C106.924095,49.531788 107.089571,48.9264547 107.089571,48.1411213 L107.089571,42.0371213 L107.781924,42.0371213 Z" id="Fill-7"></path>
                    <path d="M117.71579,42.0371213 L120.352819,42.0371213 C122.162467,42.0371213 123.067952,42.8131213 123.067952,44.3851213 C123.067952,44.999788 122.891886,45.515788 122.560933,45.9171213 C122.265724,46.291788 121.831514,46.5411213 121.304638,46.6824547 L123.269171,51.187788 L122.462971,51.187788 L120.616257,46.807788 C120.528886,46.8171213 120.388562,46.8171213 120.187343,46.8171213 L118.434619,46.8171213 L118.434619,51.187788 L117.71579,51.187788 L117.71579,42.0371213 Z M118.434619,42.723788 L118.434619,46.1411213 L120.233676,46.1411213 C121.61441,46.1411213 122.308086,45.5624547 122.308086,44.395788 C122.308086,43.791788 122.132019,43.3651213 121.790476,43.103788 C121.459524,42.8544547 120.963095,42.723788 120.30119,42.723788 L118.434619,42.723788 Z" id="Fill-8"></path>
                    <polygon id="Fill-9" points="137.629857 42.0371213 137.629857 42.7504547 133.400286 42.7504547 133.400286 45.9531213 136.595962 45.9531213 136.595962 46.671788 133.400286 46.671788 133.400286 50.4744547 137.706638 50.4744547 137.706638 51.187788 132.676162 51.187788 132.676162 42.0371213"></polygon>
                    <path d="M25.1312,12.5411213 L20.4409429,12.5411213 L20.4409429,11.5264547 L20.4462381,11.5264547 C20.4409429,10.8331213 20.3747524,10.203788 20.245019,9.635788 C20.203981,9.45312133 20.1576476,9.28112133 20.1007238,9.119788 C19.9961429,8.80245467 19.8624381,8.50512133 19.7022571,8.239788 C19.6294476,8.119788 19.5473714,7.999788 19.453381,7.88512133 C19.3607143,7.77045467 19.2627524,7.655788 19.1594952,7.55712133 C18.5955524,6.99445467 17.8303905,6.567788 16.8626857,6.275788 L16.7236857,6.239788 L16.5370286,6.19312133 L16.5423238,6.19312133 C16.2471143,6.119788 15.8963048,6.04645467 15.4978381,5.97445467 L15.4726857,5.96912133 L15.2502857,5.931788 L15.0225905,5.90112133 L15.0225905,5.895788 C14.7062,5.84912133 14.4123143,5.827788 14.1488762,5.827788 C12.4676381,5.827788 11.0974952,6.19312133 10.0318286,6.911788 C9.0906,7.551788 8.62064762,8.551788 8.62064762,9.90645467 C8.62064762,10.2291213 8.70272381,10.567788 8.87349524,10.9224547 C8.95689524,11.0984547 9.0495619,11.255788 9.15281905,11.379788 L9.15281905,11.3851213 C9.23092381,11.483788 9.31829524,11.5731213 9.40566667,11.6411213 C9.67969524,11.8224547 10.0106476,11.983788 10.3945524,12.1251213 C10.8022857,12.2811213 11.2788571,12.4171213 11.8269143,12.5371213 L11.8626571,12.5411213 C12.0797619,12.5984547 12.4160095,12.6664547 12.8714,12.7504547 C13.3572381,12.8384547 13.9926667,12.947788 14.7737143,13.0731213 L14.7948952,13.0784547 L14.8001905,13.0784547 C15.3019143,13.155788 15.7877524,13.2451213 16.2471143,13.327788 L16.2524095,13.327788 C16.7488381,13.4224547 17.1936381,13.515788 17.5815143,13.5984547 C19.8055143,14.083788 21.4655714,14.635788 22.5616857,15.259788 L22.5722762,15.2651213 C23.8643143,16.0104547 24.8426095,16.9744547 25.499219,18.1504547 C26.1505333,19.3224547 26.4761905,20.687788 26.4761905,22.2451213 C26.4761905,22.7651213 26.4656,23.259788 26.4457429,23.723788 C26.4245619,24.171788 26.388819,24.5464547 26.3464571,24.843788 L26.3464571,24.8704547 L26.3411619,24.8744547 C26.3213048,24.9944547 26.305419,25.0931213 26.2842381,25.1771213 C26.264381,25.2651213 26.2326095,25.3651213 26.2021619,25.4744547 L26.2021619,25.479788 C26.0525714,25.9584547 25.8089905,26.431788 25.4727429,26.9064547 L25.4780381,26.9064547 C24.9140952,27.7184547 24.3144095,28.4371213 23.678981,29.0571213 C23.0369333,29.6824547 22.3604667,30.207788 21.6469333,30.6304547 L21.6363429,30.635788 L21.6363429,30.6411213 C21.3874667,30.791788 21.134619,30.931788 20.8764762,31.0624547 L20.871181,31.0624547 C20.6276,31.1824547 20.3588667,31.3024547 20.0742476,31.4171213 L20.0742476,31.4224547 C18.688219,31.9691213 17.1473048,32.2451213 15.4409143,32.2451213 L15.4409143,32.2504547 L15.4157619,32.2504547 L15.4157619,32.2451213 C14.1634381,32.2451213 13.0461429,32.1504547 12.0638762,31.9691213 C11.8984,31.9371213 11.738219,31.9064547 11.5833333,31.8704547 C10.7612476,31.6824547 10.0318286,31.4264547 9.40566667,31.0984547 L9.40169524,31.0984547 C9.1885619,30.9891213 8.97675238,30.859788 8.75435238,30.7131213 C8.53724762,30.5731213 8.33073333,30.4224547 8.13878095,30.2651213 L8.13878095,30.259788 C7.80385714,29.9891213 7.47290476,29.6824547 7.15121905,29.3384547 L7.15121905,31.8704547 L1.46280952,31.8704547 L1.46280952,20.0464547 L7.00162857,20.0464547 L7.13665714,20.8851213 C7.34846667,22.2451213 7.6582381,23.255788 8.05670476,23.9064547 L8.062,23.9064547 C8.12951429,24.0211213 8.19173333,24.1144547 8.23277143,24.1771213 L8.23806667,24.1771213 C8.29499048,24.255788 8.35588571,24.343788 8.4234,24.431788 C8.7437619,24.8491213 9.12237143,25.2131213 9.55658095,25.5264547 C10.2290762,25.9891213 10.9571714,26.3384547 11.738219,26.567788 C12.5351524,26.8024547 13.392981,26.9224547 14.323619,26.9224547 C15.9068952,26.9224547 17.1883429,26.5371213 18.1812,25.7651213 L18.1917905,25.7651213 L18.1917905,25.759788 C18.424781,25.583788 18.626,25.3851213 18.7967714,25.1771213 C18.9569524,24.9691213 19.0972762,24.7451213 19.2111238,24.499788 C19.4441143,23.999788 19.5566381,23.411788 19.5566381,22.7344547 C19.5566381,22.0571213 19.3964571,21.499788 19.0760952,21.0571213 C18.7451429,20.5984547 18.2182667,20.2344547 17.4941429,19.9584547 L17.4994381,19.9531213 C17.2254095,19.8651213 16.6720571,19.739788 15.8446762,19.5891213 C14.990819,19.4264547 13.7967429,19.2344547 12.266419,18.999788 C10.7294762,18.7651213 9.38051429,18.4691213 8.22747619,18.1144547 C7.03737143,17.7451213 6.04980952,17.307788 5.27405714,16.807788 C4.1422,16.0731213 3.2936381,15.1304547 2.72042857,13.983788 C2.16178095,12.8544547 1.8771619,11.551788 1.8771619,10.0731213 L1.8771619,10.031788 L1.88245714,10.031788 C1.88245714,9.515788 1.90760952,9.01045467 1.95526667,8.531788 L1.95526667,8.52112133 L1.97512381,8.29712133 L1.97512381,8.291788 C2.02145714,7.90112133 2.08367619,7.50512133 2.16707619,7.11445467 L2.16707619,7.09312133 C2.19752381,6.963788 2.22929524,6.82245467 2.27033333,6.67712133 C2.30607619,6.54112133 2.35240952,6.40645467 2.39874286,6.275788 L2.4040381,6.27045467 C2.65820952,5.58912133 3.0302,4.99445467 3.52133333,4.50512133 C4.22030476,3.80245467 4.94310476,3.19845467 5.699,2.687788 C6.4641619,2.17712133 7.26506667,1.759788 8.1030381,1.44245467 L8.11892381,1.43712133 L8.11892381,1.431788 C8.35588571,1.343788 8.58887619,1.259788 8.82186667,1.187788 C9.07471429,1.10912133 9.31829524,1.03712133 9.54599048,0.979788 C10.7916952,0.661121333 12.1313905,0.499788 13.5584571,0.499788 L13.5796381,0.499788 L13.5796381,0.505121333 C14.4639429,0.505121333 15.3164762,0.593121333 16.1385619,0.759788 L16.1438571,0.759788 C16.3358095,0.797121333 16.4748095,0.827788 16.547619,0.843788 C17.2201143,1.00512133 17.882019,1.22912133 18.5280381,1.51045467 L18.5386286,1.515788 L18.5439238,1.52112133 C18.771619,1.619788 18.9834286,1.723788 19.1846476,1.827788 L19.1899429,1.827788 C19.3660095,1.92645467 19.5672286,2.04112133 19.7896286,2.187788 C20.0173238,2.33312133 20.2344286,2.483788 20.4409429,2.65045467 L20.4409429,1.37445467 L26.1187619,1.37445467 L26.1187619,12.5411213 L25.1312,12.5411213 Z" id="Fill-10"></path>
                    <path d="M57.1197333,30.8704547 L57.1197333,29.223788 C56.6193333,29.8171213 56.065981,30.3131213 55.4557048,30.7131213 L55.461,30.7184547 L55.4504095,30.723788 L55.4345238,30.7344547 C55.2227143,30.8704547 54.9844286,31.0051213 54.7262857,31.135788 C54.4628476,31.2704547 54.203381,31.3851213 53.9558286,31.479788 C52.6267238,31.9944547 51.013,32.2504547 49.1252476,32.2504547 L49.1053905,32.2504547 L49.1053905,32.2451213 C47.8636571,32.2451213 46.7212095,32.1251213 45.6873143,31.895788 L45.682019,31.895788 C45.4847714,31.8491213 45.314,31.807788 45.1802952,31.7704547 C44.3211429,31.5371213 43.5308286,31.2131213 42.8172952,30.807788 L42.812,30.8024547 L42.8014095,30.7971213 C42.5379714,30.6464547 42.2798286,30.479788 42.0309524,30.2971213 L42.0256571,30.2971213 C41.7820762,30.119788 41.5451143,29.9264547 41.3227143,29.7184547 C40.1802667,28.671788 39.3886286,27.3171213 38.9438286,25.6664547 L38.9332381,25.6304547 L38.9332381,25.6251213 C38.9027905,25.499788 38.871019,25.3904547 38.8511619,25.3024547 C38.8246857,25.203788 38.7995333,25.083788 38.7730571,24.9584547 L38.7677619,24.9531213 C38.6592095,24.395788 38.5864,23.7504547 38.5612476,23.0211213 L38.5506571,22.8544547 L38.5506571,22.8491213 L38.5400667,22.4744547 L38.5400667,22.4691213 L38.5255048,22.119788 C38.509619,21.483788 38.4990286,21.015788 38.4990286,20.7131213 L38.4990286,6.59312133 L33.6790381,6.59312133 L33.6790381,1.37445467 L45.2319238,1.37445467 L45.2319238,19.8384547 L45.237219,19.8384547 L45.237219,19.859788 L45.2319238,19.859788 C45.237219,21.343788 45.3616571,22.5984547 45.6198,23.6144547 C45.6608381,23.775788 45.7018762,23.9264547 45.7495333,24.0731213 L45.7442381,24.0731213 C45.9666381,24.7704547 46.2605238,25.3224547 46.6179524,25.7184547 C46.7318,25.8331213 46.8456476,25.9424547 46.9594952,26.0371213 C47.0773143,26.1304547 47.2017524,26.223788 47.3420762,26.307788 C48.0662,26.7504547 49.0114,26.9744547 50.1803238,26.9744547 C51.5663524,26.9744547 52.7405714,26.687788 53.6963619,26.119788 C54.648181,25.551788 55.4133429,24.6931213 55.9931714,23.5411213 L56.0037619,23.5211213 L56.0130286,23.5051213 L56.0130286,23.499788 C56.065981,23.4011213 56.1229048,23.291788 56.1745333,23.1771213 C56.2314571,23.0571213 56.2830857,22.9371213 56.3241238,22.827788 C56.566381,22.207788 56.7477429,21.5051213 56.8668857,20.707788 L56.8668857,20.703788 L56.872181,20.6611213 C56.913219,20.3651213 56.9502857,20.0784547 56.9807333,19.8024547 C57.0058857,19.531788 57.0323619,19.239788 57.0535429,18.931788 C57.094581,18.343788 57.1157619,17.7344547 57.1157619,17.1091213 L57.1157619,6.59312133 L51.9489333,6.59312133 L51.9489333,1.37445467 L63.8579238,1.37445467 L63.8579238,26.4264547 L68.7348381,26.4264547 L68.7348381,31.8651213 L57.1157619,31.8651213 L57.1157619,30.8651213 L57.1197333,30.8704547 Z" id="Fill-11"></path>
                    <path d="M97.4760667,30.8704547 L97.4760667,29.223788 C96.9796381,29.8171213 96.4262857,30.3131213 95.8160095,30.7131213 L95.8160095,30.7184547 L95.805419,30.723788 L95.7948286,30.7344547 C95.5777238,30.8704547 95.3407619,31.0051213 95.0812952,31.135788 C94.8178571,31.2704547 94.5650095,31.3851213 94.3161333,31.479788 C92.9817333,31.9944547 91.3733048,32.2504547 89.481581,32.2504547 L89.4656952,32.2504547 L89.4656952,32.2451213 C88.2199905,32.2451213 87.076219,32.1251213 86.047619,31.895788 L86.0423238,31.895788 C85.8464,31.8491213 85.6756286,31.807788 85.5353048,31.7704547 C84.6774762,31.5371213 83.8911333,31.2131213 83.1776,30.807788 L83.1723048,30.8024547 L83.156419,30.7971213 L83.1617143,30.7971213 C82.8982762,30.6464547 82.6401333,30.479788 82.3912571,30.2971213 L82.3859619,30.2971213 C82.1437048,30.119788 81.905419,29.9264547 81.683019,29.7184547 C80.5405714,28.671788 79.7436381,27.3171213 79.2988381,25.6664547 L79.3041333,25.6664547 L79.2935429,25.6304547 L79.2935429,25.6251213 C79.2578,25.499788 79.2273524,25.3904547 79.2061714,25.3024547 C79.1796952,25.203788 79.1545429,25.083788 79.1333619,24.9584547 L79.1280667,24.9531213 C79.0195143,24.395788 78.9480286,23.7504547 78.9162571,23.0211213 L78.9109619,22.8544547 L78.9109619,22.8491213 L78.8964,22.4744547 L78.8964,22.4691213 L78.8858095,22.119788 C78.8646286,21.483788 78.8540381,21.015788 78.8540381,20.7131213 L78.8540381,6.59312133 L74.0406667,6.59312133 L74.0406667,1.37445467 L85.5922286,1.37445467 L85.5922286,19.8384547 L85.5975238,19.8384547 L85.5975238,19.859788 L85.5922286,19.859788 C85.5922286,21.343788 85.7219619,22.5984547 85.9801048,23.6144547 C86.0211429,23.775788 86.0635048,23.9264547 86.1098381,24.0731213 L86.1045429,24.0731213 C86.3269429,24.7704547 86.6168571,25.3224547 86.9782571,25.7184547 C87.0868095,25.8331213 87.2006571,25.9424547 87.3198,26.0371213 C87.4336476,26.1304547 87.563381,26.223788 87.702381,26.307788 C88.4265048,26.7504547 89.3730286,26.9744547 90.5366571,26.9744547 C91.9266571,26.9744547 93.1008762,26.687788 94.0579905,26.119788 C95.0098095,25.551788 95.7749714,24.6931213 96.348181,23.5411213 L96.3640667,23.5211213 L96.3693619,23.5051213 L96.3693619,23.499788 C96.4262857,23.4011213 96.4779143,23.291788 96.5295429,23.1771213 C96.5864667,23.0571213 96.6380952,22.9371213 96.6844286,22.827788 C96.9280095,22.207788 97.1080476,21.5051213 97.2218952,20.707788 L97.2218952,20.703788 L97.2271905,20.6611213 C97.2695524,20.3651213 97.3052952,20.0784547 97.3357429,19.8024547 C97.3675143,19.531788 97.3926667,19.239788 97.4138476,18.931788 C97.4548857,18.343788 97.4760667,17.7344547 97.4760667,17.1091213 L97.4760667,6.59312133 L92.3052667,6.59312133 L92.3052667,1.37445467 L104.219552,1.37445467 L104.219552,26.4264547 L109.089848,26.4264547 L109.089848,31.8651213 L97.4760667,31.8651213 L97.4760667,30.8651213 L97.4760667,30.8704547 Z" id="Fill-12"></path>
                    <path d="M127.954133,2.37445467 L127.954133,4.067788 C128.4916,3.33845467 129.076724,2.76512133 129.69759,2.343788 C131.119362,1.37045467 133.301,0.885121333 136.243829,0.885121333 L138.467829,0.885121333 L138.467829,7.187788 L137.288314,6.95845467 L137.185057,6.93712133 L136.983838,6.895788 L136.802476,6.859788 C136.548305,6.81312133 136.373562,6.78645467 136.270305,6.775788 L136.26501,6.775788 C136.1922,6.77045467 136.088943,6.76512133 135.964505,6.759788 L135.478667,6.755788 C132.6338,6.755788 130.622933,7.707788 129.448714,9.61445467 L129.432829,9.63045467 C129.309714,9.827788 129.190571,10.0571213 129.066133,10.3171213 C128.941695,10.583788 128.833143,10.843788 128.735181,11.103788 C128.2136,12.567788 127.948838,14.3851213 127.948838,16.567788 L127.948838,26.431788 L133.766981,26.431788 L133.766981,31.8704547 L116.335057,31.8704547 L116.335057,26.431788 L121.210648,26.431788 L121.210648,6.59312133 L116.335057,6.59312133 L116.335057,1.37445467 L127.948838,1.37445467 L127.948838,2.37445467 L127.954133,2.37445467 Z" id="Fill-13"></path>
                </g>
            </g>
        </g>
    </g>
</svg>