<?xml version="1.0" encoding="UTF-8"?>
<svg width="151px" height="37px" viewBox="0 0 151 37" version="1.1" xmlns="http://www.w3.org/2000/svg" xmlns:xlink="http://www.w3.org/1999/xlink">
    <!-- Generator: sketchtool 42 (36781) - http://www.bohemiancoding.com/sketch -->
    <title>939F62D0-15CE-407C-B07B-4141E579E349</title>
    <desc>Created with sketchtool.</desc>
    <defs></defs>
    <g id="Page-1" stroke="none" stroke-width="1" fill="none" fill-rule="evenodd">
        <g id="vogue_conf2017_landing_new" transform="translate(-498.000000, -3609.000000)" fill-rule="nonzero" fill="#231F20">
            <g id="Group-21" transform="translate(145.000000, 3570.000000)">
                <path d="M385.83829,75.6656627 L376.688476,56.0512048 L376.576208,56.0512048 L367.314126,75.6656627 L366.303717,75.6656627 L353,39.8358434 L361.476208,39.8358434 L367.650929,57.8343373 L367.875465,57.8343373 L376.183271,39.8358434 L377.137546,39.8358434 L385.445353,57.8900602 L385.669888,57.8900602 L391.84461,39.8358434 L400.040149,39.8358434 L386.848699,75.6656627 L385.83829,75.6656627 Z M496.646468,39.7801205 L504,39.7801205 L504,75.498494 L502.484387,75.498494 L480.592193,55.1039157 L480.479926,55.1039157 L480.479926,75.1641566 L473.014126,75.1641566 L473.014126,39.6686747 L474.642007,39.6686747 L496.646468,60.0075301 L496.646468,39.7801205 Z M420.865799,54.0451807 L435.909665,54.0451807 L435.909665,68.811747 L428.836803,68.811747 L428.836803,60.8433735 L420.865799,60.8433735 L420.865799,54.0451807 Z M410.481041,57.5 C410.481041,63.7409639 415.364684,68.2545181 422.549814,68.2545181 L423.784758,68.2545181 L423.784758,76 L422.605948,76 C410.930112,76 402.734572,68.1430723 402.734572,57.5 C402.734572,46.8012048 410.930112,39 422.605948,39 L423.784758,39 L423.784758,46.689759 L422.549814,46.689759 C415.364684,46.689759 410.481041,51.2590361 410.481041,57.5 Z M442.814126,64.6325301 C445.340149,67.0286145 449.60632,68.7003012 453.086617,68.7003012 C456.230112,68.7003012 458.363197,67.1400602 458.363197,64.8554217 C458.363197,62.3478916 455.556506,61.4006024 451.907807,59.8960843 C448.14684,58.3915663 442.42119,56.0512048 442.42119,49.5873494 C442.42119,44.0150602 447.080297,39 455.107435,39 C458.082528,39 461.843494,39.9472892 464.201115,41.2846386 L464.201115,49.1415663 C461.899628,47.4141566 458.419331,46.2439759 455.724907,46.2439759 C452.188476,46.2439759 450.336059,47.748494 450.336059,49.5873494 C450.336059,51.5933735 452.469145,52.5406627 455.444238,53.6551205 C459.991078,55.3825301 466.558736,57.5 466.558736,64.5210843 C466.558736,70.4834337 461.618959,75.9442771 453.367286,75.9442771 C449.494052,75.9442771 445.340149,74.7183735 442.87026,72.935241 L442.87026,64.6325301 L442.814126,64.6325301 Z" id="wgsn-logo"></path>
            </g>
        </g>
    </g>
</svg>